<?xml version="1.0" encoding="UTF-8" standalone="no"?>
<!-- Created with Inkscape (http://www.inkscape.org/) -->

<svg
   xmlns:dc="http://purl.org/dc/elements/1.1/"
   xmlns:cc="http://creativecommons.org/ns#"
   xmlns:rdf="http://www.w3.org/1999/02/22-rdf-syntax-ns#"
   xmlns:svg="http://www.w3.org/2000/svg"
   xmlns="http://www.w3.org/2000/svg"
   xmlns:sodipodi="http://sodipodi.sourceforge.net/DTD/sodipodi-0.dtd"
   xmlns:inkscape="http://www.inkscape.org/namespaces/inkscape"
   id="svg2"
   version="1.1"
   inkscape:version="0.91 r"
   xml:space="preserve"
   width="307.5"
   height="370"
   viewBox="0 0 307.5 370"
   sodipodi:docname="KI.svg"><metadata
     id="metadata8"><rdf:RDF><cc:Work
         rdf:about=""><dc:format>image/svg+xml</dc:format><dc:type
           rdf:resource="http://purl.org/dc/dcmitype/StillImage" /><dc:title></dc:title></cc:Work></rdf:RDF></metadata><defs
     id="defs6"><clipPath
       clipPathUnits="userSpaceOnUse"
       id="clipPath18"><path
         d="M 0,0 246,0 246,296 0,296 0,0 Z"
         id="path20"
         inkscape:connector-curvature="0" /></clipPath></defs><sodipodi:namedview
     pagecolor="#ffffff"
     bordercolor="#666666"
     borderopacity="1"
     objecttolerance="10"
     gridtolerance="10"
     guidetolerance="10"
     inkscape:pageopacity="0"
     inkscape:pageshadow="2"
     inkscape:window-width="703"
     inkscape:window-height="480"
     id="namedview4"
     showgrid="false"
     inkscape:zoom="0.45101946"
     inkscape:cx="148.13081"
     inkscape:cy="226.35579"
     inkscape:window-x="770"
     inkscape:window-y="450"
     inkscape:window-maximized="0"
     inkscape:current-layer="g10" /><g
     id="g10"
     inkscape:groupmode="layer"
     inkscape:label="KI"
     transform="matrix(1.25,0,0,-1.25,0,370)"><g
       id="g12" /><path
       d="m 45.703,71.635 -6.791,16.32 -0.092,0 0,-16.32 -6.32,0 0,31.989 6.32,0 0,-14.88 0.092,0 6.932,14.88 6.273,0 -7.39,-14.833 8.089,-17.156 -7.113,0"
       style="fill:#ffffff;fill-opacity:1;fill-rule:nonzero;stroke:none"
       id="path22"
       inkscape:connector-curvature="0" /><path
       d="m 63.371,71.172 c -6,0 -9.023,2.881 -9.023,7.857 0,6.418 4.746,8.414 11.437,9.301 l 0,0.836 c 0,2.367 -1.391,3.48 -3.578,3.48 -2.098,0 -3.953,-0.597 -5.301,-1.298 l -1.258,3.951 c 1.442,0.793 3.954,1.861 7.723,1.861 4.692,0 8.227,-2.322 8.227,-9.205 l 0,-14.926 c -1.813,-1.16 -4.325,-1.857 -8.227,-1.857 z m 2.414,13.525 c -3.859,-0.507 -5.766,-1.808 -5.766,-5.437 0,-2.559 1.258,-3.996 3.629,-3.996 0.836,0 1.672,0.234 2.137,0.416 l 0,9.017"
       style="fill:#ffffff;fill-opacity:1;fill-rule:nonzero;stroke:none"
       id="path24"
       inkscape:connector-curvature="0" /><path
       d="m 86.98,92.185 c -1.386,0.696 -2.976,0.649 -4.128,0.094 l 0,-20.644 -6.004,0 0,23.664 c 2.277,1.351 5.484,2.096 11.25,1.816 l -1.118,-4.93"
       style="fill:#ffffff;fill-opacity:1;fill-rule:nonzero;stroke:none"
       id="path26"
       inkscape:connector-curvature="0" /><path
       d="m 98.793,71.172 c -6.145,0 -9.164,5.578 -9.164,13.018 0,7.437 3.019,12.97 9.164,12.97 6.18,0 9.156,-5.533 9.156,-12.97 0,-7.44 -2.976,-13.018 -9.156,-13.018 z m 0,21.523 c -2.652,0 -3.113,-3.81 -3.113,-8.365 0,-4.558 0.511,-8.275 3.113,-8.275 2.695,0 3.164,3.717 3.164,8.226 0,4.557 -0.469,8.414 -3.164,8.414"
       style="fill:#ffffff;fill-opacity:1;fill-rule:nonzero;stroke:none"
       id="path28"
       inkscape:connector-curvature="0" /><path
       d="m 112.695,71.635 0,34.711 6.086,1.785 0,-36.496 -6.086,0"
       style="fill:#ffffff;fill-opacity:1;fill-rule:nonzero;stroke:none"
       id="path30"
       inkscape:connector-curvature="0" /><path
       d="m 127.238,100.784 c -1.757,0 -3.207,1.488 -3.207,3.257 0,1.813 1.45,3.252 3.207,3.252 1.817,0 3.305,-1.439 3.305,-3.252 0,-1.769 -1.488,-3.257 -3.305,-3.257 z m -2.972,-4.091 6.043,0 0,-25.059 -6.043,0 0,25.059 z"
       style="fill:#ffffff;fill-opacity:1;fill-rule:nonzero;stroke:none"
       id="path32"
       inkscape:connector-curvature="0" /><path
       d="m 147.238,71.635 0,17.715 c 0,2.183 -0.886,3.392 -3.027,3.392 -1.254,0 -1.863,-0.138 -2.504,-0.463 l 0,-20.644 -6.004,0 0,23.664 c 1.992,1.117 4.832,1.861 8.652,1.861 6.133,0 8.965,-2.51 8.965,-7.81 l 0,-17.715 -6.082,0"
       style="fill:#ffffff;fill-opacity:1;fill-rule:nonzero;stroke:none"
       id="path34"
       inkscape:connector-curvature="0" /><path
       d="m 163.551,71.172 c -2.84,0 -4.793,0.603 -6.227,1.857 l 1.481,4.422 c 0.703,-0.652 2.183,-1.396 3.816,-1.396 1.574,0 2.606,0.929 2.606,2.322 0,1.816 -0.797,2.555 -3.024,4.232 -2.367,1.766 -4.461,3.951 -4.461,7.252 0,4.278 2.832,7.299 7.016,7.299 2.699,0 4.695,-0.697 6.14,-1.861 l -1.445,-3.86 c -0.605,0.563 -1.762,1.207 -3.305,1.207 -1.48,0 -2.414,-1.113 -2.414,-2.367 0,-1.629 1.168,-2.605 3.391,-4.23 2.606,-1.949 4.465,-3.766 4.465,-7.436 0,-4.283 -3.387,-7.441 -8.039,-7.441"
       style="fill:#ffffff;fill-opacity:1;fill-rule:nonzero;stroke:none"
       id="path36"
       inkscape:connector-curvature="0" /><path
       d="m 188.281,71.635 -6.367,13.109 -0.094,0 0,-13.109 -5.996,0 0,34.711 5.996,1.785 0,-22.916 0.094,0 6.414,11.478 5.957,0 -6.976,-11.478 7.48,-13.58 -6.508,0"
       style="fill:#ffffff;fill-opacity:1;fill-rule:nonzero;stroke:none"
       id="path38"
       inkscape:connector-curvature="0" /><path
       d="m 205.625,71.172 c -5.996,0 -9.023,2.881 -9.023,7.857 0,6.418 4.746,8.414 11.445,9.301 l 0,0.836 c 0,2.367 -1.406,3.48 -3.59,3.48 -2.09,0 -3.945,-0.597 -5.297,-1.298 l -1.254,3.951 c 1.442,0.793 3.95,1.861 7.719,1.861 4.695,0 8.223,-2.322 8.223,-9.205 l 0,-14.926 c -1.813,-1.16 -4.325,-1.857 -8.223,-1.857 z m 2.422,13.525 c -3.871,-0.507 -5.766,-1.808 -5.766,-5.437 0,-2.559 1.25,-3.996 3.617,-3.996 0.84,0 1.684,0.234 2.149,0.416 l 0,9.017"
       style="fill:#ffffff;fill-opacity:1;fill-rule:nonzero;stroke:none"
       id="path40"
       inkscape:connector-curvature="0" /><path
       d="m 42.168,64.315 6.363,0 0,-31.992 -6.363,0 0,31.992 z"
       style="fill:#ffffff;fill-opacity:1;fill-rule:nonzero;stroke:none"
       id="path42"
       inkscape:connector-curvature="0" /><path
       d="m 65.643,32.322 0,17.719 c 0,2.189 -0.883,3.396 -3.02,3.396 -1.254,0 -1.861,-0.142 -2.514,-0.472 l 0,-20.643 -5.994,0 0,23.672 c 1.996,1.113 4.832,1.858 8.645,1.858 6.136,0 8.974,-2.512 8.974,-7.811 l 0,-17.719 -6.091,0"
       style="fill:#ffffff;fill-opacity:1;fill-rule:nonzero;stroke:none"
       id="path44"
       inkscape:connector-curvature="0" /><path
       d="m 81.965,31.859 c -2.842,0 -4.793,0.608 -6.233,1.866 l 1.485,4.42 c 0.697,-0.659 2.187,-1.401 3.812,-1.401 1.582,0 2.606,0.928 2.606,2.328 0,1.813 -0.791,2.553 -3.026,4.235 -2.365,1.753 -4.459,3.943 -4.459,7.244 0,4.283 2.832,7.301 7.018,7.301 2.697,0 4.697,-0.698 6.139,-1.858 l -1.442,-3.855 c -0.603,0.551 -1.767,1.203 -3.301,1.203 -1.49,0 -2.414,-1.112 -2.414,-2.373 0,-1.627 1.157,-2.604 3.387,-4.227 2.606,-1.955 4.471,-3.769 4.471,-7.437 0,-4.282 -3.397,-7.446 -8.043,-7.446"
       style="fill:#ffffff;fill-opacity:1;fill-rule:nonzero;stroke:none"
       id="path46"
       inkscape:connector-curvature="0" /><path
       d="m 101.721,32.002 c -4.096,0 -6.325,2.789 -6.325,7.207 l 0,13.662 -2.23,0 0,4.516 2.23,0 0,5.439 6.045,1.902 0,-7.341 3.299,0 0,-4.516 -3.299,0 0,-13.018 c 0,-2.322 0.784,-3.109 2.045,-3.109 0.559,0 0.924,0.141 1.254,0.234 l 0,-4.318 c -0.373,-0.287 -1.625,-0.658 -3.019,-0.658"
       style="fill:#ffffff;fill-opacity:1;fill-rule:nonzero;stroke:none"
       id="path48"
       inkscape:connector-curvature="0" /><path
       d="m 111.85,61.478 c -1.766,0 -3.202,1.487 -3.202,3.25 0,1.819 1.436,3.258 3.202,3.258 1.822,0 3.302,-1.439 3.302,-3.258 0,-1.763 -1.48,-3.25 -3.302,-3.25 z m -2.973,-4.091 6.043,0 0,-25.064 -6.043,0 0,25.064 z"
       style="fill:#ffffff;fill-opacity:1;fill-rule:nonzero;stroke:none"
       id="path50"
       inkscape:connector-curvature="0" /><path
       d="m 127.842,32.002 c -4.092,0 -6.321,2.789 -6.321,7.207 l 0,13.662 -2.228,0 0,4.516 2.228,0 0,5.439 6.045,1.902 0,-7.341 3.297,0 0,-4.516 -3.297,0 0,-13.018 c 0,-2.322 0.791,-3.109 2.049,-3.109 0.555,0 0.924,0.141 1.248,0.234 l 0,-4.318 c -0.371,-0.287 -1.627,-0.658 -3.021,-0.658"
       style="fill:#ffffff;fill-opacity:1;fill-rule:nonzero;stroke:none"
       id="path52"
       inkscape:connector-curvature="0" /><path
       d="m 143.701,31.859 c -5.582,0 -8.785,2.416 -8.785,8.696 l 0,16.832 6.039,0 0,-17.534 c 0,-1.994 0.977,-3.247 2.934,-3.247 0.921,0 1.761,0.232 2.412,0.601 l 0,20.18 6.088,0 0,-23.571 c -1.807,-1.156 -4.745,-1.957 -8.688,-1.957"
       style="fill:#ffffff;fill-opacity:1;fill-rule:nonzero;stroke:none"
       id="path54"
       inkscape:connector-curvature="0" /><path
       d="m 165.174,32.002 c -4.09,0 -6.322,2.789 -6.322,7.207 l 0,13.662 -2.227,0 0,4.516 2.227,0 0,5.439 6.042,1.902 0,-7.341 3.299,0 0,-4.516 -3.299,0 0,-13.018 c 0,-2.322 0.793,-3.109 2.049,-3.109 0.559,0 0.93,0.141 1.25,0.234 l 0,-4.318 c -0.363,-0.287 -1.619,-0.658 -3.019,-0.658"
       style="fill:#ffffff;fill-opacity:1;fill-rule:nonzero;stroke:none"
       id="path56"
       inkscape:connector-curvature="0" /><path
       d="m 177.213,42.088 c 0.377,-3.627 1.949,-5.44 4.924,-5.44 2.556,0 4.281,0.7 5.257,1.309 l 1.352,-4.232 c -1.584,-1.12 -4.053,-1.866 -7.402,-1.866 -6.592,0 -10.129,4.885 -10.129,13.065 0,7.533 3.443,12.928 9.392,12.928 6.323,0 9.391,-5.395 8.926,-14.225 l -12.32,-1.539 z m 3.26,11.394 c -2.239,0 -3.682,-3.072 -3.637,-7.484 l 6.793,0.838 c 0,4.224 -0.932,6.646 -3.156,6.646"
       style="fill:#ffffff;fill-opacity:1;fill-rule:nonzero;stroke:none"
       id="path58"
       inkscape:connector-curvature="0" /><path
       d="m 201.34,32.002 c -4.094,0 -6.322,2.789 -6.322,7.207 l 0,13.662 -2.231,0 0,4.516 2.231,0 0,5.439 6.044,1.902 0,-7.341 3.301,0 0,-4.516 -3.301,0 0,-13.018 c 0,-2.322 0.788,-3.109 2.042,-3.109 0.564,0 0.929,0.141 1.259,0.234 l 0,-4.318 c -0.373,-0.287 -1.634,-0.658 -3.023,-0.658"
       style="fill:#ffffff;fill-opacity:1;fill-rule:nonzero;stroke:none"
       id="path60"
       inkscape:connector-curvature="0" /><path
       d="m 107.707,202.56 c -0.406,1.127 -17.607,0.889 -23.824,0.847 -1.989,0 -6.543,-0.157 -6.543,-0.157 0,0 1.312,5.478 9.49,3.961 3.281,-0.613 5.264,-2.689 9.328,-2.21 -0.052,0.251 -0.033,0.235 -0.123,0.371 -0.25,0.471 -1.336,0.292 -1.35,0.978 0.981,0.404 4.696,-1.425 5.155,-1.349 -2.295,0.9 -1.68,0.983 -1.723,0.983 0,0.04 1.188,0.659 1.842,-0.366 -0.529,1.496 -2.014,0.324 -3.313,0.609 -0.531,0.119 -1.086,0.34 -1.718,0.369 0.658,0.617 1.334,0.116 1.724,0.031 0.082,0.156 0.127,0.103 0.241,0.214 -0.346,1.538 -4.268,2.508 -6.258,1.842 -0.612,-0.204 -3.268,0.946 -4.176,1.23 -3.514,1.086 -8.451,0.949 -11.041,-0.863 -3.203,-2.232 -4.994,-7.529 -2.09,-11.533 1.695,-2.335 4.742,-3.102 8.471,-3.438 -0.434,-0.427 -0.502,-0.869 -0.246,-1.838 0.494,-1.879 1.189,-3.302 3.068,-4.787 0.539,-0.431 1.735,-0.765 2.088,-1.353 0.299,-0.496 0.404,-1.086 0.611,-1.593 0.657,-0.037 1.309,-0.08 1.965,-0.124 0.006,-0.17 -0.053,-1.644 -0.053,-1.644 0,0 -1.728,-0.559 -2.338,-1.732 -0.277,-0.527 -1.574,-3.273 2.34,-4.763 -0.361,-1.389 -1.695,-2.491 -3.019,-2.905 -0.873,-0.271 -1.598,-0.25 -2.172,-0.769 -0.426,-0.405 -0.477,-1.586 -0.477,-1.67 5.358,0 10.618,-0.012 15.973,-0.012 0.154,1.004 -0.15,1.731 -1.285,2.045 -1.574,0.58 -1.469,0.279 -2.801,1.482 1.617,1.821 0.004,3.475 -1.506,3.766 0,0.578 0,2.174 0,2.174 0,0 1.235,0.613 1.715,0.839 1.799,0.832 2.773,1.714 3.369,2.457 0.922,1.166 0.967,3.137 0.508,4.269 3.891,4.463 1.785,5.702 1.887,6.136 0.48,2.043 1.353,5.252 3.945,5.965 0.902,0.25 2.768,0.254 2.848,0.254 -0.305,0.864 -0.162,1.851 -0.512,2.284 z m -22.305,0.088 0,-1.596 -1.191,0 c -0.041,0.535 -0.08,1.066 -0.117,1.596 l 1.308,0 z m -2.3,-0.122 c 0.082,-0.404 0.128,-0.909 0.121,-1.474 l -1.17,0 c 0.132,0.383 -0.049,1 -0.061,1.56 0.25,-0.048 1.029,-0.086 1.11,-0.086 z m -3.145,0.086 c 0.289,-0.04 0.914,0.081 1.199,0.036 0.082,-0.53 0.055,-1.168 0.141,-1.703 -0.36,-0.004 -1,-0.192 -1.19,-0.064 0,0.405 -0.173,1.102 -0.15,1.731 z m -1.832,-0.185 c 0.289,-0.043 0.652,0.064 0.937,0.021 0.081,-0.528 0.055,-0.98 0.137,-1.513 -0.355,-0.004 -0.734,-0.027 -0.926,0.103 0,0.409 -0.171,0.763 -0.148,1.389 z m 1.514,-2.48 c 0.244,-0.285 0.494,-0.569 0.74,-0.855 l 0,-0.124 c -0.887,0.191 -1.84,0.49 -2.457,0.979 l 1.717,0 z m -5.522,1.599 c -0.148,2.326 0.596,4.49 2.149,5.762 3.064,2.514 5.871,3.163 13.804,1.03 1.18,-0.318 2.002,0.205 3.1,0.004 0.428,-0.079 0.916,-0.102 1.287,-0.393 -0.031,-0.184 -0.031,-0.364 -0.031,-0.364 0,0 -1.217,0.458 -1.653,0.142 -0.082,0 -0.363,-0.363 0.243,-0.735 0.867,0.506 1.4,0.146 1.595,0.078 -0.945,-0.594 -0.125,-1.312 -0.125,-1.351 -2.935,0.059 -4.459,1.12 -6.502,1.959 -2.363,0.977 -6.355,0.898 -8.715,-0.121 -4.609,-1.981 -4.959,-9.231 1.502,-9.533 0.196,-0.712 0.483,-1.754 0.78,-2.641 -6.328,0.272 -7.42,5.934 -7.434,6.163 z M 86.012,187.78 c -0.002,0.007 -0.008,0.013 -0.014,0.02 -0.197,0.16 -1.592,1.145 -2.642,3.136 -0.422,0.918 -0.766,1.509 -0.407,1.889 1.276,1.025 2.059,-3.412 3.049,-5.025 0.021,-0.013 0.029,-0.02 0.014,-0.02 z m -0.202,3.36 c -0.224,1.156 -0.091,2.294 0.87,2.246 1.595,0.099 1.992,-3.93 2.554,-6.133 0.233,-0.079 -1.023,-0.024 -1.023,-0.024 0,0 -1.742,0.551 -2.401,3.911 z m 3.116,0.611 c 0,1.692 1.379,2.354 1.945,1.999 0.969,-0.668 0.219,-6.378 0.033,-6.63 -0.275,-0.005 -0.752,0.035 -0.752,0.035 0,0 -1.414,3.401 -1.226,4.596 z m -0.446,-6.47 c -0.015,0.051 -0.302,0.902 -0.32,1.102 2.692,-0.182 5.258,-0.171 8.117,0 -0.07,-0.228 -0.529,-1.078 -0.658,-1.102 -1.482,-0.28 -7.096,-0.131 -7.139,0 z m 4.899,1.874 -1.332,0 c 0.101,2.632 -0.188,4.283 0.562,5.418 0.332,0.628 1.516,1.601 2.25,0.661 0.326,-1.269 -0.679,-4.247 -1.48,-6.079 z m 4.16,6.321 c 1.172,-0.255 0.645,-4.639 -2.086,-6.31 -0.162,0 -0.855,-0.046 -1.021,-0.046 0.75,1.992 1.144,6.63 3.107,6.356 z m -3.07,-8.932 c 0,0 -1.809,-1.124 -3.992,-1.534 0,0.45 0.035,1.5 0.035,1.5 l 3.957,0.034 z m 0.451,-10.669 c 0.746,-1.306 3.971,-1.531 3.318,-2.029 -4.334,0 -12.429,0 -12.429,0 0,0 0.007,0.108 0.054,0.391 6.047,1.537 3.141,5.822 7.399,7.533 0.121,0.051 0,-3.994 0,-3.994 -0.182,-0.844 0.455,-1.422 -2.577,-3.027 0,-0.043 3.526,0.464 4.235,1.126 z m -5.496,3.03 c -0.018,0.021 -1.707,2.068 -0.276,3.619 2.241,2.426 7.5,2.42 8.252,5.964 0.211,0.08 1.723,1.022 1.807,1.022 0.953,-6.147 -8.555,-5.453 -9.783,-10.605 z m 8.314,10.433 c -0.629,-0.372 -0.978,-0.202 -0.988,-0.202 0,0 1.732,1.192 2.457,5.044 0.574,1.324 1.336,1.267 1.701,1.021 1.635,-1.021 -2.095,-5.421 -3.17,-5.863 z m 2.856,7.04 c -0.821,-0.166 -1.311,-0.28 -1.744,-0.996 -0.334,0.62 -0.25,0.62 -1.231,0.953 -1.287,0 -1.779,-0.417 -2.17,-1.049 -0.09,0.562 -0.84,1.007 -1.593,1.175 -1.387,0 -1.497,-0.558 -2.057,-1.175 0,0 -0.436,1.33 -1.717,1.216 -1.18,0 -1.844,-0.713 -2.031,-1.508 -0.442,0.475 -0.367,1.195 -1.785,1.264 -0.569,0.043 -1.465,-0.398 -1.633,-1.176 -0.078,0 -0.664,0.714 -1.313,0.977 -0.08,0.368 -0.734,4.423 -1.804,5.516 0,0.007 0.589,0.237 1.41,-0.307 1.14,-0.616 1.648,-4.361 1.648,-4.361 l 0.807,0.544 c 0,0 -0.053,2.384 -0.565,4.071 0.315,0.009 0.953,0.089 1.297,-0.321 0.615,-0.675 0.887,-3.326 0.887,-3.326 l 0.746,0.534 c 0,0 -0.203,1.964 -0.338,3.298 0.356,0.003 0.752,0.023 1.108,-0.439 0.474,-0.698 0.675,-2.416 0.675,-2.416 l 0.688,0.682 c 0,0 -0.195,1.118 -0.322,2.214 5.72,0.086 12.492,0.137 13.511,-0.067 0.039,0 -1.63,-1.695 -2.474,-5.303 z m 6.201,6.811 c -1.151,-0.293 -13.717,0.46 -20.236,-0.137 l 0,1.596 c 9.16,0.422 20.187,-0.34 20.187,-0.34 0,0 0.203,-0.609 0.049,-1.119"
       style="fill:#ffffff;fill-opacity:1;fill-rule:evenodd;stroke:none"
       id="path62"
       inkscape:connector-curvature="0" /><path
       d="m 174.014,203.135 c -3.455,6.452 -10.621,4.628 -11.696,4.124 -3.076,-0.871 -6.08,-5.058 -5.998,-9.201 -3.914,4.167 -2.074,12.235 -2.035,12.607 0.055,0.96 0.176,1.249 0.012,1.824 0.93,0.259 0.937,0.254 1.574,1.014 2.465,3.559 0.445,4.052 -0.969,2.312 0.157,2.313 -1.062,1.371 -1.718,1.105 -0.055,1.638 -1.225,0.761 -1.473,0.367 -0.719,2.419 -2.668,0.343 -3.192,-0.488 -2.255,0.737 -3.398,-0.367 -3.439,-0.367 2.1,-0.523 1.926,-1.104 1.967,-1.104 -0.246,-0.767 -0.938,-1.008 -1.967,-0.983 0.041,-0.125 1.596,-0.771 2.455,0.245 0.934,1.389 -0.894,1.849 -0.894,1.93 1.054,-0.01 2.218,-0.415 2.863,-0.58 2.34,-0.601 4.033,-1.607 4.172,-3.924 0.062,-1.103 -0.319,-2.369 -0.492,-3.194 -0.432,-2.028 -0.487,-5.191 0,-6.993 0.543,-2.044 3.039,-7.991 4.306,-5.395 0.545,1.125 0.578,3.063 1.522,5.64 1.134,3.076 4.668,5.608 8.961,4.72 7.584,-1.575 6.633,-7.645 6.398,-8.337 -0.23,-0.682 -0.742,-1.524 -0.742,-1.524 0,0 1.242,5.196 -2.813,6.071 1.063,-1.097 1.875,-6.069 -0.507,-8.101 2.13,3.967 0.351,8.335 -3.604,9.25 1.615,-1.607 3.604,-5.387 1.471,-8.338 0.299,2.642 0.195,6.353 -4.512,7.219 6.68,-3.827 2.242,-11.069 2.242,-11.149 5.899,5.695 3.035,9.937 3.035,9.937 0,0 3.194,-2.245 -0.085,-8.917 4.855,2.912 3.429,7.835 3.472,7.835 1.801,-1.194 0.469,-5.352 0.469,-5.431 0.082,0 1.391,1.41 1.861,3.082 0.518,1.841 -0.056,3.66 -0.644,4.744"
       style="fill:#ffffff;fill-opacity:1;fill-rule:evenodd;stroke:none"
       id="path64"
       inkscape:connector-curvature="0" /><path
       d="m 149.133,214.1 c 0.16,-0.094 1.101,0.656 1.101,0.736 -0.656,0.187 -0.941,0.488 -1.84,0.492 0.055,-0.256 0.358,-1.102 0.739,-1.228"
       style="fill:#ffffff;fill-opacity:1;fill-rule:evenodd;stroke:none"
       id="path66"
       inkscape:connector-curvature="0" /><path
       d="m 154.012,173.018 0.371,0 c -0.069,-0.416 -0.371,-0.9 -0.371,-0.984 0.996,0.066 1.261,0.363 1.472,0.865 -0.035,0.828 -0.544,0.908 -0.978,1.348 0.015,0.08 0.535,0.535 0.615,0.855 0.106,0.443 -0.556,1.797 -0.367,2.457 0.17,0.586 0.711,0.574 0.855,1.225 -0.242,0.045 -0.488,0.084 -0.734,0.125 -0.582,2.773 1.312,3.969 1.582,6.358 1.393,-0.284 2.742,-0.111 3.816,0.393 -2.318,0.093 -6.222,0.991 -7.697,1.83 -2.33,0.779 -6.437,5.576 -6.963,6.446 -1.084,1.8 -2.142,5.193 -1.289,8.533 0.645,2.58 3.762,8.41 3.926,9.573 -0.133,1.174 -1.713,1.795 -1.965,1.84 0.055,-0.363 0.18,-0.455 0.246,-0.611 -3.887,-1.501 -2.945,-4.337 -1.474,-4.175 0.054,-0.239 -0.479,-0.944 0.615,-1.226 -0.264,-0.785 -2.703,-4.652 -2.824,-7.485 -0.338,-7.863 3.875,-10.14 4.418,-11.047 1.808,-2.996 -0.539,-4.818 -1.612,-5.029 -1.42,-0.277 -2.308,-0.552 -3.048,-0.336 -0.643,0.182 -0.922,0.955 -1.475,0.948 -1.147,-0.056 -1.262,-0.956 -1.955,-1.428 0,-0.197 1.535,0.852 1.463,0.322 -0.104,-0.4 -0.699,-1.138 -0.493,-2.206 0.405,0.234 0.135,0.339 0.37,0.735 0.248,0.423 0.882,0.639 1.228,0.982 0.365,-0.039 0.733,-0.081 1.104,-0.12 0.043,-0.042 0.082,-0.083 0.121,-0.124 -0.004,-0.933 -0.289,-1.597 -0.86,-1.968 l 0,-0.244 c 0.868,0.212 1.602,0.887 1.719,1.842 1.785,0.008 2.891,-0.132 3.93,-0.736 0.09,0.326 -0.051,0.688 0.121,0.983 0.734,0.559 1.572,0.371 2.535,0.879 0.199,0.101 0.633,0.43 0.777,0.596 0.043,0.039 0.174,0.011 0.174,-0.031 3.061,-2.365 1.217,-8.738 1.121,-9.067 0.285,-0.129 0.354,-0.191 0.354,-0.191 0,0 0.029,-0.07 0.082,-0.162 0.027,-0.02 0.051,-0.033 0.055,-0.041 1.339,2.588 1.015,6.856 0.3,8.505 -0.631,1.46 -3.455,4.021 -4.66,5.159 l 0,0.119 c 0.533,-0.447 4.225,-2.968 6.821,-3.308 0.046,-1.497 -1.055,-4.164 -1.055,-4.205 -0.004,-0.876 0,-1.659 0.123,-2.303 -0.147,-0.639 -0.084,-1.659 -0.295,-2.473 0,-0.287 0.092,-0.588 0.092,-0.869 -0.18,-0.375 -0.77,-0.375 -0.901,-0.959 -0.226,0.037 -0.39,0.234 -0.48,0.375 -0.127,0.105 -0.44,0.338 -0.44,0.338 0,0 0.002,0.006 0.004,0.015 -0.005,0.002 -0.015,0.006 -0.021,0.01 -0.52,-0.252 -0.746,-0.543 -1.885,-0.244 -0.318,-0.332 -0.615,-0.559 -0.859,-0.977 -0.924,0.11 -2.481,0.772 -3.561,0.368 -1.531,-0.582 -3.387,-2.668 -3.387,-2.668 0,0 -0.472,-0.676 -0.046,-0.889 0.347,-0.156 2.027,-0.105 2.828,-0.088 0.687,0.014 3.953,0.041 4.775,0.209 0.617,0.123 2.924,0.088 2.211,0.486 -0.451,0.303 -3.924,0.243 -3.924,0.243 -1.314,0 -2.824,0.074 -2.785,0.115 0.918,1.627 3.625,1.711 3.754,1.619 0.049,-0.076 0.023,-0.328 0.01,-0.752 l 0.244,0 c 0.301,0.68 0.73,0.824 1.109,1.357 0.348,-0.013 0.522,-0.052 0.736,-0.125 -0.439,-0.884 0.649,-1.808 0.649,-1.767 0.27,0.248 -0.111,0.822 0.086,1.154 0.234,0.274 0.623,0.33 0.857,0.613 0.567,-0.126 0.539,-0.556 0.735,-0.982"
       style="fill:#ffffff;fill-opacity:1;fill-rule:evenodd;stroke:none"
       id="path68"
       inkscape:connector-curvature="0" /><path
       d="m 162.455,199.386 c 1.064,-0.839 1.566,-0.954 2.389,-2.594 1.472,-2.946 -0.838,-4.984 -0.838,-5.067 3.406,2.123 2.947,8.307 -0.895,9.11 0.51,-0.458 1.946,-1.248 2.317,-3.482 0,-0.083 -1.422,2.083 -2.973,2.033"
       style="fill:#ffffff;fill-opacity:1;fill-rule:evenodd;stroke:none"
       id="path70"
       inkscape:connector-curvature="0" /><path
       d="m 148.262,194.596 c -0.188,0.16 -2.205,2.385 -1.215,7.597 -0.082,0 -3.063,-4.943 1.215,-7.597"
       style="fill:#ffffff;fill-opacity:1;fill-rule:evenodd;stroke:none"
       id="path72"
       inkscape:connector-curvature="0" /><path
       d="m 158.219,187.704 c -0.385,-0.125 -3.399,-0.702 -6.961,3.228 -0.045,-0.067 2.398,-5.27 6.961,-3.228"
       style="fill:#ffffff;fill-opacity:1;fill-rule:evenodd;stroke:none"
       id="path74"
       inkscape:connector-curvature="0" /><path
       d="m 158.219,187.704 c 0.031,0.007 0.047,0.015 0.043,0.015 -0.012,-0.006 -0.028,-0.009 -0.043,-0.015"
       style="fill:#ffffff;fill-opacity:1;fill-rule:evenodd;stroke:none"
       id="path76"
       inkscape:connector-curvature="0" /><path
       d="m 151.305,193.471 c -0.059,-0.085 2.422,-6.735 8.035,-4.562 -0.473,-0.13 -4.197,-0.693 -8.035,4.562"
       style="fill:#ffffff;fill-opacity:1;fill-rule:evenodd;stroke:none"
       id="path78"
       inkscape:connector-curvature="0" /><path
       d="m 159.34,188.909 c 0.031,0.009 0.054,0.015 0.051,0.017 -0.02,-0.008 -0.036,-0.013 -0.051,-0.017"
       style="fill:#ffffff;fill-opacity:1;fill-rule:evenodd;stroke:none"
       id="path80"
       inkscape:connector-curvature="0" /><path
       d="m 158.438,191.554 c -0.036,0.019 -0.055,0.027 -0.055,0.024 0.019,-0.008 0.031,-0.016 0.055,-0.024"
       style="fill:#ffffff;fill-opacity:1;fill-rule:evenodd;stroke:none"
       id="path82"
       inkscape:connector-curvature="0" /><path
       d="m 158.438,191.554 c 0.414,-0.259 3.353,-2.609 2.109,-8.997 0.097,0.013 3.297,6.361 -2.109,8.997"
       style="fill:#ffffff;fill-opacity:1;fill-rule:evenodd;stroke:none"
       id="path84"
       inkscape:connector-curvature="0" /><path
       d="m 159.51,192.262 c -0.033,0.015 -0.053,0.022 -0.049,0.017 0.016,-0.004 0.035,-0.011 0.049,-0.017"
       style="fill:#ffffff;fill-opacity:1;fill-rule:evenodd;stroke:none"
       id="path86"
       inkscape:connector-curvature="0" /><path
       d="m 159.51,192.262 c 0.457,-0.196 3.699,-2.102 3.381,-8.597 0.093,0.023 2.355,6.759 -3.381,8.597"
       style="fill:#ffffff;fill-opacity:1;fill-rule:evenodd;stroke:none"
       id="path88"
       inkscape:connector-curvature="0" /><path
       d="m 159.508,193.273 c 0.011,-0.003 0.021,-0.003 0.033,-0.004 -0.022,0.004 -0.033,0.006 -0.033,0.004"
       style="fill:#ffffff;fill-opacity:1;fill-rule:evenodd;stroke:none"
       id="path90"
       inkscape:connector-curvature="0" /><path
       d="m 159.541,193.269 c 0.373,-0.068 4.678,-1.441 5.182,-7.66 0.09,0.043 1.41,7.086 -5.182,7.66"
       style="fill:#ffffff;fill-opacity:1;fill-rule:evenodd;stroke:none"
       id="path92"
       inkscape:connector-curvature="0" /><path
       d="m 149.289,195.1 c 0,-0.029 -1.375,1.736 -0.855,5.303 -0.059,0 -1.793,-3.289 0.855,-5.303"
       style="fill:#ffffff;fill-opacity:1;fill-rule:evenodd;stroke:none"
       id="path94"
       inkscape:connector-curvature="0" /><path
       d="m 159.316,173.602 c -1.209,-0.012 -1.632,-0.652 -1.593,-0.732 1.082,-0.262 2.675,-0.354 3.834,-1.211 0.316,0.023 0.705,-0.024 0.705,-0.024 0,0 -0.602,1.746 -2.946,1.967"
       style="fill:#ffffff;fill-opacity:1;fill-rule:evenodd;stroke:none"
       id="path96"
       inkscape:connector-curvature="0" /><path
       d="m 153.307,171.391 0,-0.246 c 0.859,-0.031 2.248,-0.207 3.064,-0.24 2.188,-0.094 5.166,0.334 5.455,0.433 0.346,0 0.436,0.215 0.436,0.297 -1.184,0.041 -2.369,0.084 -3.555,0.123 -0.607,-0.429 -4.32,-0.166 -5.4,-0.367"
       style="fill:#ffffff;fill-opacity:1;fill-rule:evenodd;stroke:none"
       id="path98"
       inkscape:connector-curvature="0" /><path
       d="m 152.523,175.409 -0.07,-0.065 0.357,-0.357 0.163,-0.067 0.027,0.075 -0.063,0.246 -0.414,0.168"
       style="fill:#ffffff;fill-opacity:1;fill-rule:evenodd;stroke:none"
       id="path100"
       inkscape:connector-curvature="0" /><path
       d="m 127.766,181.528 c -0.067,1.428 -0.067,3.236 0,4.661 4.461,0.506 7.484,2.909 8.525,6.199 3.254,10.266 -7.416,11.427 -8.404,11.968 -0.039,0.896 0.078,1.769 0.039,2.674 6.849,0.882 9.273,7.113 5.605,12.541 -1.554,2.303 -6.545,3.191 -6.625,3.191 -0.058,3.283 -0.443,7.853 -1.525,9.712 -0.612,0.573 -1.018,0.644 -1.668,0.719 -3.75,0.097 -2.944,-9.365 -3.076,-9.749 -1.67,0.205 -3.074,0.838 -3.66,2.236 -0.528,1.269 0.175,2.398 0.175,2.398 2.264,0.117 3.11,2.977 3.004,5.731 -0.033,0.893 -0.343,2.231 0,2.819 0.029,1.429 -0.556,0.815 -1.23,1.515 -0.18,0.274 0.242,0.939 0.49,1.184 0.955,0.943 2.037,1.904 3.197,2.702 -0.91,-0.267 -3.015,-2.162 -3.322,-2.193 -1.154,-0.241 0.537,4.281 0.496,4.281 -0.424,-1.008 -0.953,-2.302 -1.271,-3.596 -0.262,-1.053 0.837,-1.301 0.043,-2.296 -0.155,-0.193 -0.52,0.018 -0.86,-0.124 -0.389,-0.163 -5.535,-4.724 -4.125,-7.644 0.127,-0.269 0.512,-0.811 0.322,-1.438 -0.255,-0.833 -0.978,-1.523 -1.228,-2.454 -1.584,-5.882 3.414,-8.258 7.791,-8.73 0.039,-0.042 -0.024,-2.523 0.029,-3.795 -4.425,-0.475 -7.98,-2.137 -9.656,-5.391 -0.851,-1.642 -0.988,-4.442 0,-6.139 1.945,-3.347 4.848,-4.762 8.584,-6.378 0.01,-0.739 0.029,-3.347 0.029,-3.632 -4.037,-0.826 -7.984,-2.439 -9.842,-5.448 -1.201,-1.94 -1.181,-5.089 0,-6.999 1.512,-2.439 5.962,-4.972 9.448,-5.4 -0.028,-0.779 0.107,-3.461 0,-3.799 -1.024,-0.111 -3.936,-1.541 -5.401,-4.664 -1.654,-4.965 2.086,-7.029 5.278,-8.592 -0.018,-3.961 -0.59,-8.307 -0.494,-11.287 0.543,-0.854 1.078,-1.529 2.089,-1.846 0.415,-0.189 1.621,0.299 2.454,0.246 0.363,-0.021 0.464,-0.103 0.615,-0.246 0.771,-0.73 4.193,0.522 4.662,1.594 0.102,0.238 0,2.283 0,3.197 -0.039,2.414 -0.08,4.498 -0.119,6.907 0.806,0.755 1.955,2.128 2.568,3.052 3.32,5.016 -2.07,4.739 -2.937,4.641 0.039,0.615 -0.055,1.187 -0.012,1.801 4.422,0.857 8.133,2.031 9.199,6.279 1.979,7.891 -6.006,9.51 -9.187,9.592 z m -4.993,50.402 c 0.454,0.614 1.121,0.893 1.778,0.509 1.306,-0.756 1.474,-7.012 1.617,-9.064 0.098,-1.361 0.465,-7.332 0.123,-8.344 -1.014,-0.234 -4.264,-0.787 -4.264,-0.787 0,0 -0.984,14.401 0.746,17.686 z m -3.23,-12.726 c 0.07,0.902 0.658,1.917 0.516,2.093 -0.319,0.167 -2.766,-1.109 -2.848,-1.109 0.242,0.71 1.685,2.148 1.285,2.191 -0.18,0.158 -3.248,-0.354 -3.863,-0.354 0,0.041 2.133,1.156 2.043,1.352 -0.012,0.246 -2.774,1.007 -2.901,1.104 0.416,0.169 1.674,0.429 1.639,0.638 0.018,0.372 -1.004,1.095 -1.639,1.446 0.416,0.138 1.6,0.299 1.696,0.559 0.08,0.637 -0.686,0.897 -0.961,1.651 -0.059,0.043 1.347,1.514 0.715,1.778 -2.204,0.908 2.443,7.25 2.794,7.225 0.823,-0.038 0.901,-0.188 1.372,-0.509 -0.043,-1.148 -0.625,-1.573 -0.872,-2.456 -0.205,-0.747 -0.572,-2.139 -0.472,-2.973 0.387,0.255 0.543,0.558 0.857,0.889 -0.17,0.965 0.244,1.489 0.512,2.184 0.912,-3.559 -1.08,-6.291 -2.744,-6.426 -0.004,0 -0.004,-0.002 0,-0.004 -0.039,-0.018 -0.07,-0.121 -0.07,-0.121 l 0,-0.001 c -0.293,-0.757 -0.209,-0.512 -0.333,-0.972 -0.273,-1.049 -0.039,-4.179 4.268,-4.502 -0.008,-1.07 0.09,-2.124 -0.014,-3.07 -0.328,-0.168 -0.945,-0.613 -0.98,-0.613 z m -3.99,-19.054 c 0,0.041 2.375,1.677 2.271,2.03 -0.201,0.597 -4.828,0.813 -5.279,1.193 -0.377,0.605 3.008,0.129 3.066,0.613 0.213,0.432 -2.943,3.15 -2.943,3.192 1.293,-0.42 3.449,-1.958 3.934,-1.54 0.355,0.273 -2.092,4.647 -2.092,4.729 1.14,-1.145 3.318,-3.119 3.721,-2.934 0.492,0.298 -1.02,3.966 -0.774,4.163 1.043,-0.324 3.191,-3.201 3.687,-2.969 0.372,0.174 -0.742,3.212 -0.742,3.335 1.369,-0.697 4.604,-3.436 5.014,-3.286 0.459,0.51 -2.072,3.738 -2.072,3.778 1.637,-0.575 7.15,-2.365 7.367,-2.087 0.254,0.358 -4.299,3.397 -4.299,3.436 6.559,0.237 6.627,0.653 6.627,0.737 0.168,0.552 -4.943,1.841 -5.027,1.841 2.959,1.048 3.759,1.596 3.801,1.596 -0.422,0.724 -3.426,0.4 -4.542,0.367 -0.078,1.185 -0.162,2.469 -0.244,3.654 3.059,-0.197 6.172,-2.227 6.871,-4.634 1.055,-3.596 0.463,-6.678 -2.588,-8.406 -2.74,-1.552 -8.841,-1.626 -10.166,-1.928 -3.046,-0.709 -2.335,-2.542 -1.421,-3.663 0.043,-1.108 0.17,-1.624 -0.053,-2.339 -0.084,-0.61 -3.781,-1.446 -4.117,-0.878 z m 6.777,-6.929 c -0.205,0 -0.986,-0.157 -1.195,-0.157 0,2.615 0.178,11.957 -0.059,12.708 1.568,0.373 4.068,0.475 5.832,0.912 0.022,-2.584 0.135,-11.858 0.135,-12.394 -0.262,-0.372 -3.191,-1.003 -4.031,-1.002 -0.137,1.165 -0.309,8.556 -0.309,8.556 0,0 -0.289,-1.304 -0.373,-1.304 -0.029,-2.237 0.043,-7.277 0,-7.319 z m -5.076,-15.982 c 0.59,0.922 0.687,1.886 0.808,2.377 -0.574,0.162 -6.13,-0.092 -6.13,-0.053 0.884,0.42 3.132,1.186 3.068,1.469 0.115,0.633 -3.865,2.511 -4.168,2.949 1.434,-0.194 3.943,-0.996 4.047,-0.61 0.185,0.413 -2.334,4.13 -2.334,4.168 1.482,-0.707 3.736,-2.86 4.092,-2.658 0.39,0.153 -1.149,4.051 -1.149,4.13 0.973,-0.647 2.961,-2.773 3.319,-2.574 0.22,0.123 -0.616,3.518 -0.616,3.684 1.106,-1.067 2.93,-2.86 3.227,-2.749 0.334,0.041 -0.283,3.688 -0.283,3.728 1.49,-0.992 3.564,-3.338 4.052,-3.25 0.45,0.268 -0.738,3.226 -0.738,3.269 1.092,-0.299 4.602,-2.807 5.094,-2.462 0.467,0.789 -2.272,3.261 -2.272,3.301 1.475,-0.205 5.59,-1.034 6.018,-0.366 0.203,0.641 -4.258,2.411 -4.299,2.453 0.867,0.238 5.227,1.517 4.879,2.112 -0.404,0.64 -5.385,0 -5.123,0.345 0.016,0.612 2.871,2.076 2.813,2.545 -0.428,0.73 -2.665,-0.181 -3.793,-0.214 0.003,1.523 0.105,3.052 0.121,4.417 3.197,-0.343 6.05,-1.832 7.242,-4.296 2.281,-4.738 -0.465,-9.51 -3.932,-10.923 -2.931,-1.191 -7.47,-0.821 -10.795,-1.717 -3.117,-0.836 -2.304,-3.53 -1.222,-4.174 l 0,-4.171 c -0.59,-0.299 -1.889,-0.73 -1.926,-0.73 z m 9.773,-4.422 c -0.08,-0.217 -0.023,-0.125 -0.121,-0.252 -0.718,-0.57 -2.593,-0.648 -3.804,-0.613 -0.083,2.779 -0.184,13.16 0,13.694 1.093,0.162 3.722,0.423 3.804,0.423 0.039,-2.293 0.334,-12.897 0.121,-13.252 z m -4.332,-0.881 c -0.636,-0.182 -1.027,-0.269 -1.56,-0.35 -0.018,2.149 -0.092,12.955 0.353,13.649 0.153,0.253 0.793,0.314 0.875,0.314 0.016,-5.154 0.346,-8.75 0.332,-13.613 z m -0.207,-26.365 c -0.492,-0.045 -0.98,-0.086 -1.476,-0.125 0.32,2.787 0.257,5.588 -0.366,8.223 -0.123,0.513 0.506,1.947 0.43,2.224 -0.135,0.496 -0.326,1.004 -0.406,1.357 -0.094,0.413 0.088,0.93 0.137,1.151 0.297,1.351 0.337,5.76 0.337,5.76 0,0 0.208,0.711 1.68,0.834 0,0 0.352,-13.315 -0.336,-19.424 z m 1.473,-0.49 c -0.311,0.039 -0.248,5.154 -0.248,6.336 0.48,1.125 3.558,4.093 3.558,4.093 0,0 0.075,-6.705 0.108,-9.101 -0.742,-1.153 -3.352,-1.561 -3.418,-1.328 z m 4.707,13.927 c -0.07,0.342 -0.525,0.826 -0.455,1.11 0.088,0.66 1.115,1.482 1.014,1.89 -0.29,0.297 -0.809,0.198 -1.36,0.108 0,0.459 0.02,0.675 0.02,1.131 1.379,0.019 2.992,-0.04 2.951,-1.631 -0.033,-1.28 -2.684,-4.145 -4.643,-6.106 -0.914,-0.912 -2.812,-3.066 -2.851,-3.066 -0.008,0.586 -0.004,1.035 0.248,1.349 0.177,0.471 1.252,1.047 1.33,1.192 0.107,0.336 -0.322,0.443 -0.248,0.627 0.281,0.447 1.771,0.961 1.99,1.187 0.117,0.397 -0.031,0.883 0.023,1.028 0.157,0.629 1.864,0.943 1.981,1.181 z m -5.289,6.077 c 0,0 3.484,0.412 3.527,0.369 0.002,-1.379 0.311,-4.823 -0.121,-6.024 -0.404,-1.096 -3.152,-4.164 -3.193,-4.164 0.01,2.455 -0.213,9.819 -0.213,9.819 z m 10.473,3.622 c -1.573,-1.068 -5.387,-2.546 -10.403,-2.65 -5.099,-0.097 -5.015,-2.84 -3.93,-3.402 0.067,-1.01 0,-0.434 0,-1.781 -0.695,0.011 -2.761,-0.088 -2.923,-0.088 0,0.045 1.298,1.027 1.228,1.416 -0.094,0.39 -2.625,0.666 -2.576,0.795 0.053,0.396 2.187,0.578 2.307,0.894 0.093,0.469 -2.469,1.652 -2.432,1.813 0.328,0.162 3.068,-0.53 3.451,-0.182 0.236,0.387 -1.978,2.346 -1.978,2.385 1.404,-0.241 3.402,-1.307 3.535,-1.1 0.24,0.231 -0.955,2.488 -0.955,2.568 0.644,-0.41 3.429,-2.113 3.527,-1.957 0.223,0.155 -0.953,2.286 -0.953,2.329 0.766,-0.225 4.352,-2.59 4.705,-2.473 0.408,0.211 -1.76,3.006 -1.76,3.088 1.024,-0.414 5.496,-2.141 5.768,-1.842 0.139,0.287 -2.697,2.418 -2.697,2.457 1.601,-0.012 5.554,0.117 5.63,0.521 0.079,0.428 -4.279,1.342 -4.406,1.444 0.008,0.187 5.069,1.765 4.766,2.148 -0.941,0.358 -4.971,0.299 -5.135,0.299 0.199,0.485 3.733,2.49 3.563,2.697 -0.266,0.25 -3.696,-0.607 -4.227,-0.607 -0.102,0.83 -0.059,2.264 -0.07,3.287 2.726,0.027 6.25,-1.211 7.363,-2.92 2.023,-3.115 0.959,-7.547 -1.398,-9.139"
       style="fill:#ffffff;fill-opacity:1;fill-rule:evenodd;stroke:none"
       id="path102"
       inkscape:connector-curvature="0" /><path
       d="m 71.602,152.547 -1.946,-0.48 c -0.146,-0.029 -0.23,-0.057 -0.387,0.012 -0.218,0.095 -0.335,0.294 -0.335,0.521 0,0.293 0.257,0.482 0.539,0.482 0.113,0 0.347,-0.062 0.476,-0.083 l 1.653,-0.29 0,-0.162 z m 0.421,1.09 -1.461,0.914 c -0.257,0.147 -0.554,0.301 -0.554,0.647 0,0.304 0.228,0.525 0.531,0.525 0.365,0 0.469,-0.281 0.645,-0.537 l 0.933,-1.443 -0.094,-0.106 z m 0.094,-2.156 -1.07,-1.662 c -0.143,-0.209 -0.258,-0.309 -0.528,-0.309 -0.283,0 -0.5,0.217 -0.5,0.496 0,0.338 0.278,0.463 0.52,0.625 l 1.461,0.95 0.117,-0.1 z m 1.022,-0.012 c -0.604,0 -1.116,0.492 -1.116,1.113 0,0.602 0.479,1.114 1.106,1.114 0.594,0 1.105,-0.49 1.105,-1.08 0,-0.619 -0.465,-1.147 -1.095,-1.147 z m -0.092,2.643 -0.42,1.924 c -0.033,0.162 -0.059,0.256 0,0.406 0.07,0.211 0.264,0.34 0.478,0.34 0.291,0 0.559,-0.244 0.559,-0.537 0,-0.106 -0.072,-0.346 -0.094,-0.453 l -0.361,-1.68 -0.162,0 z m 0.152,-3.024 0.393,-1.713 c 0.025,-0.101 0.084,-0.334 0.084,-0.453 0,-0.287 -0.28,-0.515 -0.559,-0.515 -0.248,0 -0.513,0.254 -0.513,0.515 0,0.119 0.056,0.352 0.081,0.453 l 0.348,1.713 0.166,0 z m 0.93,2.668 0.922,1.442 c 0.172,0.279 0.279,0.549 0.66,0.549 0.281,0 0.516,-0.245 0.516,-0.524 0,-0.379 -0.27,-0.486 -0.563,-0.672 l -1.42,-0.914 -0.115,0.119 z m 0.115,-2.175 1.479,-0.95 c 0.254,-0.162 0.523,-0.277 0.523,-0.625 0,-0.295 -0.23,-0.533 -0.535,-0.533 -0.233,0 -0.336,0.102 -0.453,0.277 l -1.117,1.731 0.103,0.1 z m 0.422,1.128 1.674,0.332 c 0.117,0.028 0.351,0.071 0.457,0.071 0.277,0 0.535,-0.231 0.535,-0.512 0,-0.266 -0.258,-0.508 -0.525,-0.508 -0.153,0 -0.325,0.047 -0.467,0.069 l -1.674,0.386 0,0.162"
       style="fill:#ffffff;fill-opacity:1;fill-rule:nonzero;stroke:none"
       id="path104"
       inkscape:connector-curvature="0" /><path
       d="m 170.512,152.563 -1.948,-0.481 c -0.15,-0.035 -0.232,-0.056 -0.384,0.012 -0.219,0.092 -0.338,0.295 -0.338,0.524 0,0.289 0.26,0.476 0.537,0.476 0.115,0 0.346,-0.06 0.473,-0.084 l 1.66,-0.287 0,-0.16 z m 0.414,1.09 -1.453,0.912 c -0.254,0.148 -0.563,0.307 -0.563,0.648 0,0.303 0.236,0.522 0.543,0.522 0.358,0 0.461,-0.278 0.637,-0.537 l 0.931,-1.442 -0.095,-0.103 z m 0.095,-2.156 -1.072,-1.662 c -0.138,-0.21 -0.256,-0.309 -0.519,-0.309 -0.284,0 -0.508,0.211 -0.508,0.494 0,0.338 0.285,0.463 0.531,0.627 l 1.451,0.947 0.117,-0.097 z m 1.026,-0.012 c -0.606,0 -1.121,0.494 -1.121,1.109 0,0.602 0.48,1.116 1.109,1.116 0.59,0 1.108,-0.489 1.108,-1.083 0,-0.617 -0.469,-1.142 -1.096,-1.142 z m -0.094,2.646 -0.418,1.918 c -0.039,0.164 -0.06,0.258 0,0.407 0.067,0.209 0.268,0.339 0.477,0.339 0.293,0 0.558,-0.246 0.558,-0.533 0,-0.111 -0.07,-0.347 -0.093,-0.455 l -0.36,-1.676 -0.164,0 z m 0.154,-3.029 0.393,-1.709 c 0.023,-0.102 0.08,-0.338 0.08,-0.455 0,-0.285 -0.275,-0.516 -0.561,-0.516 -0.24,0 -0.511,0.254 -0.511,0.516 0,0.117 0.062,0.353 0.084,0.455 l 0.349,1.709 0.166,0 z m 0.93,2.668 0.918,1.443 c 0.174,0.28 0.279,0.545 0.668,0.545 0.275,0 0.51,-0.242 0.51,-0.523 0,-0.379 -0.268,-0.486 -0.557,-0.67 l -1.422,-0.912 -0.117,0.117 z m 0.117,-2.176 1.479,-0.947 c 0.256,-0.164 0.523,-0.277 0.523,-0.627 0,-0.291 -0.232,-0.533 -0.533,-0.533 -0.236,0 -0.346,0.103 -0.459,0.277 l -1.119,1.733 0.109,0.097 z m 0.42,1.129 1.676,0.334 c 0.117,0.025 0.352,0.07 0.455,0.07 0.277,0 0.533,-0.23 0.533,-0.509 0,-0.266 -0.256,-0.514 -0.519,-0.514 -0.157,0 -0.332,0.047 -0.469,0.07 l -1.676,0.389 0,0.16"
       style="fill:#ffffff;fill-opacity:1;fill-rule:nonzero;stroke:none"
       id="path106"
       inkscape:connector-curvature="0" /><path
       d="m 104.74,247.697 -0.717,-0.181 c -0.32,-0.054 -0.566,0.138 -0.757,0.585 -0.247,0.591 -0.625,1.698 -1.067,2.984 0,0 -0.445,1.314 -0.457,1.349 0.008,-0.012 0.059,0.006 0.059,0.006 0,-0.008 0.213,-0.156 0.213,-0.156 0.433,-0.307 4.363,-2.644 5.197,-2.994 0.807,-0.337 1.301,-0.518 2.099,-0.326 l 0.993,0.309 c 0,0 0.847,0.247 2.463,0.438 l 1.589,0.138 c 0.164,0.018 0.27,0.06 0.252,0.197 -0.011,0.117 -0.091,0.129 -0.259,0.111 l -0.223,-0.025 c -0.223,-0.026 -0.387,0.002 -0.488,0.082 -0.082,0.064 -0.127,0.16 -0.145,0.296 -0.017,0.172 0.012,0.533 0.121,0.932 l 0.559,2.238 c 0.019,0.088 0.043,0.115 0.109,0.121 l 3.342,0.381 c 0.068,0.006 0.107,-0.013 0.143,-0.077 l 1.562,-3.036 c 0.028,-0.052 0.035,-0.096 0.035,-0.135 0.014,-0.045 0.012,-0.1 -0.021,-0.14 -0.022,-0.031 -0.057,-0.048 -0.094,-0.056 l -0.006,-0.004 c -0.136,-0.031 -0.219,-0.067 -0.207,-0.178 0.016,-0.115 0.174,-0.106 0.418,-0.089 l 0.066,0.004 2.833,0.294 c 0.451,0.052 0.613,0.091 0.667,0.163 l 0.004,0.01 c 0.016,0.022 0.028,0.05 0.024,0.079 0,0.023 -0.012,0.042 -0.028,0.058 -0.037,0.062 -0.117,0.065 -0.205,0.053 l -0.634,-0.01 c -0.35,0.045 -0.801,0.249 -1.493,1.469 l -3.019,5.558 -1.75,3.229 c -0.186,0.316 -0.297,0.461 -0.449,0.444 -0.164,-0.02 -0.238,-0.217 -0.364,-0.659 l -2.679,-9.838 c -0.149,-0.542 -0.301,-0.998 -0.655,-1.267 -0.355,-0.181 -1.115,-0.1 -1.115,-0.1 -0.822,0.033 -1.633,0.411 -2.42,0.777 l -0.142,0.066 c -0.735,0.337 -4.559,2.398 -5.301,2.888 0.314,0.652 1.738,3.535 2.033,4.112 0.367,0.72 0.74,1.224 1.174,1.589 0.24,0.195 0.576,0.371 0.771,0.436 0.069,0.026 0.112,0.052 0.139,0.082 0.035,0.02 0.059,0.058 0.059,0.105 0,0.07 -0.059,0.13 -0.133,0.13 0,0 -0.004,-0.002 -0.008,-0.002 -0.06,0.006 -0.129,-0.014 -0.185,-0.033 l -1.659,-0.614 -1.48,-0.458 c -0.055,-0.017 -0.096,-0.035 -0.125,-0.053 -0.055,-0.018 -0.094,-0.064 -0.094,-0.122 0,-0.043 0.02,-0.077 0.051,-0.101 0.049,-0.052 0.125,-0.052 0.223,-0.043 0.132,0.019 0.222,-0.048 0.281,-0.206 0.012,-0.037 0.017,-0.08 0.017,-0.131 0,-0.241 -0.154,-0.618 -0.33,-1.073 l -0.039,-0.097 c -0.148,-0.375 -0.695,-1.551 -1.183,-2.582 0,0 -0.723,-1.571 -0.727,-1.574 0,0.003 -0.023,-0.006 -0.043,-0.012 -0.012,0.029 -0.228,0.669 -0.228,0.669 -0.729,2.133 -0.858,2.517 -0.985,2.979 -0.049,0.184 -0.078,0.332 -0.078,0.459 0,0.243 0.104,0.391 0.318,0.515 l 0.383,0.176 c 0.043,0.016 0.141,0.052 0.164,0.132 0.004,0.011 0.012,0.021 0.012,0.035 0,0.002 -0.002,0.006 -0.002,0.009 0,0 0.002,0 0.002,0.002 0,0.047 -0.025,0.082 -0.061,0.104 -0.005,0.005 -0.009,0.009 -0.009,0.009 -0.057,0.028 -0.147,0.018 -0.303,-0.035 l -1.002,-0.367 -0.707,-0.264 -0.645,-0.202 -1.375,-0.436 c -0.201,-0.073 -0.318,-0.139 -0.279,-0.259 0.045,-0.127 0.182,-0.099 0.311,-0.059 0.187,0.066 0.441,0.138 0.568,0.149 0.51,0.059 0.69,-0.143 0.871,-0.592 0.186,-0.444 0.315,-0.828 1.041,-2.962 l 0.881,-2.563 c 0.442,-1.309 0.828,-2.44 0.959,-3.065 0.082,-0.405 0.125,-0.753 -0.135,-0.904 l -0.494,-0.234 c -0.109,-0.037 -0.18,-0.084 -0.191,-0.145 -0.016,-0.094 0.062,-0.149 0.062,-0.149 0.067,-0.049 0.153,-0.021 0.287,0.024 l 1.118,0.409 0.666,0.249 0.652,0.206 1.414,0.451 c 0.187,0.062 0.269,0.155 0.234,0.257 -0.062,0.131 -0.244,0.061 -0.244,0.061 z m 12.559,7.266 c -0.004,-0.014 -0.024,-0.021 -0.049,-0.025 l -2.758,-0.317 c -0.017,-0.003 -0.031,0 -0.041,0.01 -0.011,0.011 -0.016,0.035 -0.011,0.068 l 0.954,3.84 c 0.008,0.076 0.032,0.129 0.057,0.131 0.029,0.004 0.051,-0.055 0.068,-0.102 0.004,-0.014 1.778,-3.558 1.778,-3.558 0.006,-0.01 0.012,-0.031 0.002,-0.047"
       style="fill:#ffffff;fill-opacity:1;fill-rule:nonzero;stroke:none"
       id="path108"
       inkscape:connector-curvature="0" /><path
       d="m 121.473,134.87 c -4.285,0.131 -6.338,-2.877 -6.428,-5.733 -0.088,-2.849 1.717,-5.98 5.904,-6.111 1.811,-0.063 3.391,0.494 4.565,1.594 1.162,1.097 1.83,2.654 1.888,4.402 0.108,3.482 -2.164,5.725 -5.929,5.848 z m 0.134,-11.08 c -1.179,0.037 -2.213,0.494 -2.986,1.318 -0.988,1.055 -1.5,2.635 -1.445,4.43 0.055,1.699 0.496,2.945 1.316,3.724 0.805,0.752 1.817,0.883 2.52,0.862 1.099,-0.034 2.078,-0.475 2.828,-1.276 0.957,-1.017 1.457,-2.551 1.398,-4.312 -0.136,-4.379 -2.586,-4.776 -3.631,-4.746"
       style="fill:#ffffff;fill-opacity:1;fill-rule:nonzero;stroke:none"
       id="path110"
       inkscape:connector-curvature="0" /><path
       d="m 142.191,125.977 c -0.023,-0.049 -0.084,-0.078 -0.201,-0.105 l -1.799,-0.415 -0.656,-0.144 -0.687,-0.19 -1.803,-0.488 c -0.154,-0.027 -0.26,-0.027 -0.289,0.09 -0.027,0.113 0.025,0.18 0.094,0.195 0.16,0.039 0.877,0.272 1.14,0.403 0.412,0.203 0.459,0.414 0.389,0.896 -0.106,0.653 -0.408,1.885 -0.758,3.309 l -0.578,2.322 c 0,0 -0.49,1.918 -0.49,1.924 -0.088,0.346 -0.127,0.502 -0.33,0.453 -0.194,-0.051 -0.746,-0.498 -1.145,-0.824 l -0.371,-0.293 c -0.266,-0.186 -0.361,0.037 -0.361,0.037 -0.028,0.115 0.062,0.213 0.101,0.26 0.057,0.041 2.383,2.568 2.819,3.088 0.109,0.128 0.23,0.261 0.347,0.285 0.078,0.019 0.19,-0.014 0.258,-0.278 l 0.039,-0.189 c 0.102,-0.492 0.375,-1.801 0.83,-3.637 l 0.67,-2.709 c 0.336,-1.353 0.656,-2.642 0.875,-3.275 0.158,-0.453 0.277,-0.649 0.764,-0.629 0.224,0.008 0.861,0.117 0.982,0.148 0,0 0.278,0.024 0.16,-0.234"
       style="fill:#ffffff;fill-opacity:1;fill-rule:nonzero;stroke:none"
       id="path112"
       inkscape:connector-curvature="0" /><path
       d="m 150.68,132.541 c -0.731,1.774 -2.737,1.979 -3.824,2.086 0.064,0.063 0.132,0.133 0.197,0.211 0.482,0.504 1.383,1.76 0.785,3.202 -0.229,0.556 -0.6,0.943 -1.111,1.152 -0.709,0.297 -1.651,0.23 -2.647,-0.188 -1.846,-0.75 -2.441,-2.015 -2.441,-3.029 0,-0.326 0.064,-0.629 0.166,-0.879 0.426,-1.025 1.404,-1.576 3.076,-1.724 -0.209,-0.2 -0.404,-0.422 -0.584,-0.661 -0.602,-0.763 -0.92,-1.574 -0.92,-2.367 0,-0.394 0.074,-0.777 0.227,-1.14 0.29,-0.7 0.792,-1.219 1.449,-1.487 0.877,-0.371 2.012,-0.306 3.201,0.19 2.435,1.006 3.062,3.099 2.426,4.634 z m -3.828,2.079 c 0.167,-0.02 0.367,-0.045 0.58,-0.075 -0.211,0.028 -0.413,0.047 -0.592,0.065 0.004,0.002 0.004,0.008 0.012,0.01 z m -3.604,1.191 c 0.021,-0.027 0.041,-0.053 0.061,-0.08 -0.051,0.08 -0.096,0.166 -0.137,0.26 -0.096,0.24 -0.147,0.496 -0.147,0.734 0,0.219 0.041,0.434 0.123,0.625 0.174,0.424 0.524,0.746 1.04,0.967 0.888,0.369 1.793,-0.051 2.195,-1.02 0.541,-1.314 -0.074,-2.244 -0.485,-2.679 -1.062,0.132 -1.742,0.336 -2.183,0.67 0.152,-0.123 0.338,-0.229 0.541,-0.317 -0.471,0.19 -0.801,0.451 -1.008,0.84 z m 1.639,-2.432 c -0.164,0.02 -0.321,0.04 -0.475,0.063 0.156,-0.023 0.318,-0.035 0.482,-0.055 -0.001,0 -0.003,-0.008 -0.007,-0.008 z m 3.199,-4.75 c -1.131,-0.466 -2.406,0.114 -2.908,1.319 -0.631,1.525 0.056,2.763 0.525,3.367 1.481,-0.209 2.899,-0.41 3.469,-1.795 0.502,-1.207 0.043,-2.43 -1.086,-2.891"
       style="fill:#ffffff;fill-opacity:1;fill-rule:nonzero;stroke:none"
       id="path114"
       inkscape:connector-curvature="0" /><path
       d="m 159.623,133.911 -1.604,-0.926 -0.574,-0.338 -0.611,-0.385 -1.576,-0.984 c -0.135,-0.078 -0.233,-0.109 -0.297,-0.002 -0.059,0.097 -0.027,0.181 0.033,0.219 0.139,0.084 0.754,0.504 0.973,0.705 0.33,0.318 0.314,0.533 0.101,0.982 -0.299,0.604 -0.976,1.731 -1.701,2.934 l -1.238,2.047 -1.035,1.681 c -0.127,0.209 -0.211,0.352 -0.309,0.379 l -0.141,-0.037 c -0.171,-0.104 -0.558,-0.678 -0.841,-1.104 0,0.001 -0.278,-0.408 -0.285,-0.415 0,0 -0.182,-0.272 -0.346,-0.065 -0.063,0.102 -0.008,0.221 0.019,0.271 0.04,0.065 1.518,3.172 1.78,3.784 0,0 0.162,0.433 0.357,0.402 0.068,-0.018 0.139,-0.088 0.213,-0.211 l 0.105,-0.185 1.856,-3.213 1.443,-2.387 c 0.723,-1.193 1.407,-2.33 1.805,-2.869 0.281,-0.377 0.453,-0.533 0.918,-0.377 0.219,0.078 0.793,0.375 0.892,0.435 0.057,0.036 0.147,0.024 0.206,-0.076 0,0 0.107,-0.148 -0.143,-0.265"
       style="fill:#ffffff;fill-opacity:1;fill-rule:nonzero;stroke:none"
       id="path116"
       inkscape:connector-curvature="0" /><path
       d="m 165.018,145.417 c -0.596,0.714 -2.186,2.388 -4.078,2.558 -0.934,0.082 -1.823,-0.213 -2.631,-0.885 -2.102,-1.761 -1.844,-4.519 0.705,-7.566 1.736,-2.082 4.412,-3.609 6.716,-1.689 0.825,0.699 1.289,1.546 1.376,2.537 0.134,1.511 -0.587,3.255 -2.088,5.045 z m 0.476,-6.84 c -1.426,-1.198 -3.818,0.634 -5.43,2.564 -1.404,1.68 -2.129,3.172 -2.035,4.199 0.037,0.42 0.205,0.752 0.498,1 0.344,0.291 0.766,0.41 1.256,0.367 1.397,-0.125 3.084,-1.591 4.198,-2.916 1.996,-2.396 2.558,-4.345 1.513,-5.214"
       style="fill:#ffffff;fill-opacity:1;fill-rule:nonzero;stroke:none"
       id="path118"
       inkscape:connector-curvature="0" /><path
       d="m 66.176,209.518 c -0.864,1.337 -2.282,2.274 -3.989,2.646 -1.589,0.339 -3.05,0.118 -4.226,-0.642 -1.287,-0.828 -2.184,-2.264 -2.586,-4.144 -0.906,-4.193 1.687,-6.749 4.481,-7.35 2.788,-0.602 6.197,0.618 7.078,4.709 0.382,1.772 0.121,3.423 -0.758,4.781 z m 0.117,-3.993 c -0.568,-2.654 -3.221,-4.025 -6.449,-3.333 -3.998,0.862 -4.11,3.253 -3.821,4.6 0.547,2.531 3.121,3.828 6.26,3.153 4.279,-0.92 4.229,-3.398 4.01,-4.42"
       style="fill:#ffffff;fill-opacity:1;fill-rule:nonzero;stroke:none"
       id="path120"
       inkscape:connector-curvature="0" /><path
       d="m 59.33,218.628 c 0.057,0.02 0.1,0.079 0.154,0.193 l 0.25,0.424 c 0.311,0.413 0.582,0.399 1.035,0.218 0.45,-0.177 0.827,-0.35 2.903,-1.327 l 2.406,-1.126 c 1.254,-0.584 2.336,-1.092 2.873,-1.429 0.348,-0.225 0.631,-0.434 0.561,-0.727 0,-0.002 -0.18,-0.515 -0.18,-0.515 -0.049,-0.107 -0.063,-0.179 -0.043,-0.231 0,0 0.045,-0.118 0.17,-0.069 0.06,0.023 0.119,0.097 0.182,0.225 l 0.41,0.956 0.236,0.528 0.117,0.254 1.049,2.105 0.895,1.827 c 0.328,0.709 0.3,0.825 0.027,1.055 -0.344,0.299 -1.316,0.871 -1.477,0.946 -0.154,0.068 -0.254,0.105 -0.308,-0.011 -0.061,-0.128 0.035,-0.202 0.144,-0.264 0.247,-0.155 0.545,-0.495 0.641,-0.735 0.201,-0.49 -0.004,-0.993 -0.359,-1.76 -0.518,-1.099 -0.776,-1.375 -1.069,-1.503 -0.373,-0.168 -1.322,0.276 -3.049,1.086 l -2.464,1.153 c -2.038,0.955 -2.407,1.126 -2.825,1.357 -0.498,0.265 -0.63,0.482 -0.535,0.846 l 0.207,0.555 c 0.075,0.154 0.102,0.272 -0.015,0.326 -0.118,0.054 -0.196,-0.059 -0.282,-0.24 l -0.5,-1.134 -0.324,-0.742 -0.34,-0.678 -0.582,-1.171 c -0.072,-0.161 -0.094,-0.254 -0.072,-0.313 0,0 0.041,-0.114 0.164,-0.079"
       style="fill:#ffffff;fill-opacity:1;fill-rule:nonzero;stroke:none"
       id="path122"
       inkscape:connector-curvature="0" /><path
       d="m 92.5,252.031 c 0.019,0.079 -0.023,0.204 -0.148,0.411 l -0.754,1.378 -0.116,0.212 c -0.068,0.112 -0.179,0.092 -0.291,0.056 -0.472,-0.131 -1.062,-0.328 -1.863,-0.795 -0.971,-0.576 -1.629,-1.372 -1.853,-2.238 -0.178,-0.69 -0.077,-1.386 0.296,-2.015 0.664,-1.122 1.752,-1.69 3.748,-1.952 l 0.875,-0.112 c 1.53,-0.19 2.098,-0.667 2.487,-1.318 0.416,-0.714 0.258,-1.825 -0.862,-2.487 -0.542,-0.319 -1.605,-0.717 -2.609,0.216 -0.207,0.195 -0.41,0.433 -0.506,0.591 -0.041,0.073 -0.135,0.233 -0.279,0.15 -0.137,-0.077 -0.045,-0.298 0.033,-0.455 l 0.033,-0.062 0.907,-1.679 c 0.168,-0.289 0.254,-0.336 0.525,-0.301 0.676,0.077 1.303,0.314 2.1,0.781 0.836,0.492 1.408,1.066 1.757,1.759 0.247,0.5 0.34,0.968 0.34,1.394 0,0.695 -0.25,1.262 -0.453,1.6 -0.726,1.232 -1.799,1.771 -4.098,2.067 l -0.523,0.058 c -1.5,0.174 -2.102,0.427 -2.469,1.045 -0.148,0.259 -0.22,0.517 -0.22,0.776 0,0.548 0.339,1.08 0.976,1.451 0.807,0.476 1.397,0.341 1.772,0.197 0.468,-0.177 0.769,-0.533 0.836,-0.649 0.066,-0.107 0.123,-0.166 0.183,-0.18 0,0 0.125,-0.025 0.176,0.101"
       style="fill:#ffffff;fill-opacity:1;fill-rule:nonzero;stroke:none"
       id="path124"
       inkscape:connector-curvature="0" /><path
       d="m 135.723,249.285 c -0.071,-0.051 -0.188,-0.043 -0.274,-0.03 l -1.627,0.306 -0.685,0.129 -0.7,0.096 -1.183,0.171 c -0.211,0.034 -0.305,0.107 -0.285,0.218 0.019,0.119 0.166,0.109 0.277,0.091 l 0.541,-0.028 c 0.303,0.007 0.428,0.249 0.543,0.659 0.174,0.609 0.367,1.764 0.611,3.226 l 0.455,2.711 c 0.366,2.196 0.432,2.589 0.481,3.068 0.053,0.503 -0.051,0.769 -0.354,0.894 -0.171,0.079 -0.379,0.124 -0.523,0.148 -0.127,0.022 -0.252,0.063 -0.227,0.211 0.018,0.114 0.17,0.112 0.399,0.076 l 1.094,-0.212 0.832,-0.158 0.717,-0.104 1.101,-0.158 c 0.162,-0.026 0.254,-0.061 0.291,-0.114 l 0.018,-0.073 c -0.026,-0.146 -0.153,-0.146 -0.284,-0.124 l -0.451,0.029 c -0.377,-0.006 -0.549,-0.194 -0.675,-0.744 -0.108,-0.475 -0.186,-0.931 -0.555,-3.144 l -0.438,-2.618 c -0.234,-1.4 -0.437,-2.604 -0.486,-3.263 -0.024,-0.418 0.047,-0.686 0.463,-0.811 l 0.744,-0.185 c 0.109,-0.018 0.184,-0.052 0.215,-0.096 0,0 0.037,-0.12 -0.035,-0.171"
       style="fill:#ffffff;fill-opacity:1;fill-rule:nonzero;stroke:none"
       id="path126"
       inkscape:connector-curvature="0" /><path
       d="m 163.324,245.772 c 0.129,-0.087 0.258,0.043 0.418,0.28 l 0.93,1.263 0.15,0.19 c 0.072,0.111 0.008,0.205 -0.072,0.295 -0.297,0.35 -0.738,0.822 -1.508,1.35 -0.928,0.641 -1.926,0.907 -2.806,0.744 -0.698,-0.128 -1.292,-0.511 -1.702,-1.115 -0.744,-1.075 -0.8,-2.298 -0.195,-4.221 l 0.264,-0.844 c 0.466,-1.466 0.275,-2.181 -0.153,-2.808 -0.47,-0.677 -1.545,-1 -2.613,-0.261 -0.523,0.355 -1.33,1.154 -0.904,2.457 0.09,0.273 0.219,0.556 0.32,0.702 0.047,0.071 0.156,0.23 0.02,0.324 -0.129,0.087 -0.286,-0.082 -0.395,-0.222 l -1.187,-1.585 c -0.106,-0.154 -0.153,-0.251 -0.153,-0.344 0,-0.078 0.031,-0.155 0.098,-0.261 0.354,-0.581 0.834,-1.051 1.594,-1.578 0.797,-0.549 1.56,-0.829 2.332,-0.853 1.48,-0.037 2.312,0.837 2.674,1.362 0.81,1.175 0.853,2.377 0.15,4.584 l -0.17,0.502 c -0.469,1.432 -0.49,2.087 -0.084,2.676 0.531,0.766 1.445,0.869 2.336,0.255 0.773,-0.536 0.898,-1.13 0.922,-1.529 0.039,-0.499 -0.164,-0.923 -0.238,-1.031 0,0 -0.186,-0.253 -0.028,-0.332"
       style="fill:#ffffff;fill-opacity:1;fill-rule:nonzero;stroke:none"
       id="path128"
       inkscape:connector-curvature="0" /><path
       d="m 163.076,234.277 c 0.09,0.088 0.201,-0.01 0.28,-0.089 l 0.425,-0.343 c 0.252,-0.176 0.571,0.022 0.871,0.261 0.504,0.384 1.344,1.208 2.326,2.162 0,0 4.416,4.299 4.442,4.325 -0.026,0.025 -1.596,1.554 -1.596,1.554 -0.601,0.579 -0.922,0.811 -1.32,0.739 -0.297,-0.055 -0.473,-0.139 -0.547,-0.182 0,0 -0.256,-0.131 -0.311,0.092 0,0.052 0.036,0.111 0.122,0.197 0.177,0.168 1.351,0.915 1.466,0.983 0.162,0.1 0.276,0.145 0.354,0.07 l 0.08,-0.164 c 0.041,-0.11 0.096,-0.256 0.242,-0.432 0.276,-0.348 0.656,-0.781 0.996,-1.13 l 4.166,-4.278 c 0,0 0.768,-0.681 0.778,-0.688 l 0.134,-0.095 0.207,-0.15 c 0.092,-0.092 0.004,-0.187 -0.144,-0.334 0,0 -1.283,-1.19 -1.283,-1.192 -0.102,-0.075 -0.211,-0.151 -0.295,-0.068 -0.035,0.037 -0.049,0.068 -0.049,0.107 0,0.067 0.055,0.144 0.15,0.25 l 0.106,0.128 c 0.08,0.087 0.152,0.221 0.152,0.421 0,0.304 -0.176,0.759 -0.787,1.416 0,0 -1.268,1.368 -1.268,1.395 -0.002,-0.004 -4.429,-4.314 -4.429,-4.314 -0.991,-0.965 -1.84,-1.796 -2.258,-2.303 -0.16,-0.196 -0.305,-0.391 -0.305,-0.608 0,-0.114 0.039,-0.235 0.135,-0.359 l 0.492,-0.589 c 0.088,-0.091 0.115,-0.156 0.115,-0.207 0,-0.033 -0.015,-0.059 -0.035,-0.079 -0.076,-0.074 -0.197,-0.037 -0.334,0.101 l -1.142,1.218 -0.477,0.51 -0.496,0.486 -0.859,0.844 c 0,0 -0.239,0.237 -0.104,0.345"
       style="fill:#ffffff;fill-opacity:1;fill-rule:nonzero;stroke:none"
       id="path130"
       inkscape:connector-curvature="0" /><path
       d="m 179.027,232.77 c 0.102,0.064 0.217,-0.072 0.326,-0.237 l 0.61,-0.943 0.455,-0.705 0.422,-0.599 0.644,-0.899 c 0.088,-0.13 0.172,-0.292 0.075,-0.358 -0.125,-0.08 -0.215,0.014 -0.286,0.12 l -0.287,0.351 c -0.271,0.269 -0.525,0.265 -1.004,-0.022 -0.412,-0.24 -0.736,-0.463 -2.537,-1.682 l -2.328,-1.571 c -1.226,-0.827 -2.195,-1.485 -2.699,-1.895 -0.316,-0.269 -0.461,-0.504 -0.268,-0.895 l 0.377,-0.667 c 0.117,-0.181 0.082,-0.257 0.028,-0.292 -0.088,-0.061 -0.196,-0.005 -0.309,0.154 l -0.904,1.398 -0.375,0.58 -0.416,0.583 -0.686,0.964 c 0,0 -0.217,0.256 -0.037,0.358 0.102,0.072 0.195,-0.045 0.258,-0.138 l 0.355,-0.412 c 0.215,-0.21 0.471,-0.136 0.846,0.065 0.565,0.287 1.518,0.935 2.727,1.751 l 2.287,1.547 c 1.863,1.26 2.201,1.486 2.578,1.78 0.404,0.307 0.525,0.571 0.406,0.878 -0.047,0.141 -0.137,0.305 -0.25,0.478 0,0 -0.16,0.223 -0.008,0.308"
       style="fill:#ffffff;fill-opacity:1;fill-rule:nonzero;stroke:none"
       id="path132"
       inkscape:connector-curvature="0" /><path
       d="m 175.313,217.389 c 0,0 0.273,-0.47 0.275,-0.472 0.166,-0.239 0.484,-0.196 0.91,-0.058 0.605,0.187 1.686,0.665 2.965,1.228 0,0 5.609,2.471 5.641,2.485 -0.044,0.093 -0.954,2.013 -0.954,2.013 -0.361,0.755 -0.58,1.08 -0.978,1.152 -0.303,0.055 -0.492,0.037 -0.578,0.022 -0.098,-0.017 -0.205,-0.019 -0.254,0.089 -0.051,0.122 0.035,0.187 0.178,0.248 0.22,0.096 1.576,0.387 1.716,0.412 0.192,0.034 0.313,0.037 0.352,-0.062 l 0.023,-0.178 c 0,-0.114 0,-0.272 0.073,-0.493 0.142,-0.426 0.347,-0.964 0.545,-1.404 l 2.406,-5.465 c 0,0 0.484,-0.909 0.488,-0.914 l 0.092,-0.133 0.14,-0.217 0.006,-0.09 c -0.021,-0.062 -0.099,-0.102 -0.253,-0.17 0,0 -1.618,-0.663 -1.62,-0.664 -0.119,-0.038 -0.248,-0.071 -0.295,0.038 -0.015,0.026 -0.023,0.051 -0.023,0.074 0,0.083 0.084,0.139 0.236,0.221 l 0.149,0.08 c 0.154,0.084 0.349,0.279 0.349,0.723 0,0.293 -0.082,0.684 -0.302,1.221 0,0 -0.706,1.704 -0.706,1.748 -0.007,-0.002 -5.654,-2.493 -5.654,-2.493 -1.259,-0.557 -2.353,-1.037 -2.916,-1.37 -0.285,-0.161 -0.535,-0.335 -0.535,-0.646 0,-0.061 0.008,-0.129 0.031,-0.2 l 0.256,-0.727 c 0,0 0.115,-0.332 -0.127,-0.295 -0.08,0.031 -0.139,0.133 -0.174,0.216 l -0.634,1.517 -0.278,0.661 -0.304,0.651 -0.504,1.07 c -0.059,0.133 -0.106,0.245 -0.047,0.291 0,0 0.172,0.171 0.305,-0.109"
       style="fill:#ffffff;fill-opacity:1;fill-rule:nonzero;stroke:none"
       id="path134"
       inkscape:connector-curvature="0" /><path
       d="m 190.455,206.163 c 0.158,0.019 0.129,0.16 0.086,0.372 l -0.381,1.819 -0.131,0.799 -0.222,1.369 c -0.041,0.215 -0.092,0.341 -0.215,0.319 -0.135,-0.027 -0.127,-0.159 -0.1,-0.299 0.035,-0.195 0.067,-0.457 0.059,-0.581 -0.012,-0.513 -0.238,-0.664 -0.711,-0.782 -0.467,-0.114 -0.856,-0.187 -3.035,-0.587 l -2.266,-0.421 c -1.877,-0.344 -3.051,-0.997 -3.697,-2.052 -0.819,-1.324 -0.539,-2.843 -0.418,-3.493 0.158,-0.859 0.494,-1.964 1.644,-2.898 1.293,-1.047 3.041,-0.898 4.737,-0.584 l 1.644,0.3 c 2.215,0.41 2.612,0.48 3.088,0.541 0.557,0.072 0.787,-0.028 0.924,-0.382 l 0.127,-0.417 c 0.025,-0.133 0.056,-0.205 0.105,-0.239 0,0 0.112,-0.053 0.18,0.033 0.037,0.052 0.039,0.143 0.01,0.307 l -0.268,1.261 -0.09,0.416 c -0.006,0.033 -0.271,1.717 -0.271,1.717 -0.039,0.199 -0.09,0.323 -0.213,0.3 -0.131,-0.021 -0.127,-0.154 -0.101,-0.296 l 0.054,-0.54 c -0.012,-0.512 -0.24,-0.659 -0.713,-0.777 -0.466,-0.118 -0.859,-0.189 -3.137,-0.608 l -1.851,-0.343 c -1.592,-0.29 -2.885,-0.468 -3.824,0.179 -0.852,0.583 -1.102,1.514 -1.172,1.884 -0.094,0.518 -0.149,1.203 0.266,1.958 0.517,0.937 1.507,1.466 3.421,1.818 l 2.168,0.399 c 2.188,0.407 2.582,0.479 3.057,0.538 0.555,0.067 0.787,-0.026 0.922,-0.383 l 0.127,-0.42 c 0,0 0.074,-0.265 0.197,-0.227"
       style="fill:#ffffff;fill-opacity:1;fill-rule:nonzero;stroke:none"
       id="path136"
       inkscape:connector-curvature="0" /><path
       d="m 190.262,193.918 c 0.086,-0.028 0.265,-0.095 0.511,-0.276 0.299,-0.225 0.362,-0.576 0.362,-1.289 0,-0.055 0,-0.116 0,-0.177 0,0 -0.043,-2.13 -0.045,-2.229 -0.033,0.003 -6.203,0.286 -6.203,0.286 -1.36,0.065 -2.534,0.12 -3.155,0.223 -0.445,0.066 -0.746,0.171 -0.789,0.462 l -0.037,0.54 c 0,0.015 0.002,0.03 0,0.046 -0.015,0.285 -0.226,0.183 -0.226,0.183 -0.051,-0.044 -0.078,-0.135 -0.082,-0.275 l -0.032,-1.184 -0.015,-0.714 -0.047,-0.717 -0.11,-1.644 c -0.003,-0.125 0.016,-0.221 0.063,-0.271 0,0 0.088,-0.074 0.172,-0.012 0.043,0.036 0.066,0.112 0.07,0.221 l 0.096,0.761 c 0.088,0.46 0.439,0.514 0.83,0.539 0.65,0.043 1.84,-0.015 3.219,-0.073 0,0 6.17,-0.293 6.175,-0.293 -0.019,-0.01 -0.148,-1.875 -0.148,-1.875 -0.103,-1.478 -0.613,-1.709 -0.91,-1.72 l -0.164,-0.008 c -0.223,-0.002 -0.32,-0.031 -0.328,-0.168 l 0,-0.006 c 0,-0.115 0.129,-0.141 0.248,-0.162 0.002,0 1.748,-0.125 1.748,-0.125 0.168,-0.007 0.26,-0.004 0.306,0.038 l 0.036,0.083 -0.032,0.248 -0.025,0.17 c -0.004,0.03 -0.027,1.038 -0.027,1.038 l 0.279,5.961 c 0.021,0.487 0.076,1.065 0.142,1.502 0.028,0.225 0.102,0.37 0.151,0.475 l 0.059,0.168 c 0.009,0.109 -0.1,0.157 -0.288,0.209 -0.138,0.042 -1.478,0.386 -1.718,0.397 -0.121,0.008 -0.192,-0.005 -0.233,-0.042 0,0 -0.142,-0.188 0.147,-0.29"
       style="fill:#ffffff;fill-opacity:1;fill-rule:nonzero;stroke:none"
       id="path138"
       inkscape:connector-curvature="0" /><path
       d="m 179.641,181.479 c 0.031,-0.047 0.031,-0.12 0,-0.233 l -0.071,-0.537 c -0.015,-0.302 0.301,-0.455 0.688,-0.613 0.582,-0.226 1.715,-0.514 3.031,-0.846 l 2.629,-0.669 0.094,-0.026 c 2.158,-0.545 2.543,-0.644 3.013,-0.728 0.475,-0.096 0.744,-0.055 0.971,0.404 0.059,0.111 0.139,0.363 0.189,0.553 0.032,0.121 0.065,0.191 0.116,0.216 0,0 0.086,0.045 0.178,-0.04 0.033,-0.057 0.029,-0.151 -0.016,-0.323 l -0.317,-1.181 -0.027,-0.092 -0.232,-0.821 -0.047,-0.173 c -0.203,-0.797 -0.817,-3.225 -0.867,-3.475 l -0.075,-0.652 0.004,-0.096 -0.004,-0.164 c -0.023,-0.106 -0.136,-0.074 -0.175,-0.066 l -0.137,0.056 -0.783,0.307 -0.289,0.09 -0.658,0.222 c -0.049,0.026 -0.159,0.084 -0.137,0.2 0,0 0,0.007 0.002,0.017 0,0 0.013,0.109 0.168,0.09 0.046,0 0.092,0 0.092,0 0.115,-0.025 0.355,-0.067 0.54,-0.039 0.27,0.029 0.483,0.107 0.762,0.828 0.09,0.248 0.512,1.779 0.584,2.059 l -0.004,0.06 -0.105,0.055 -3.694,0.937 -0.13,0.004 c 0,0 -0.036,-0.051 -0.036,-0.058 -0.328,-1.282 -0.527,-2.118 -0.564,-2.334 -0.061,-0.362 -0.072,-0.579 0.053,-0.77 0.086,-0.121 0.136,-0.197 0.117,-0.269 -0.012,-0.049 -0.047,-0.118 -0.162,-0.084 l -0.127,0.048 c 0,0 -0.91,0.334 -0.914,0.334 0,0 -0.963,0.307 -0.967,0.307 -0.115,0.031 -0.289,0.072 -0.254,0.225 0,0 0.051,0.136 0.184,0.111 l 0.14,-0.025 0.403,-0.047 c 0.353,-0.004 0.587,0.201 0.759,0.656 0.102,0.275 0.491,1.754 0.571,2.062 l -0.002,0.049 -0.108,0.055 -1.156,0.297 -0.605,0.156 -1.66,0.418 c -0.973,0.219 -1.264,0.104 -1.649,-1.43 -0.094,-0.367 -0.25,-0.982 -0.176,-1.414 0.078,-0.408 0.321,-0.656 0.903,-0.916 0,0 0.337,-0.148 0.136,-0.31 -0.058,-0.037 -0.156,-0.014 -0.261,0.013 -0.34,0.088 -1.297,0.457 -1.578,0.604 -0.366,0.201 -0.329,0.35 -0.184,0.904 l 0.555,2.065 0.13,0.453 0.428,1.508 0.196,0.836 0.226,1.013 c 0.035,0.14 0.082,0.225 0.139,0.257 0,0 0.107,0.048 0.17,-0.038"
       style="fill:#ffffff;fill-opacity:1;fill-rule:nonzero;stroke:none"
       id="path140"
       inkscape:connector-curvature="0" /><path
       d="m 185.213,167.684 c 0.051,0.016 0.119,0.004 0.225,-0.047 0.216,-0.109 1.316,-0.961 1.425,-1.049 0.153,-0.125 0.229,-0.216 0.184,-0.314 l -0.125,-0.131 c -0.088,-0.076 -0.207,-0.174 -0.322,-0.369 -0.241,-0.387 -0.522,-0.895 -0.729,-1.328 l -2.609,-5.365 c 0,0 -0.383,-0.961 -0.387,-0.965 l -0.039,-0.159 c 0,0 -0.07,-0.242 -0.07,-0.246 -0.055,-0.113 -0.176,-0.068 -0.362,0.024 0,0 -1.556,0.797 -1.556,0.801 -0.106,0.066 -0.215,0.144 -0.164,0.254 0.06,0.125 0.16,0.105 0.371,0.025 l 0.154,-0.063 c 0.271,-0.107 0.836,-0.093 1.518,1.233 0,0 0.851,1.65 0.875,1.654 -0.008,0.006 -5.563,2.705 -5.571,2.709 -1.24,0.608 -2.306,1.133 -2.922,1.344 -0.363,0.131 -0.715,0.217 -0.972,-0.164 l -0.391,-0.668 c -0.09,-0.194 -0.176,-0.203 -0.23,-0.174 -0.16,0.09 -0.02,0.35 -0.02,0.35 l 0.746,1.476 0.33,0.627 0.287,0.647 0.5,1.087 c 0.061,0.127 0.121,0.198 0.188,0.221 0,0 0.096,0.014 0.166,-0.072 0.004,-0.016 0.008,-0.029 0.008,-0.045 0,-0.049 -0.018,-0.107 -0.057,-0.184 l -0.184,-0.507 c -0.009,-0.036 -0.011,-0.073 -0.011,-0.106 0,-0.23 0.226,-0.426 0.56,-0.629 0.539,-0.357 1.614,-0.875 2.854,-1.478 0,0 5.508,-2.674 5.539,-2.69 0.016,0.03 0.924,2.028 0.924,2.028 0.22,0.502 0.345,0.837 0.345,1.109 0,0.139 -0.033,0.258 -0.099,0.381 -0.154,0.264 -0.293,0.398 -0.36,0.447 -0.054,0.053 -0.111,0.113 -0.111,0.192 0,0 -0.012,0.105 0.092,0.144"
       style="fill:#ffffff;fill-opacity:1;fill-rule:nonzero;stroke:none"
       id="path142"
       inkscape:connector-curvature="0" /><path
       d="m 79.422,230.872 c 0.078,-0.002 0.156,0.058 0.271,0.166 l 0.975,0.975 0.176,0.181 0.316,0.28 1.071,0.97 c 0.136,0.135 0.249,0.269 0.148,0.375 -0.086,0.086 -0.195,0.004 -0.297,-0.087 -0.158,-0.153 -0.377,-0.348 -0.633,-0.461 -0.324,-0.148 -0.777,0.108 -1.515,0.846 l -4.481,4.482 c 0.022,0.004 0.504,-0.033 0.504,-0.033 0.941,-0.072 2.895,-0.216 4.734,-0.257 l 2.823,-0.074 3.455,-0.081 c 0.236,-0.006 0.468,0 0.599,0.108 0.004,0.003 0.008,0.005 0.012,0.01 l 0.002,0 0,0.003 c 0.035,0.023 0.055,0.066 0.055,0.119 0,0.023 -0.004,0.044 -0.012,0.063 -0.027,0.083 -0.098,0.189 -0.221,0.317 l -6.425,7.016 c -0.577,0.626 -0.688,0.932 -0.475,1.29 l 0.293,0.34 c 0.14,0.133 0.174,0.238 0.103,0.309 -0.095,0.108 -0.236,-0.012 -0.367,-0.138 l -0.851,-0.853 -0.192,-0.198 -0.396,-0.355 -0.957,-0.864 C 78,245.19 77.914,245.092 77.91,245.008 l 0.035,-0.081 0.09,-0.047 c 0.055,-0.002 0.121,0.033 0.199,0.111 0.157,0.148 0.414,0.393 0.641,0.484 0.375,0.143 0.674,-0.005 1.287,-0.631 l 4.756,-4.801 0.033,-0.035 -0.092,0.005 -0.058,0.005 c -0.299,0.016 -1.457,0.069 -1.457,0.069 l -3.227,0.142 c -3.244,0.075 -6.687,0.291 -6.723,0.294 l -0.21,0.012 c -0.262,0.021 -0.426,0.033 -0.53,-0.061 -0.138,-0.13 0.053,-0.366 0.209,-0.533 l 6.045,-6.566 c 0.889,-0.963 1.137,-1.317 0.944,-1.659 -0.118,-0.204 -0.325,-0.412 -0.434,-0.515 -0.088,-0.081 -0.125,-0.142 -0.129,-0.198 0,0 0.018,-0.141 0.133,-0.131"
       style="fill:#ffffff;fill-opacity:1;fill-rule:nonzero;stroke:none"
       id="path144"
       inkscape:connector-curvature="0" /><path
       d="m 77.281,228.082 c -0.051,0.036 -0.14,0.041 -0.258,-0.139 l -0.482,-0.596 c -0.295,-0.319 -0.564,-0.268 -0.934,-0.073 -0.564,0.316 -1.529,0.981 -2.751,1.819 l -2.184,1.509 c -1.893,1.303 -2.231,1.54 -2.615,1.837 -0.444,0.344 -0.541,0.578 -0.385,0.927 l 0.217,0.394 c 0.072,0.106 0.13,0.222 0.007,0.306 -0.101,0.072 -0.212,-0.067 -0.302,-0.194 l -0.598,-0.919 -0.41,-0.622 -0.5,-0.694 -0.645,-0.891 c -0.097,-0.137 -0.14,-0.23 -0.146,-0.294 -0.002,-0.008 -0.004,-0.013 -0.004,-0.019 0,-0.004 0.002,-0.01 0.002,-0.014 0,-0.002 0,-0.004 0,-0.004 l 0.004,-0.001 c 0.008,-0.057 0.059,-0.1 0.123,-0.1 0.027,0 0.049,0.009 0.068,0.021 0.055,0.024 0.098,0.076 0.137,0.133 0.117,0.176 0.242,0.315 0.354,0.409 0.24,0.225 0.529,0.208 0.966,-0.056 0.403,-0.242 0.723,-0.465 2.512,-1.696 l 2.318,-1.599 c 1.168,-0.803 2.182,-1.498 2.662,-1.922 0.327,-0.279 0.489,-0.493 0.372,-0.772 l -0.262,-0.473 c -0.065,-0.097 -0.09,-0.167 -0.08,-0.221 0,0 0.015,-0.096 0.15,-0.093 0.07,0.01 0.143,0.074 0.223,0.187 l 0.65,0.997 0.387,0.594 0.416,0.573 0.953,1.337 c 0.117,0.161 0.129,0.288 0.035,0.349"
       style="fill:#ffffff;fill-opacity:1;fill-rule:nonzero;stroke:none"
       id="path146"
       inkscape:connector-curvature="0" /><path
       d="m 65.625,186.175 -0.068,1.227 -0.036,0.605 -0.003,0.465 -0.022,1.756 c -0.01,0.214 -0.064,0.315 -0.181,0.312 -0.088,-0.002 -0.135,-0.079 -0.131,-0.205 l -0.038,-0.734 c -0.04,-0.419 -0.312,-0.535 -0.794,-0.601 -0.633,-0.095 -1.831,-0.132 -3.221,-0.178 l -0.211,-0.007 -0.08,0.02 -0.025,0.08 -0.012,1.311 c -0.002,0.109 0.012,0.191 0.088,0.261 l 0.98,0.757 1.055,0.802 c 1.179,0.918 1.836,1.505 2.152,2.142 0.203,0.412 0.264,0.811 0.237,1.629 l -0.047,1.433 c -0.004,0.119 -0.022,0.196 -0.053,0.241 -0.008,0.008 -0.012,0.014 -0.016,0.021 -0.004,0 -0.004,0.002 -0.004,0.002 l 0,10e-4 c -0.019,0.024 -0.051,0.039 -0.089,0.039 -0.016,0 -0.034,-0.004 -0.047,-0.01 -0.051,-0.013 -0.106,-0.059 -0.102,-0.197 l -0.031,-0.424 c -0.039,-0.246 -0.143,-0.86 -0.965,-1.708 -0.781,-0.798 -1.854,-1.702 -3.211,-2.85 l -0.644,-0.547 c -0.022,0.025 -0.047,0.047 -0.069,0.073 -0.064,0.071 -0.127,0.146 -0.189,0.213 -1.051,1.142 -2.024,1.639 -3.172,1.603 -1.09,-0.038 -1.813,-0.74 -2.047,-1.103 -0.545,-0.856 -0.59,-1.9 -0.559,-2.802 l 0.11,-2.126 0.008,-0.6 0.015,-1.463 c 0.006,-0.216 0.035,-0.352 0.162,-0.35 0.137,0.008 0.151,0.14 0.147,0.285 -0.008,0.194 0,0.458 0.025,0.581 0.09,0.508 0.338,0.621 0.824,0.664 0.479,0.047 0.893,0.059 3.176,0.134 l 2.67,0.086 c 1.375,0.041 2.57,0.078 3.211,0.027 0.41,-0.046 0.754,-0.106 0.824,-0.4 l 0.076,-0.535 c 0.006,-0.116 0.024,-0.19 0.067,-0.227 0.019,-0.018 0.047,-0.035 0.078,-0.035 0.023,0 0.045,0.012 0.062,0.025 0.073,0.036 0.106,0.134 0.1,0.307 z m -5.69,2.734 c -0.039,-0.1 -0.091,-0.129 -0.251,-0.134 l -4.579,-0.144 c -0.119,-0.006 -0.167,0.024 -0.197,0.114 -0.045,0.138 -0.072,0.389 -0.084,0.793 -0.017,0.566 0.203,1.152 0.592,1.571 0.473,0.504 1.172,0.776 2.076,0.801 1.391,0.046 2.02,-0.485 2.27,-0.806 0.195,-0.257 0.267,-0.447 0.285,-1.052 0.015,-0.43 -0.028,-0.861 -0.112,-1.143"
       style="fill:#ffffff;fill-opacity:1;fill-rule:nonzero;stroke:none"
       id="path148"
       inkscape:connector-curvature="0" /><path
       d="m 68.879,172.389 -0.391,1.41 -0.09,0.307 -0.349,1.561 c -0.037,0.14 -0.09,0.265 -0.233,0.226 -0.113,-0.031 -0.113,-0.115 -0.074,-0.266 l 0.057,-0.222 c 0.097,-0.395 0.006,-0.608 -0.291,-0.686 -0.164,-0.039 -0.527,-0.06 -0.942,-0.008 l -2.289,0.26 c -0.092,0.008 -0.121,0.02 -0.134,0.09 l -0.831,3.256 c -0.015,0.07 0,0.113 0.061,0.156 l 2.799,1.957 c 0.068,0.055 0.129,0.063 0.178,0.059 0.002,0 0.005,0.004 0.009,0.004 0.106,0 0.139,-0.067 0.2,-0.2 0.039,-0.066 0.085,-0.099 0.164,-0.082 0.109,0.028 0.076,0.184 0.029,0.422 l -0.012,0.069 -0.674,2.767 c -0.113,0.439 -0.136,0.613 -0.25,0.638 -0.195,0.026 -0.168,-0.232 -0.168,-0.232 l 0.094,-0.623 c 0.006,-0.35 -0.138,-0.834 -1.258,-1.676 l -5.097,-3.734 -2.969,-2.175 c -0.289,-0.219 -0.422,-0.36 -0.383,-0.504 0.043,-0.164 0.248,-0.206 0.707,-0.276 l 10.11,-1.33 c 0.56,-0.074 1.035,-0.162 1.351,-0.484 0.207,-0.174 0.242,-1.096 0.242,-1.096 0.076,-0.812 -0.187,-1.67 -0.447,-2.498 l -0.047,-0.147 c -0.232,-0.767 -1.752,-4.835 -2.144,-5.64 -0.698,0.221 -3.713,1.244 -4.346,1.467 -0.764,0.265 -1.313,0.568 -1.736,0.941 -0.225,0.215 -0.448,0.522 -0.534,0.703 -0.048,0.098 -0.089,0.147 -0.14,0.16 l -0.106,-0.009 -0.068,-0.071 c -0.018,-0.06 -0.002,-0.134 0.053,-0.244 l 0.828,-1.554 0.656,-1.409 c 0.053,-0.107 0.098,-0.162 0.149,-0.176 l 0.101,0.01 c 0.102,0.055 0.086,0.151 0.059,0.262 -0.036,0.131 0.015,0.225 0.164,0.303 0.213,0.107 0.672,-0.004 1.248,-0.149 l 0.088,-0.019 c 0.39,-0.096 1.617,-0.479 2.699,-0.815 0,0 1.672,-0.513 1.676,-0.513 0,-0.004 0.008,-0.026 0.015,-0.039 -0.031,-0.016 -0.767,-0.399 -0.767,-0.399 -1.864,-0.926 -2.252,-1.119 -2.682,-1.301 -0.516,-0.224 -0.766,-0.197 -0.996,0.108 -0.016,0.019 -0.227,0.357 -0.227,0.357 -0.023,0.051 -0.101,0.199 -0.238,0.137 -0.113,-0.059 -0.078,-0.19 0.012,-0.373 l 0.488,-0.918 0.365,-0.694 0.295,-0.615 0.612,-1.291 c 0.078,-0.156 0.134,-0.23 0.197,-0.252 l 0.096,0.01 c 0.121,0.063 0.072,0.195 0.013,0.314 -0.086,0.176 -0.195,0.417 -0.221,0.544 -0.128,0.492 0.046,0.701 0.475,0.941 0.406,0.238 0.758,0.416 2.719,1.396 l 2.525,1.266 c 1.225,0.615 2.28,1.143 2.877,1.354 0.387,0.132 0.727,0.224 0.912,-0.014 l 0.293,-0.459 c 0.053,-0.098 0.104,-0.156 0.157,-0.172 0.318,-0.025 0.095,0.367 0.095,0.367 l -0.556,1.045 -0.334,0.629 -0.297,0.633 -0.637,1.33 c -0.084,0.174 -0.189,0.244 -0.285,0.195 -0.043,-0.021 -0.067,-0.06 -0.067,-0.113 0,-0.041 0.016,-0.088 0.038,-0.137 0,-0.004 0.275,-0.681 0.275,-0.681 0.018,-0.059 0.027,-0.118 0.027,-0.172 0,-0.24 -0.166,-0.457 -0.504,-0.66 -0.542,-0.323 -1.574,-0.84 -2.765,-1.432 0,0 -1.285,-0.645 -1.318,-0.66 l 0.001,0 c 0,0.019 -0.019,0.052 -0.019,0.052 0,-0.017 0.131,0.237 0.131,0.237 0.244,0.469 2.029,4.681 2.265,5.553 0.223,0.841 0.334,1.355 0.038,2.123 l -0.43,0.921 c -0.145,0.243 -0.297,0.68 -0.297,0.68 z m -5.58,2.729 c -0.01,-0.016 -0.035,-0.024 -0.065,-0.024 l -3.935,0.442 c -0.082,-0.002 -0.131,0.013 -0.139,0.037 -0.006,0.027 0.047,0.054 0.092,0.078 0.012,0.004 3.287,2.24 3.287,2.24 0.012,0.004 0.029,0.016 0.043,0.008 0.022,-0.008 0.031,-0.029 0.035,-0.051 l 0.686,-2.689 c 0.002,-0.01 0.002,-0.014 0.002,-0.022 0,-0.008 -0.002,-0.019 -0.006,-0.019"
       style="fill:#ffffff;fill-opacity:1;fill-rule:nonzero;stroke:none"
       id="path150"
       inkscape:connector-curvature="0" /><path
       d="m 84.238,134.983 -0.457,0.441 c -0.215,0.286 -0.385,0.75 0,2.094 l 1.844,6.111 1.049,3.471 c 0.095,0.346 0.121,0.527 0.002,0.625 -0.133,0.102 -0.328,0.016 -0.729,-0.205 l -8.879,-5.014 c -0.775,-0.435 -1.271,-0.591 -1.832,-0.258 l -0.377,0.272 c -0.259,0.115 -0.283,-0.092 -0.283,-0.092 0.006,-0.064 0.057,-0.121 0.174,-0.217 l 1.156,-0.882 0.258,-0.19 1.217,-1.041 c 0.096,-0.08 0.172,-0.131 0.221,-0.101 0.222,0.111 -0.004,0.322 -0.004,0.322 l -0.176,0.141 c -0.316,0.249 -0.371,0.482 -0.18,0.72 0.106,0.129 0.387,0.365 0.75,0.572 l 1.986,1.172 c 0.075,0.047 0.108,0.049 0.159,0.01 l 2.623,-2.107 c 0.056,-0.043 0.068,-0.09 0.047,-0.161 l -1.061,-3.246 c -0.031,-0.101 -0.09,-0.146 -0.133,-0.168 l -0.004,0 c -0.021,-0.013 -0.046,-0.023 -0.076,-0.023 -0.029,-0.002 -0.056,0.004 -0.078,0.016 l -0.01,-0.002 c -0.117,0.078 -0.203,0.111 -0.271,0.025 -0.072,-0.09 0.049,-0.197 0.236,-0.355 l 0.045,-0.045 2.201,-1.811 c 0.358,-0.283 0.496,-0.371 0.582,-0.361 0.219,0.064 0,0.287 0,0.287 z m 0.16,10.418 c -0.007,-0.014 -1.281,-3.76 -1.281,-3.76 -0.006,-0.012 -0.011,-0.031 -0.029,-0.037 -0.022,-0.004 -0.041,0.008 -0.053,0.023 l -2.168,1.725 c -0.015,0.014 -0.023,0.023 -0.023,0.035 0,0.02 0.015,0.039 0.039,0.063 l 3.406,2.017 c 0.063,0.049 0.113,0.071 0.135,0.049 0.021,-0.014 -0.004,-0.07 -0.026,-0.115"
       style="fill:#ffffff;fill-opacity:1;fill-rule:nonzero;stroke:none"
       id="path152"
       inkscape:connector-curvature="0" /><path
       d="m 98.262,140.061 c 0.066,0.074 0.187,-0.016 0.367,-0.107 l 1.14,-0.616 0.459,-0.252 0.252,-0.113 1.086,-0.516 c 0.165,-0.087 0.321,-0.175 0.254,-0.312 -0.047,-0.09 -0.156,-0.092 -0.328,-0.004 l -0.418,0.172 c -0.41,0.08 -0.656,-0.133 -1.062,-0.883 l -4.491,-8.388 c 0,0 -0.214,-0.399 -0.41,-0.331 -0.156,0.08 -0.24,0.307 -0.31,0.534 l -1.067,3.267 -0.871,2.707 c -0.572,1.754 -1.086,3.647 -1.332,4.557 0,0 -0.129,0.459 -0.137,0.48 l -2.74,-5.711 c -0.451,-0.937 -0.539,-1.447 -0.295,-1.709 0.19,-0.203 0.442,-0.347 0.643,-0.449 0.111,-0.056 0.17,-0.109 0.189,-0.162 0,0 0.016,-0.119 -0.089,-0.152 -0.065,-0.022 -0.161,0.002 -0.323,0.084 l -1.287,0.695 -0.351,0.203 -0.225,0.106 -1.244,0.595 c -0.141,0.073 -0.227,0.125 -0.25,0.2 0,0 -0.039,0.115 0.078,0.166 0.055,0.019 0.125,0 0.231,-0.051 0.132,-0.074 0.398,-0.197 0.63,-0.242 0.389,-0.069 0.641,0.281 1.252,1.437 l 4.192,7.877 c 0.117,0.23 0.22,0.356 0.316,0.387 0,0 0.195,0.109 0.354,-0.492 l 0.056,-0.198 c 0.008,-0.029 0.946,-3.351 1.948,-6.435 l 0.933,-3.082 c 0,0 0.324,-1.09 0.418,-1.397 l 0.027,-0.086 0.024,-0.093 0.021,0.06 c 0.065,0.135 2.952,6.082 2.952,6.082 0.23,0.477 0.337,0.787 0.326,1.018 -0.004,0.16 -0.061,0.285 -0.161,0.408 -0.16,0.182 -0.47,0.342 -0.667,0.439 0,0 -0.258,0.141 -0.09,0.307"
       style="fill:#ffffff;fill-opacity:1;fill-rule:nonzero;stroke:none"
       id="path154"
       inkscape:connector-curvature="0" /><path
       d="m 114.379,134.5 -0.438,0.073 c -0.416,-0.002 -0.617,-0.25 -0.859,-1.069 l -2.688,-9.129 c -0.048,-0.175 -0.095,-0.289 -0.154,-0.353 -0.031,-0.037 -0.076,-0.066 -0.127,-0.066 -0.015,0 -0.029,0.004 -0.041,0.009 l -0.009,-0.004 c -0.006,0.004 -0.008,0.01 -0.012,0.01 -0.004,0.002 -0.01,0.006 -0.018,0.008 -0.152,0.061 -0.283,0.26 -0.387,0.451 l -1.744,3.035 -1.367,2.416 c -0.908,1.588 -1.795,3.332 -2.219,4.166 0,0 -0.23,0.444 -0.246,0.465 l 0,0.002 -1.519,-6.146 c -0.254,-1.02 -0.237,-1.536 0.055,-1.735 0.23,-0.162 0.507,-0.246 0.722,-0.308 0,0 0.332,-0.086 0.168,-0.289 -0.051,-0.059 -0.166,-0.03 -0.334,0.017 l -1.396,0.418 -0.395,0.121 -0.236,0.057 -1.346,0.326 c -0.408,0.094 -0.293,0.26 -0.293,0.26 0.055,0.123 0.17,0.097 0.289,0.06 0.143,-0.037 0.43,-0.105 0.668,-0.103 0.391,0.012 0.566,0.414 0.93,1.666 l 2.502,8.568 c 0.062,0.221 0.162,0.502 0.349,0.453 0.133,-0.035 0.209,-0.189 0.325,-0.418 l 0.097,-0.187 c 0.221,-0.43 1.756,-3.35 3.223,-5.904 l 1.523,-2.799 c 0,0 0.658,-1.213 0.739,-1.375 l 0.005,-0.014 0.004,-0.004 0.035,-0.066 0.012,0.041 0.004,-0.002 c 0.022,0.08 1.655,6.566 1.655,6.566 0.089,0.364 0.14,0.629 0.14,0.832 0,0.282 -0.09,0.45 -0.269,0.59 -0.19,0.147 -0.532,0.24 -0.741,0.295 -0.146,0.043 -0.213,0.092 -0.213,0.176 -0.004,0.076 0.059,0.119 0.059,0.119 0.07,0.043 0.199,0.018 0.379,-0.031 l 1.238,-0.379 0.508,-0.153 0.277,-0.064 1.162,-0.287 c 0.157,-0.043 0.301,-0.092 0.301,-0.152 0,0 0.051,-0.239 -0.318,-0.163"
       style="fill:#ffffff;fill-opacity:1;fill-rule:nonzero;stroke:none"
       id="path156"
       inkscape:connector-curvature="0" /><path
       d="m 142.633,247.118 c -0.059,-0.138 -0.239,-0.088 -0.406,-0.025 l -1.34,0.567 -0.379,0.166 -0.25,0.087 -1.283,0.469 c -0.176,0.072 -0.319,0.14 -0.262,0.284 0.047,0.114 0.187,0.073 0.289,0.032 0.178,-0.068 0.432,-0.155 0.654,-0.176 0.393,-0.03 0.612,0.34 1.102,1.555 l 3.414,8.248 c 0.084,0.214 0.213,0.487 0.394,0.417 0.129,-0.05 0.188,-0.211 0.278,-0.456 l 0.076,-0.196 c 0.014,-0.03 1.273,-3.261 2.564,-6.217 l 1.239,-2.999 c 0,0 0.574,-1.398 0.574,-1.412 0,0 0.006,0 0.008,-0.002 l 0.025,-0.057 0.014,0.033 c 0,0 0.025,0.065 0.025,0.064 0.033,0.078 2.326,6.278 2.326,6.278 0.159,0.416 0.239,0.71 0.239,0.936 0,0.21 -0.073,0.359 -0.211,0.493 -0.176,0.162 -0.5,0.294 -0.707,0.373 -0.133,0.051 -0.196,0.109 -0.196,0.181 0,0.021 0.004,0.04 0.012,0.062 0.055,0.132 0.238,0.07 0.437,-0.01 l 1.188,-0.506 0.496,-0.209 0.252,-0.088 1.135,-0.411 c 0.152,-0.062 0.254,-0.115 0.281,-0.186 l -0.061,-0.162 c -0.06,-0.024 -0.146,-0.013 -0.271,0.037 l -0.426,0.117 c -0.414,0.042 -0.642,-0.186 -0.97,-0.973 l -3.655,-8.785 c -0.082,-0.218 -0.164,-0.334 -0.25,-0.371 l -0.125,0 c -0.164,0.062 -0.269,0.285 -0.367,0.503 l -1.39,3.183 -1.114,2.581 c -0.74,1.684 -1.43,3.511 -1.763,4.395 0,0 -0.174,0.452 -0.182,0.47 l 0,0.002 -2.18,-5.949 c -0.355,-0.98 -0.394,-1.497 -0.129,-1.733 0.207,-0.179 0.473,-0.299 0.686,-0.383 0,0 0.26,-0.087 0.209,-0.227"
       style="fill:#ffffff;fill-opacity:1;fill-rule:nonzero;stroke:none"
       id="path158"
       inkscape:connector-curvature="0" /></g></svg>