<?xml version="1.0" encoding="UTF-8" standalone="no"?>
<!-- Created with Inkscape (http://www.inkscape.org/) -->

<svg
   xmlns:dc="http://purl.org/dc/elements/1.1/"
   xmlns:cc="http://creativecommons.org/ns#"
   xmlns:rdf="http://www.w3.org/1999/02/22-rdf-syntax-ns#"
   xmlns:svg="http://www.w3.org/2000/svg"
   xmlns="http://www.w3.org/2000/svg"
   xmlns:sodipodi="http://sodipodi.sourceforge.net/DTD/sodipodi-0.dtd"
   xmlns:inkscape="http://www.inkscape.org/namespaces/inkscape"
   width="205.105mm"
   height="66.288124mm"
   viewBox="0 0 726.74998 234.87918"
   id="svg5913"
   version="1.1"
   inkscape:version="0.91 r"
   sodipodi:docname="SciLifeLab.svg">
  <defs
     id="defs5915">
    <clipPath
       id="clipPath6345"
       clipPathUnits="userSpaceOnUse">
      <path
         style="clip-rule:evenodd"
         inkscape:connector-curvature="0"
         id="path6347"
         d="m 1907.8,3196.8 558.8,0 0,107 -558.8,0 0,-107 z" />
    </clipPath>
    <clipPath
       id="clipPath9899"
       clipPathUnits="userSpaceOnUse">
      <path
         inkscape:connector-curvature="0"
         id="path9901"
         d="m 0,127.494 401.98,0 L 401.98,0 0,0 0,127.494 Z" />
    </clipPath>
  </defs>
  <sodipodi:namedview
     id="base"
     pagecolor="#ffffff"
     bordercolor="#666666"
     borderopacity="1.0"
     inkscape:pageopacity="0.0"
     inkscape:pageshadow="2"
     inkscape:zoom="0.35"
     inkscape:cx="1138.2143"
     inkscape:cy="8.868165"
     inkscape:document-units="px"
     inkscape:current-layer="layer1"
     showgrid="false"
     fit-margin-top="0"
     fit-margin-left="0"
     fit-margin-right="0"
     fit-margin-bottom="0"
     inkscape:window-width="1920"
     inkscape:window-height="1025"
     inkscape:window-x="1918"
     inkscape:window-y="759"
     inkscape:window-maximized="1" />
  <metadata
     id="metadata5918">
    <rdf:RDF>
      <cc:Work
         rdf:about="">
        <dc:format>image/svg+xml</dc:format>
        <dc:type
           rdf:resource="http://purl.org/dc/dcmitype/StillImage" />
        <dc:title></dc:title>
      </cc:Work>
    </rdf:RDF>
  </metadata>
  <g
     inkscape:label="Layer 1"
     inkscape:groupmode="layer"
     id="layer1"
     transform="translate(1216.0714,-306.3512)">
    <g
       id="g8377">
      <path
         inkscape:connector-curvature="0"
         id="path4202"
         style="fill:#7fcb28;fill-opacity:1;fill-rule:evenodd;stroke:none"
         d="m -795.19643,319.8652 0,0 0,0 0,0 c 0.125,0 12.375,-12.375 12.25,-12.375 -17.125,-3.75 -39.25,1.5 -53.25,19.625 -15.625,20.125 -17.375,48.375 -17.875,54.875 0,0.125 -7.5,0 -7.5,0 l 0,0 -10.25,10.75 16.5,0 0,0 c 0,0 -9.125,94 -9.875,99 -0.75,5 -4.75,50.25 -44.375,36.75 -0.125,-0.125 -12,10.75 -12,10.875 19,6.75 65.75,-2.25 71.25,-70.25 4,-49.625 7.75,-76.375 7.75,-76.375 0,0 24.875,-0.125 24.75,0 -1.375,2.375 -6.875,10.25 -6.75,25 0.125,24.75 18.375,40.125 41.375,40.25 27.5,0.125 31.5,-19 32.25,-22.25 0,0 -1.75,-0.75 -1.75,-0.625 -2.125,5.5 -6.25,16.25 -24.125,16.625 -22.375,0.25 -34.625,-25.625 -30.875,-46.5 0,-0.25 54.875,0 54.875,0 -0.625,-31.875 -31.5,-30.625 -36.75,-29.75 -0.125,0 -0.125,2.125 0,2.125 20.5,-3 22.625,19.375 22.625,23.75 0,0.125 -40.25,0.375 -40.25,0.25 0.75,-4.75 3.25,-14.25 8.25,-18.75 1.125,-1 -42.5,-0.5 -42.5,-0.5 0,0 1.625,-17.5 2.125,-21.375 1.875,-12.875 3.25,-55.5 44.125,-41.125 z" />
      <path
         inkscape:connector-curvature="0"
         id="path4204"
         style="fill:#000000;fill-opacity:1;fill-rule:evenodd;stroke:none"
         d="m -1213.9464,455.6152 0,0 0,0 0,0 c 1.125,-2.875 3.25,-4.375 6.125,-4.375 1,0 1.75,0.125 2.5,0.375 0.875,0.25 3.125,1.125 6.875,2.875 7.5,3.125 15.125,4.75 23.125,4.75 8.75,0 16.375,-2 22.875,-6 6.375,-3.875 11.25,-9.5 14.5,-16.75 2.25,-5.125 3.375,-10.5 3.375,-16.25 0,-8.625 -2.5,-16.125 -7.5,-22.5 -4.5,-5.875 -11.875,-11.125 -21.875,-15.875 l 0,0 -13.125,-6.375 0,0 c -13.375,-6.25 -20,-14.75 -20,-25 0,-2.625 0.5,-5.25 1.5,-7.875 0.875,-2.625 2.25,-4.875 3.875,-6.875 4,-4.625 9.5,-7 16.5,-7 4.75,0 9,1.125 12.625,3.5 3.625,2.375 7,5.875 10,10.75 1.75,2.625 3.125,5.625 4.375,8.625 1.125,3.25 2.625,7.75 4.25,13.625 l 0,0 2.125,0 -0.625,-37 -2.125,0 0,0 c -0.75,3.25 -2.25,4.75 -4.375,4.75 -0.875,0 -1.875,-0.125 -3,-0.5 -1.125,-0.25 -3.25,-1.125 -6.25,-2.375 -4.25,-1.75 -7.5,-2.875 -10,-3.5 -2.5,-0.5 -5.125,-0.875 -8.125,-0.875 -9,0 -16.75,3.125 -23.375,9.125 -3.625,3.375 -6.625,7.5 -8.75,12.25 -2,4.875 -3,9.75 -3,14.875 0,8.375 2.625,15.5 8,21.375 1.875,2.125 4.375,4.125 7.625,6.25 3.125,2.125 7.5,4.625 13.5,7.5 6.625,3.375 11.625,6.25 14.875,8.5 3.25,2.125 5.75,4.5 7.625,6.875 1.75,2.375 3.125,5.25 4.125,8.5 1,3.375 1.5,6.5 1.5,9.75 0,7.375 -2.375,13.375 -7,18.125 -4.625,4.75 -10.5,7.25 -17.625,7.25 -10.25,0 -18.75,-5.25 -25.5,-15.625 -3.625,-5.75 -6.75,-13.375 -9.375,-23.25 l 0,0 -2.125,0 -0.25,38.375 2.125,0 z" />
      <path
         inkscape:connector-curvature="0"
         id="path4206"
         style="fill:#000000;fill-opacity:1;fill-rule:evenodd;stroke:none"
         d="m -1070.4464,448.1152 0,0 0,0 0,0 c -4,3.75 -8.875,5.75 -14.75,5.75 -7.25,0 -13.5,-2.875 -18.875,-8.375 -3.375,-3.625 -6,-8 -8,-13.25 -2,-5.25 -3,-10.75 -3,-16.25 0,-6 1.125,-12.125 3.25,-18.375 1.375,-4.125 3.125,-7.5 5,-10.25 1.875,-2.625 4.125,-4.875 6.875,-6.75 3.125,-2 6.5,-3 10.125,-3 2.75,0 5.125,0.625 7,2.125 1,0.75 1.875,1.625 2.375,2.625 0.5,1 1.125,2.875 2,5.5 2,6 4.875,8.875 9,8.875 1.875,0 3.375,-0.625 4.75,-2 1.25,-1.25 1.875,-3 1.875,-5 0,-3 -1.5,-5.625 -4.625,-8.125 -5.125,-4 -12.125,-6 -21.125,-6 -6.5,0 -12.5,1 -18,3.375 -5.5,2.25 -10.125,5.625 -13.875,9.875 -3.375,3.875 -6,8.5 -7.875,13.75 -2,5.375 -3,10.75 -3,16.25 0,11.125 3.5,20.375 10.5,27.75 7.125,7.375 16.875,11.125 29.5,11.125 7.75,0 13.875,-1.5 18.375,-4.5 4.5,-2.875 7.875,-7.5 10,-14.125 l 0,0 -1.875,-0.625 0,0 c -1.875,4.375 -3.625,7.625 -5.625,9.625 z" />
      <path
         inkscape:connector-curvature="0"
         id="path4208"
         style="fill:#000000;fill-opacity:1;fill-rule:evenodd;stroke:none"
         d="m -1062.4464,380.8652 0,0 0,0 0,0 c 2.75,0.125 4.875,0.625 6.375,1.375 1.5,0.75 2.75,2 3.75,3.75 1.125,1.625 1.75,3.75 2.125,6.25 0.375,2.625 0.5,7 0.5,13.375 l 0,0 0,23 0,0 c 0,5.375 -0.125,9.5 -0.5,12.375 -0.25,2.875 -0.75,5 -1.375,6.375 -1,2.25 -2.375,3.75 -3.875,4.625 -1.625,0.875 -4.25,1.625 -8,2.125 l 0,0 0,2 41.125,0 0,-2 0,0 c -4.75,-0.875 -7.875,-2.25 -9.625,-3.875 -1.375,-1.25 -2.375,-2.875 -2.875,-4.75 -0.5,-2 -0.75,-5.125 -0.75,-9.25 l 0,0 -0.125,-7.125 0,-53.5 -26.75,3.25 0,2 z" />
      <path
         inkscape:connector-curvature="0"
         id="path4210"
         style="fill:#7fcb28;fill-opacity:1;fill-rule:evenodd;stroke:none"
         d="m -908.44643,456.1152 0,0 0,0 1.125,-38.25 -2.25,-0.125 0,0 c -1.125,5.75 -2.5,10.375 -3.875,13.875 -1.375,3.625 -3.125,6.75 -5.25,9.5 -3.25,4.125 -7.375,7.125 -12.5,9.125 -5,1.875 -11.25,2.875 -18.625,2.875 -7.125,0 -12.75,-1 -17,-3.125 -4.375,-2 -7.625,-5.25 -9.75,-9.75 -1.25,-2.625 -2,-5.875 -2.5,-9.875 -0.5,-4.125 -0.625,-10.25 -0.625,-18.375 l 0,0 0,-53.75 0,0 c 0,-6.5 0.375,-11.375 1.125,-14.375 0.75,-3.125 2.125,-5.75 4.25,-7.75 1.625,-1.625 3.625,-2.875 5.75,-3.5 2.25,-0.875 5,-1.25 8.375,-1.5 l 0,0 0,-2.125 -59.49997,0 0,2.125 0,0 c 3.375,0.125 6.125,0.625 8.25,1.375 2.25,0.75 4.125,1.875 5.875,3.5 2,2 3.5,4.5 4.25,7.625 0.875,3.25 1.25,8 1.25,14.625 l 0,0 0,68.625 0,0 c 0,6.25 -0.375,11 -1.125,14 -0.625,3.125 -2,5.625 -3.875,7.625 -3.5,3.5 -8.375,5.375 -14.625,5.375 l 0,0 0,2.25 111.24997,0 z" />
      <path
         inkscape:connector-curvature="0"
         id="path4212"
         style="fill:#7fcb28;fill-opacity:1;fill-rule:evenodd;stroke:none"
         d="m -904.07143,380.8652 0,0 0,0 0,0 c 2.75,0.125 4.875,0.625 6.375,1.375 1.5,0.75 2.75,2 3.875,3.75 1,1.625 1.75,3.75 2,6.25 0.375,2.625 0.5,7 0.5,13.375 l 0,0 0,23 0,0 c 0,5.375 -0.125,9.5 -0.375,12.375 -0.25,2.875 -0.75,5 -1.5,6.375 -1,2.25 -2.25,3.75 -3.875,4.625 -1.625,0.875 -4.375,1.625 -8,2.125 l 0,0 0,2 41.125,0 0,-2 0,0 c -4.625,-0.875 -7.875,-2.25 -9.625,-3.875 -1.375,-1.25 -2.375,-2.875 -2.875,-4.75 -0.5,-2 -0.75,-5.125 -0.75,-9.25 l 0,0 -0.125,-7.125 0,-53.5 -26.75,3.25 0,2 z" />
      <path
         inkscape:connector-curvature="0"
         id="path4214"
         style="fill:#000000;fill-opacity:1;fill-rule:evenodd;stroke:none"
         d="m -647.82143,456.1152 0,0 0,0 1.25,-38.25 -2.25,-0.125 0,0 c -1.25,5.75 -2.5,10.375 -3.875,13.875 -1.375,3.625 -3.25,6.75 -5.375,9.5 -3.25,4.125 -7.375,7.125 -12.5,9.125 -5,1.875 -11.25,2.875 -18.625,2.875 -7,0 -12.75,-1 -17,-3.125 -4.25,-2 -7.5,-5.25 -9.75,-9.75 -1.25,-2.625 -2,-5.875 -2.5,-9.875 -0.375,-4.125 -0.625,-10.25 -0.625,-18.375 l 0,0 0,-53.75 0,0 c 0,-6.5 0.375,-11.375 1.125,-14.375 0.75,-3.125 2.25,-5.75 4.25,-7.75 1.75,-1.625 3.625,-2.875 5.875,-3.5 2.125,-0.875 4.875,-1.25 8.25,-1.5 l 0,0 0,-2.125 -59.375,0 0,2.125 0,0 c 3.375,0.125 6.125,0.625 8.125,1.375 2.25,0.75 4.125,1.875 5.875,3.5 2.125,2 3.625,4.5 4.375,7.625 0.75,3.25 1.125,8 1.125,14.625 l 0,0 0,68.625 0,0 c 0,6.25 -0.375,11 -1.125,14 -0.625,3.125 -2,5.625 -3.875,7.625 -3.5,3.5 -8.25,5.375 -14.5,5.375 l 0,0 0,2.25 111.125,0 z" />
      <path
         inkscape:connector-curvature="0"
         id="path4216"
         style="fill:#000000;fill-opacity:1;fill-rule:evenodd;stroke:none"
         d="m -599.07143,425.8652 0,0 0,0 0,0 c 0,7.875 -1,13.875 -2.875,18.125 -1.375,3.125 -3.375,5.625 -6.125,7.5 -2.625,1.875 -5.5,2.875 -8.625,2.875 -3.375,0 -6.25,-1.375 -8.5,-4 -2.25,-2.75 -3.375,-6.125 -3.375,-10.125 0,-4.875 1.375,-9 4.25,-12.5 1.5,-1.75 3,-3.375 4.75,-4.5 1.75,-1.25 5,-3.125 9.5,-5.5 4,-2.125 7.625,-4.625 11,-7.375 l 0,0 0,15.5 z m 26.875,25.25 0,0 0,0 0,0 c -1,0.75 -2.5,1 -4.5,1 -4,0 -6.5,-2.25 -7.625,-6.625 -0.5,-2.125 -0.75,-6 -0.75,-11.875 l 0,0 0,-34.375 0,0 c 0,-4.5 -0.25,-7.5 -0.75,-9.5 -1,-3.625 -3.5,-6.625 -7.5,-8.875 -2.875,-1.5 -6.25,-2.875 -10.5,-3.875 -4.125,-1 -8.125,-1.375 -12,-1.375 -3.375,0 -6.875,0.25 -10.5,1 -3.5,0.75 -6.5,1.625 -9,2.75 -4.375,2.125 -6.625,4.875 -6.625,8 0,2.125 0.625,3.875 2.125,5.25 1.375,1.375 3.125,2.125 5.25,2.125 3.25,0 5.5,-1.5 6.75,-4.5 l 0,0 2.25,-5.25 0,0 c 1,-2.25 2.5,-4.125 4.5,-5.5 2,-1.25 4.25,-1.875 6.875,-1.875 2,0 4.125,0.5 6,1.375 2,0.875 3.5,2.125 4.75,3.75 2.75,3.375 4.25,8.625 4.25,15.875 0,3.5 -0.5,6.125 -1.25,8 -0.75,1.875 -2.125,3.625 -4.125,5 -1.75,1.375 -3.75,2.5 -6.375,3.375 -2.625,0.875 -6.625,2.125 -12,3.5 -4.5,1.125 -8.125,2.25 -10.5,3.5 -2.375,1.125 -4.625,2.625 -6.375,4.5 -3.375,3.5 -5,7.875 -5,13 0,5.5 2,10 6,13.25 4,3.375 9.5,5 16.25,5 5.375,0 10.125,-1.125 14.125,-3.375 2.125,-1.125 5.25,-3.625 9.375,-7.375 2.125,3.5 4.125,6 6,7.5 2.875,2.125 6.625,3.25 11,3.25 8,0 13.125,-3.25 15.375,-9.75 l 0,0 -1.625,-1 0,0 c -1.5,2.125 -2.75,3.375 -3.875,4.125 z" />
      <path
         inkscape:connector-curvature="0"
         id="path4218"
         style="fill:#000000;fill-opacity:1;fill-rule:evenodd;stroke:none"
         d="m -548.07143,390.1152 0,0 0,0 0,0 c 1.375,-3.5 3.75,-6.375 6.75,-8.625 3.125,-2.125 6.5,-3.25 10,-3.25 3,0 6,0.75 8.75,2.375 2.875,1.625 5.5,3.875 7.75,6.875 3,3.75 5.375,8.125 7,13.375 1.5,5.25 2.375,10.75 2.375,16.625 0,11.125 -2.5,20.125 -7.375,27.375 -5,7.25 -11.125,10.75 -18.75,10.75 -3.5,0 -6.75,-0.875 -9.5,-2.625 -2.875,-1.625 -5,-4 -6.375,-7.125 -1.25,-2.5 -2.125,-6.625 -3,-12.125 -0.75,-5.625 -1,-11.625 -1,-18.375 0,-11.625 1,-20 3.375,-25.25 z m -3.375,-64.75 0,0 0,0 -28.5,3.875 0,2.25 0,0 c 5.25,0 8.875,1.5 11.125,4.5 2.25,2.875 3.25,7.875 3.25,14.875 l 0,0 0,109.125 3.75,0 0,0 c 2.375,-5.125 5.25,-7.625 8.375,-7.625 1.125,0 2.375,0.25 3.875,0.75 l 0,0 5.125,2.125 0,0 c 4.125,1.625 9.125,2.5 15,2.5 11.25,0 20.5,-3.375 27.75,-10.125 8.25,-7.75 12.375,-18.375 12.375,-31.75 0,-13.5 -4.25,-24 -13,-31.25 -7,-6 -15.25,-9 -24.625,-9 -6.625,0 -12.375,1.5 -17.125,4.5 -2.25,1.5 -4.75,4 -7.375,7.125 l 0,0 0,-61.875 z" />
      <path
         inkscape:connector-curvature="0"
         id="path4220"
         style="fill:#000000;fill-opacity:1;fill-rule:evenodd;stroke:none"
         d="m -1043.1964,360.4902 0,0 0,0 0,0 c 4.875,0 8.75,-3.875 8.75,-8.875 0,-4.75 -3.875,-8.625 -8.75,-8.625 -4.75,0 -8.625,3.875 -8.625,8.625 0,5 3.875,8.875 8.625,8.875 z" />
      <path
         inkscape:connector-curvature="0"
         id="path4222"
         style="fill:#7fcb28;fill-opacity:1;fill-rule:evenodd;stroke:none"
         d="m -884.32143,360.4902 0,0 0,0 0,0 c 4.75,0 8.75,-3.875 8.75,-8.875 0,-4.75 -4,-8.625 -8.75,-8.625 -4.875,0 -8.75,3.875 -8.75,8.625 0,5 3.875,8.875 8.75,8.875 z" />
    </g>
  </g>
</svg>
