<?xml version="1.0" encoding="UTF-8" standalone="no"?>
<!-- Created with Inkscape (http://www.inkscape.org/) -->

<svg
   xmlns:dc="http://purl.org/dc/elements/1.1/"
   xmlns:cc="http://creativecommons.org/ns#"
   xmlns:rdf="http://www.w3.org/1999/02/22-rdf-syntax-ns#"
   xmlns:svg="http://www.w3.org/2000/svg"
   xmlns="http://www.w3.org/2000/svg"
   xmlns:sodipodi="http://sodipodi.sourceforge.net/DTD/sodipodi-0.dtd"
   xmlns:inkscape="http://www.inkscape.org/namespaces/inkscape"
   width="30.302906mm"
   height="38.488762mm"
   viewBox="0 0 107.3725 136.3775"
   id="svg7213"
   version="1.1"
   inkscape:version="0.91 r13725"
   sodipodi:docname="KI.svg">
  <defs
     id="defs7215" />
  <sodipodi:namedview
     id="base"
     pagecolor="#ffffff"
     bordercolor="#666666"
     borderopacity="1.0"
     inkscape:pageopacity="0.0"
     inkscape:pageshadow="2"
     inkscape:zoom="0.98994949"
     inkscape:cx="-27.638568"
     inkscape:cy="-46.78434"
     inkscape:document-units="px"
     inkscape:current-layer="layer1"
     showgrid="false"
     fit-margin-top="0"
     fit-margin-left="0"
     fit-margin-right="0"
     fit-margin-bottom="0"
     inkscape:window-width="1920"
     inkscape:window-height="1015"
     inkscape:window-x="0"
     inkscape:window-y="0"
     inkscape:window-maximized="1" />
  <metadata
     id="metadata7218">
    <rdf:RDF>
      <cc:Work
         rdf:about="">
        <dc:format>image/svg+xml</dc:format>
        <dc:type
           rdf:resource="http://purl.org/dc/dcmitype/StillImage" />
        <dc:title></dc:title>
      </cc:Work>
    </rdf:RDF>
  </metadata>
  <g
     inkscape:label="Layer 1"
     inkscape:groupmode="layer"
     id="layer1"
     transform="translate(85.114821,-364.17345)">
    <path
       inkscape:connector-curvature="0"
       id="path416"
       style="fill:#000000;fill-opacity:1;fill-rule:evenodd;stroke:none"
       d="m -77.117321,457.92345 -4.2475,8.8775 -0.1275,0 0,-8.8775 -3.6225,0 0,19 3.6225,0 0,-9.74625 0.1275,0 3.99875,9.74625 4.12625,0 -4.75125,-10.1225 4.375,-8.8775 -3.50125,0 z" />
    <path
       inkscape:connector-curvature="0"
       id="path418"
       style="fill:#000000;fill-opacity:1;fill-rule:evenodd;stroke:none"
       d="m -65.491071,469.30095 c -2.25125,0.1225 -3.37375,1.00125 -3.37375,3.125 0,1.49875 0.74625,2.25125 2.12375,2.25125 0.37625,0 1.00125,0 1.25,-0.1275 l 0,-5.24875 z m -1.49875,8.125 c -3.50125,0 -5.24875,-1.875 -5.24875,-5 0,-3.6275 2.74875,-4.75125 6.7475,-5.37625 l 0,-0.4975 c 0,-1.3775 -0.87375,-2.25125 -2.0025,-2.25125 -1.37125,0 -2.3725,0.4975 -3.24625,0.87375 l -0.7525,-2.25125 c 0.7525,-0.4975 2.37875,-1.1225 4.5025,-1.1225 2.87625,0 5,1.3725 5,5.37625 l 0,8.99875 c -1.12875,0.4975 -2.6275,1.25 -5,1.25 z" />
    <path
       inkscape:connector-curvature="0"
       id="path420"
       style="fill:#000000;fill-opacity:1;fill-rule:evenodd;stroke:none"
       d="m -52.863571,464.79845 c -0.7525,-0.4975 -1.75375,-0.4975 -2.37875,0 l 0,12.125 -3.50125,0 0,-14 c 1.12875,-0.74625 3.125,-1.1225 6.505,-1.1225 l -0.625,2.9975 z" />
    <path
       inkscape:connector-curvature="0"
       id="path422"
       style="fill:#000000;fill-opacity:1;fill-rule:evenodd;stroke:none"
       d="m -45.988571,464.30095 c -1.505,0 -1.75375,2.5 -1.75375,5.1225 0,2.62625 0.37625,4.8775 1.75375,4.8775 1.62,0 1.99625,-2.25125 1.99625,-4.8775 0,-2.6225 -0.37625,-5.1225 -1.99625,-5.1225 z m 0,13.125 c -3.50125,0 -5.255,-3.50125 -5.255,-8.0025 0,-4.4975 1.75375,-7.6225 5.255,-7.6225 3.75,0 5.625,3.125 5.625,7.6225 0,4.50125 -1.875,8.0025 -5.625,8.0025 z" />
    <path
       inkscape:connector-curvature="0"
       id="path424"
       style="fill:#000000;fill-opacity:1;fill-rule:evenodd;stroke:none"
       d="m -37.614821,476.92345 0,-20.625 3.50125,-0.99625 0,21.62125 -3.50125,0 z" />
    <path
       inkscape:connector-curvature="0"
       id="path426"
       style="fill:#000000;fill-opacity:1;fill-rule:evenodd;stroke:none"
       d="m -30.739821,462.1772 3.50125,0 0,14.74625 -3.50125,0 0,-14.74625 z m 1.875,-2.5 c -1.25,0 -2.12375,-1.00125 -2.12375,-2.0025 0,-1.00125 0.87375,-2.00125 2.12375,-2.00125 1.00125,0 1.875,1 1.875,2.00125 0,1.00125 -0.87375,2.0025 -1.875,2.0025 z" />
    <path
       inkscape:connector-curvature="0"
       id="path428"
       style="fill:#000000;fill-opacity:1;fill-rule:evenodd;stroke:none"
       d="m -17.117321,476.92345 0,-10.49875 c 0,-1.25 -0.625,-2.12375 -1.7475,-2.12375 -0.7525,0 -1.12875,0.24875 -1.62625,0.4975 l 0,12.125 -3.50125,0 0,-14 c 1.25,-0.74625 3.00375,-1.1225 5.1275,-1.1225 3.50125,0 5.37625,1.62625 5.37625,4.62375 l 0,10.49875 -3.62875,0 z" />
    <path
       inkscape:connector-curvature="0"
       id="path430"
       style="fill:#000000;fill-opacity:1;fill-rule:evenodd;stroke:none"
       d="m -7.3660714,477.42595 c -1.875,0 -2.9974996,-0.5025 -3.7499996,-1.25 l 0.7525,-2.74875 c 0.4974996,0.4975 1.3712496,0.87375 2.3724996,0.87375 0.87375,0 1.62625,-0.625 1.62625,-1.3775 0,-1.1225 -0.625,-1.49875 -1.75375,-2.3725 -1.62,-1.1275 -2.8699996,-2.5 -2.8699996,-4.375 0,-2.6275 1.7474996,-4.375 4.2474996,-4.375 1.49875,0 2.74875,0.37625 3.75,1.1225 l -1.00125,2.25125 c -0.37625,-0.37625 -1.00125,-0.87375 -1.99625,-0.87375 -0.7525,0 -1.3775,0.87375 -1.3775,1.49875 0,1.00125 0.7525,1.62625 2.0025,2.6275 1.62,1.25 2.74875,2.24625 2.74875,4.49625 0,2.37875 -2.0025,4.5025 -4.75125,4.5025 z" />
    <path
       inkscape:connector-curvature="0"
       id="path432"
       style="fill:#000000;fill-opacity:1;fill-rule:evenodd;stroke:none"
       d="m 7.2576786,476.92345 -3.75,-7.6225 -0.12125,0 0,7.6225 -3.62875003,0 0,-20.625 3.62875003,-0.99625 0,13.49625 0.12125,0 3.75,-6.62125 3.6287504,0 -4.2537504,6.62125 4.3750004,8.125 -3.7500004,0 z" />
    <path
       inkscape:connector-curvature="0"
       id="path434"
       style="fill:#000000;fill-opacity:1;fill-rule:evenodd;stroke:none"
       d="m 19.011429,469.30095 c -2.5,0.1225 -3.38,1.00125 -3.38,3.125 0,1.49875 0.50375,2.25125 2.13,2.25125 0.37,0 0.995,0 1.25,-0.1275 l 0,-5.24875 z m -1.3775,8.125 c -3.6225,0 -5.37625,-1.875 -5.37625,-5 0,-3.6275 2.74875,-4.75125 6.75375,-5.37625 l 0,-0.4975 c 0,-1.3775 -0.88,-2.25125 -2.25125,-2.25125 -1.12875,0 -2.37875,0.4975 -3.125,0.87375 l -0.625,-2.25125 c 0.74625,-0.4975 2.25125,-1.1225 4.62375,-1.1225 2.74875,0 4.62375,1.3725 4.62375,5.37625 l 0,8.99875 c -0.87375,0.4975 -2.5,1.25 -4.62375,1.25 z" />
    <path
       inkscape:connector-curvature="0"
       id="path436"
       style="fill:#000000;fill-opacity:1;fill-rule:evenodd;stroke:none"
       d="m -79.617321,481.4247 3.99875,0 0,18.99875 -3.99875,0 0,-18.99875 z" />
    <path
       inkscape:connector-curvature="0"
       id="path438"
       style="fill:#000000;fill-opacity:1;fill-rule:evenodd;stroke:none"
       d="m -65.491071,500.42345 0,-10.4975 c 0,-1.3775 -0.625,-2.0025 -1.875,-2.0025 -0.7525,0 -1.1225,0 -1.49875,0.1275 l 0,12.3725 -3.62875,0 0,-14.2475 c 1.25,-0.625 3.00375,-1.00125 5.1275,-1.00125 3.75,0 5.37625,1.49875 5.37625,4.75125 l 0,10.4975 -3.50125,0 z" />
    <path
       inkscape:connector-curvature="0"
       id="path440"
       style="fill:#000000;fill-opacity:1;fill-rule:evenodd;stroke:none"
       d="m -55.867321,500.55095 c -1.7475,0 -2.87625,-0.37625 -3.75,-1.1275 l 1.00125,-2.6225 c 0.37625,0.37625 1.25,1.00125 2.25125,1.00125 0.87375,0 1.49875,-0.625 1.49875,-1.3775 0,-1.25 -0.37625,-1.62625 -1.7475,-2.74875 -1.3775,-1.00125 -2.755,-2.12375 -2.755,-4.2525 0,-2.6225 1.75375,-4.24875 4.12625,-4.24875 1.75375,0 3.00375,0.37625 3.75,1.00125 l -0.74625,2.3725 c -0.37625,-0.24875 -1.25,-0.625 -2.0025,-0.625 -1.00125,0 -1.62625,0.625 -1.62625,1.3775 0,1.00125 0.7525,1.3725 2.25125,2.3725 1.3775,1.25 2.5,2.25125 2.5,4.5025 0,2.6225 -1.875,4.375 -4.75125,4.375 z" />
    <path
       inkscape:connector-curvature="0"
       id="path442"
       style="fill:#000000;fill-opacity:1;fill-rule:evenodd;stroke:none"
       d="m -44.113571,500.55095 c -2.37875,0 -3.75,-1.7525 -3.75,-4.375 l 0,-8.125 -1.505,0 0,-2.6275 1.505,0 0,-3.24625 3.495,-1.25 0,4.49625 2.0025,0 0,2.6275 -2.0025,0 0,7.74875 c 0,1.3775 0.625,2.0025 1.12875,2.0025 0.37625,0 0.625,-0.25375 0.87375,-0.25375 l 0,2.62625 c -0.24875,0 -1.00125,0.37625 -1.7475,0.37625 z" />
    <path
       inkscape:connector-curvature="0"
       id="path444"
       style="fill:#000000;fill-opacity:1;fill-rule:evenodd;stroke:none"
       d="m -39.866071,485.42345 3.6225,0 0,15 -3.6225,0 0,-15 z m 1.62625,-2.3725 c -1.00125,0 -1.75375,-0.87375 -1.75375,-2.12375 0,-1.00125 0.7525,-1.75375 1.75375,-1.75375 1.1225,0 1.99625,0.7525 1.99625,1.75375 0,1.25 -0.87375,2.12375 -1.99625,2.12375 z" />
    <path
       inkscape:connector-curvature="0"
       id="path446"
       style="fill:#000000;fill-opacity:1;fill-rule:evenodd;stroke:none"
       d="m -28.743571,500.55095 c -2.3725,0 -3.495,-1.7525 -3.495,-4.375 l 0,-8.125 -1.505,0 0,-2.6275 1.505,0 0,-3.24625 3.495,-1.25 0,4.49625 2.0025,0 0,2.6275 -2.0025,0 0,7.74875 c 0,1.3775 0.37625,2.0025 1.12875,2.0025 0.24875,0 0.625,-0.25375 0.87375,-0.25375 l 0,2.62625 c -0.4975,0 -1.00125,0.37625 -2.0025,0.37625 z" />
    <path
       inkscape:connector-curvature="0"
       id="path448"
       style="fill:#000000;fill-opacity:1;fill-rule:evenodd;stroke:none"
       d="m -19.241071,500.55095 c -3.37375,0 -5.1275,-1.3775 -5.1275,-5.1275 l 0,-10 3.50125,0 0,10.37625 c 0,1.25 0.625,2.0025 1.875,2.0025 0.37625,0 0.87375,-0.25375 1.25,-0.37625 l 0,-12.0025 3.62875,0 0,14 c -1.00125,0.75125 -2.755,1.1275 -5.1275,1.1275 z" />
    <path
       inkscape:connector-curvature="0"
       id="path450"
       style="fill:#000000;fill-opacity:1;fill-rule:evenodd;stroke:none"
       d="m -6.6135714,500.55095 c -2.37875,0 -3.5012496,-1.7525 -3.5012496,-4.375 l 0,-8.125 -1.3775,0 0,-2.6275 1.3775,0 0,-3.24625 3.5012496,-1.25 0,4.49625 1.7475,0 0,2.6275 -1.7475,0 0,7.74875 c 0,1.3775 0.4975,2.0025 1.25,2.0025 0.12125,0 0.4975,-0.25375 0.4975,-0.25375 l 0,2.62625 c -0.1275,0 -0.7525,0.37625 -1.7475,0.37625 z" />
    <path
       inkscape:connector-curvature="0"
       id="path452"
       style="fill:#000000;fill-opacity:1;fill-rule:evenodd;stroke:none"
       d="m 2.5064286,487.6747 c -1.1225,0 -2.24500003,1.74875 -2.24500003,4.375 l 4.24750003,-0.37625 c 0,-2.3725 -0.625,-3.99875 -2.0025,-3.99875 z m -1.74750003,6.875 c 0.1275,2.25125 1.00125003,3.2525 2.74875003,3.2525 1.62625,0 2.6275,-0.37625 3.125,-0.7525 l 0.87375,2.37375 c -1.1225,0.75125 -2.3725,1.1275 -4.375,1.1275 -3.99875003,0 -5.87375,-2.74875 -5.87375,-7.6275 0,-4.62375 1.87499997,-7.74875 5.50375,-7.74875 3.6225,0 5.4975,3.125 5.37,8.37375 l -7.37250003,1.00125 z" />
    <path
       inkscape:connector-curvature="0"
       id="path454"
       style="fill:#000000;fill-opacity:1;fill-rule:evenodd;stroke:none"
       d="m 15.006429,500.55095 c -2.3725,0 -3.75,-1.7525 -3.75,-4.375 l 0,-8.125 -1.4987504,0 0,-2.6275 1.4987504,0 0,-3.24625 3.50125,-1.25 0,4.49625 2.0025,0 0,2.6275 -2.0025,0 0,7.74875 c 0,1.3775 0.50375,2.0025 1.12875,2.0025 0.4975,0 0.625,-0.25375 0.87375,-0.25375 l 0,2.62625 c -0.24875,0 -1.00125,0.37625 -1.75375,0.37625 z" />
    <path
       inkscape:connector-curvature="0"
       id="path456"
       style="fill:#000000;fill-opacity:1;fill-rule:evenodd;stroke:none"
       d="m -41.116071,400.04845 c -0.625,0.12625 -8.2525,-0.49875 -11.875,0 l 0,-0.875 c 5.24875,-0.375 11.875,0 11.875,0 0,0 0.1275,0.37625 0,0.875 z m -3.6225,4.00375 c -0.625,0 -0.88,0.12125 -1.00125,0.625 -0.24875,-0.50375 -0.24875,-0.50375 -0.7525,-0.625 -0.87375,0 -1.25,0.12125 -1.37125,0.625 0,-0.50375 -0.50375,-0.625 -0.88,-0.87875 -0.995,0 -0.995,0.375 -1.37125,0.87875 0,0 -0.1275,-0.87875 -1.00125,-0.87875 -0.625,0 -1.00125,0.375 -1.1225,1 -0.255,-0.375 -0.255,-0.74625 -1.00125,-0.74625 -0.37625,0 -1.00125,0.12125 -1.00125,0.74625 0,0 -0.37625,-0.625 -0.87375,-0.625 0,-0.12125 -0.37625,-2.5 -0.87375,-3.125 0,-0.24875 0.12125,-0.24875 0.74625,0 0.625,0.37625 1.00125,2.6275 1.00125,2.6275 l 0.37625,-0.24875 c 0,0 0,-1.3775 -0.37625,-2.37875 0.24875,0 0.625,-0.24875 0.7525,0.25 0.4975,0.375 0.625,1.7525 0.625,1.7525 l 0.37,-0.24875 c 0,0 0,-1.12875 -0.12125,-2.0025 0.12125,0 0.37625,0 0.74625,0.24875 0.1275,0.37625 0.37625,1.3775 0.37625,1.3775 l 0.37625,-0.1275 c 0,0 -0.1275,-0.87375 -0.1275,-1.49875 l 7.87625,0 c 0,0 -1.00125,1.00125 -1.37125,3.2525 z m -1.75375,4.12125 c -0.37625,0.375 -0.625,0.12625 -0.625,0.12625 0,0 1.00125,-0.625 1.49875,-2.9975 0.255,-0.87875 0.88,-0.87875 1.12875,-0.625 1.00125,0.625 -1.49875,3.24625 -2.0025,3.49625 z m -5,6.25 c 0,0 -1.00125,-1.25 -0.24875,-2.24625 1.49875,-1.50375 4.62375,-1.50375 5,-3.50125 0.24875,0 1.00125,-0.5025 1.1225,-0.5025 0.50375,3.5 -5.12125,3.125 -5.87375,6.25 z m 3.37375,1.7525 c 0.37625,0.7475 2.37875,0.7475 2.0025,1.25 l -7.5,0 0.1275,-0.24875 c 3.6225,-1.00125 1.7475,-3.37875 4.375,-4.375 l 0,2.24625 c -0.255,0.5025 0.12125,1 -1.62625,1.7525 0,0 2.25125,-0.24875 2.62125,-0.625 z m -0.37,-6.25 c 0,0 -1.00125,0.625 -2.37875,0.7475 0,-0.1225 0.1275,-0.7475 0.1275,-0.7475 l 2.25125,0 z m 1.99625,-5.5025 c 0.50375,0.25375 0.37625,2.875 -1.37125,3.87625 l -0.625,0 c 0.625,-1.25 0.74625,-3.87625 1.99625,-3.87625 z m -2.62125,3.87625 -0.7525,0 c 0,-1.62625 0,-2.62625 0.37625,-3.25125 0.12125,-0.37125 0.74625,-0.99625 1.37125,-0.37125 0.255,0.74625 -0.625,2.62125 -0.995,3.6225 z m -3.00375,1.00125 c 0,0 0,-0.37625 -0.12125,-0.625 1.7475,0.24875 3.125,0.24875 4.8725,0 0,0.24875 -0.37625,0.625 -0.37625,0.625 -1.00125,0.24875 -4.12625,0.24875 -4.375,0 z m 0.37625,-3.8775 c 0,-1 0.87375,-1.25 1.25,-1 0.625,0.375 0,3.75 0,3.87625 l -0.625,0 c 0,0 -0.7525,-2.00125 -0.625,-2.87625 z m -1.875,0.50375 c 0,-0.625 0,-1.25 0.625,-1.25 0.87375,-0.25375 1.1225,2.24625 1.49875,3.6225 l -0.625,0 c 0,0 -1.1225,-0.37625 -1.49875,-2.3725 z m 0.1275,1.99625 c -0.1275,0 -1.00125,-0.625 -1.62625,-1.875 -0.1275,-0.625 -0.37625,-1 -0.1275,-1.25 0.7525,-0.625 1.25,2.125 1.75375,3.125 z m -7.13,-8.125 c 0,-1.37125 0.37625,-2.62125 1.505,-3.37375 1.7475,-1.62625 3.24625,-1.875 7.9975,-0.625 0.87375,0.1275 1.25,-0.24875 1.7475,0 0.37625,0 0.625,0 0.88,0.1275 l 0,0.24875 c 0,0 -0.625,-0.24875 -1.00125,0 0,0 -0.24875,0.24875 0.12125,0.37625 0.625,-0.37625 0.88,-0.1275 1.00125,0 -0.625,0.24875 -0.12125,0.625 -0.12125,0.625 -1.62625,0 -2.6275,-0.625 -3.75,-1.00125 -1.3775,-0.625 -3.75,-0.625 -5.1275,0 -2.87625,1.1225 -2.9975,5.4975 0.7525,5.625 0.24875,0.4975 0.37,1.00125 0.625,1.62625 -3.75,-0.1275 -4.63,-3.62875 -4.63,-3.62875 z m 3.38,0.875 c 0.24875,0.12625 0.24875,0.375 0.37,0.625 -0.4975,0 -0.995,-0.25 -1.37125,-0.625 l 1.00125,0 z m -1.00125,-1.5 0.625,0 c 0,0.37625 0,0.625 0.24875,1.00125 -0.24875,0 -0.625,0 -0.625,-0.12625 0,-0.25 -0.24875,-0.49875 -0.24875,-0.875 z m 1.25,0 c 0.12125,0 0.625,-0.24875 0.625,0 0.12125,0.25 0.12125,0.625 0.12125,1.00125 l -0.74625,0 0,-1.00125 z m 1.7475,0 c 0.1275,0.25 0.1275,0.625 0.1275,0.875 l -0.7525,0 c 0.24875,-0.25 0,-0.625 0,-0.875 l 0.625,0 z m 1.3775,0 0,0.875 -0.625,0 c -0.1275,-0.25 -0.1275,-0.625 -0.1275,-0.875 l 0.7525,0 z m 13.24625,0 c -0.12125,-0.74625 -10.4975,-0.625 -13.99875,-0.625 -1.25,0 -3.99875,0.25 -3.99875,0.25 0,0 0.7525,-3.2475 5.625,-2.37375 1.875,0.37625 3.125,1.49875 5.4975,1.3775 l 0,-0.50375 c -0.24875,-0.12125 -0.87375,0 -0.87375,-0.375 0.625,-0.37125 2.74875,0.87875 3.00375,0.87875 -1.12875,-0.625 -1.00125,-0.625 -1.00125,-0.625 0,0 0.74625,-0.37625 1.25,0.12125 -0.50375,-0.87375 -1.25,-0.12125 -2.0025,-0.375 -0.37625,0 -0.625,-0.1225 -1.00125,-0.1225 0.37625,-0.37625 0.7525,0 1.00125,0 0,-0.24875 0,0 0.24875,-0.24875 -0.24875,-0.7525 -2.62125,-1.3775 -3.87125,-1.00125 -0.37625,0 -1.875,-0.625 -2.5,-0.7525 -2.0025,-0.625 -5,-0.625 -6.49875,0.625 -1.75375,1.12875 -3.00375,4.375 -1.25,6.875 0.995,1.12875 2.74875,1.75375 5,1.875 -0.255,0.25 -0.255,0.50375 0,1.12875 0.12125,1.1225 0.4975,1.99625 1.7475,2.87125 0.24875,0.12625 1.00125,0.375 1.25,0.75125 0.1275,0.37625 0.1275,0.625 0.37625,1.00125 l 1.1225,0 0,1.00125 c 0,0 -1.1225,0.37125 -1.37125,0.99625 -0.1275,0.375 -1.00125,2.12875 1.37125,2.875 -0.24875,0.7525 -1.00125,1.3775 -1.7475,1.75375 -0.625,0 -1.00125,0 -1.3775,0.37125 -0.24875,0.25375 -0.24875,0.87875 -0.24875,1.1275 l 9.5025,0 c 0,-0.625 -0.255,-1.1275 -0.7525,-1.25 -1.00125,-0.37625 -1.00125,-0.24875 -1.7475,-1.00125 0.995,-1.00125 0,-2.00125 -0.88,-2.25125 l 0,-1.25 c 0,0 0.88,-0.375 1.00125,-0.625 1.00125,-0.375 1.62625,-1 2.0025,-1.37125 0.625,-0.625 0.625,-1.75375 0.37625,-2.37875 2.12375,-2.62125 0.995,-3.5 0.995,-3.75 0.37625,-1.1225 0.88,-3.125 2.37875,-3.5 0.625,-0.25 1.62625,-0.25 1.7475,-0.25 -0.12125,-0.375 -0.12125,-1 -0.37625,-1.25 z" />
    <path
       inkscape:connector-curvature="0"
       id="path458"
       style="fill:#000000;fill-opacity:1;fill-rule:evenodd;stroke:none"
       d="m -1.2435714,398.79845 c -1.99625,-3.8725 -6.37125,-2.87125 -6.875,-2.37375 -1.7475,0.37625 -3.6224996,2.99875 -3.6224996,5.37625 -2.3725,-2.3775 -1.1225,-7.25125 -1.1225,-7.3775 l 0,-1.12375 c 0.625,-0.12625 0.625,-0.12625 0.87375,-0.625 1.49875,-2.25125 0.24875,-2.3725 -0.50375,-1.37625 0,-1.3725 -0.74625,-0.875 -1.25,-0.625 0,-0.99625 -0.625,-0.625 -0.74625,-0.25 -0.37625,-1.625 -1.62625,-0.12125 -2.0025,0.25 -1.25,-0.37125 -1.99625,0.25375 -1.99625,0.25375 1.25,0.37125 1.25,0.4975 1.25,0.4975 -0.255,0.49875 -0.625,0.625 -1.25,0.625 0,0.24875 0.995,0.49875 1.62,-0.12625 0.37625,-0.875 -0.625,-0.99625 -0.625,-0.99625 0.625,0 1.3775,0.12125 1.62625,0.12125 1.3775,0.37625 2.6275,1.00125 2.6275,2.5 0,0.625 -0.24875,1.3775 -0.50375,1.875 -0.12125,1.12875 -0.12125,3.125 0,4.12625 0.50375,1.25 2.0025,4.62375 2.6275,3.2525 0.37625,-0.7525 0.37625,-1.75375 1.00125,-3.37875 0.6249996,-1.875 2.7487496,-3.2475 5.2487496,-2.87125 4.62374997,0.99625 3.99874997,4.74625 3.87749997,5.12125 l -0.50374997,0.7525 c 0,0 0.87374997,-3.0025 -1.7475,-3.6275 0.74625,0.75125 1.25,3.6275 -0.1275,4.8775 1.12875,-2.25125 0.1275,-4.8775 -2.25125,-5.5025 1.00125,1 2.25125,3.25125 0.7525,5.12625 0.24875,-1.62625 0.24875,-3.87625 -2.5,-4.50125 3.99875,2.5 1.3775,6.625 1.3775,6.625 3.37375,-3.37375 1.7475,-5.87375 1.7475,-5.87375 0,0 1.7475,1.49875 -0.1275,5.24875 2.87625,-1.49875 2.13,-4.62375 2.13,-4.62375 0.995,0.87375 0.24875,3.2525 0.24875,3.2525 0.12125,0 0.74625,-0.7525 1.12249997,-1.75375 0.24875,-1 0,-2.25 -0.37624997,-2.875 z" />
    <path
       inkscape:connector-curvature="0"
       id="path460"
       style="fill:#000000;fill-opacity:1;fill-rule:evenodd;stroke:none"
       d="m -16.116071,392.29845 c 0.24875,0 0.7525,-0.375 0.7525,-0.375 -0.255,-0.25 -0.50375,-0.49875 -1.12875,-0.49875 0,0.24875 0.24875,0.87375 0.37625,0.87375 z" />
    <path
       inkscape:connector-curvature="0"
       id="path462"
       style="fill:#000000;fill-opacity:1;fill-rule:evenodd;stroke:none"
       d="m -13.118571,416.5522 0.255,0 c 0,0.37125 -0.255,0.625 -0.255,0.625 0.625,0 0.88,-0.25375 0.88,-0.37625 0,-0.625 -0.255,-0.625 -0.625,-0.7525 0,0 0.37,-0.4975 0.37,-0.625 0.255,-0.24875 -0.24875,-1 -0.24875,-1.37125 0.24875,-0.50375 0.50375,-0.50375 0.625,-0.625 -0.12125,-0.25375 -0.37625,-0.25375 -0.37625,-0.25375 -0.37,-1.62125 0.50375,-2.24625 0.7525,-3.62375 0.7525,0 1.8749996,0 2.3724996,-0.37625 -1.3712496,0 -3.7499996,-0.625 -4.4962496,-1 -1.49875,-0.49875 -3.99875,-3.375 -4.25375,-4 -0.4975,-0.87375 -1.25,-2.875 -0.74625,-5 0.37625,-1.625 2.25125,-5 2.3725,-5.625 -0.12125,-0.87375 -1.00125,-1 -1.25,-1 0,0.12625 0,0.12625 0.24875,0.12625 -2.3725,1.12375 -1.7475,2.74875 -0.995,2.74875 0,0 -0.1275,0.37625 0.37,0.50375 -0.12125,0.4975 -1.49875,2.87125 -1.7475,4.49625 -0.1275,4.625 2.3725,6.00125 2.74875,6.62625 1.00125,1.62625 -0.37625,2.87625 -1.00125,2.87625 -0.74625,0.24875 -1.25,0.37625 -1.7475,0.24875 -0.37625,0 -0.625,-0.4975 -1.00125,-0.4975 -0.625,0 -0.625,0.4975 -1.1225,0.87375 0,0 1.00125,-0.625 1.00125,-0.24875 0,0.24875 -0.50375,0.625 -0.50375,1.25 0.50375,0 0.24875,-0.25375 0.24875,-0.50375 0.255,-0.12125 0.625,-0.375 0.7525,-0.4975 0.24875,0 0.4975,0 0.625,0.1225 l 0.24875,0 c 0,0.625 -0.24875,1 -0.625,1.25 0.625,0 1.00125,-0.37125 1.00125,-0.99625 1.1225,0 1.7475,0 2.3725,0.37125 0,-0.25 0,-0.37125 0.255,-0.625 0.37,-0.1225 0.74625,-0.1225 1.25,-0.37125 0.24875,-0.1275 0.4975,-0.37625 0.4975,-0.37625 l 0.1275,0 c 1.875,1.3725 0.87375,5.24875 0.625,5.4975 l 0.24875,0 c 0,0 0.12125,0 0.12125,0.1275 0.88,-1.49875 0.625,-3.99875 0.255,-5 -0.37625,-0.87375 -2.13,-2.3775 -2.755,-3.0025 l 0,-0.25 c 0.1275,0.37625 2.37875,1.875 4.005,2.0025 0,0.87375 -0.625,2.3725 -0.625,2.3725 l 0,3.50125 c -0.255,0.24875 -0.37625,0.24875 -0.625,0.625 -0.255,0 -0.255,-0.24875 -0.255,-0.24875 -0.12125,-0.1275 -0.37,-0.1275 -0.37,-0.1275 -0.255,0 -0.37625,0.1275 -1.00125,0 -0.24875,0.1275 -0.37625,0.37625 -0.50375,0.625 -0.625,0 -1.49875,-0.4975 -2.245,-0.24875 -0.7525,0.37625 -2.0025,1.62625 -2.0025,1.62625 0,0 -0.1275,0.37625 0,0.625 l 1.7475,0 c 0.37625,0 2.25125,0 2.755,-0.24875 0.4975,0 1.875,0 1.49875,-0.25375 -0.50375,-0.1225 -2.37875,-0.1225 -2.37875,-0.1225 l -1.875,0 c 0.625,-1.00125 2.25125,-1.00125 2.5,-1.00125 l 0,0.37625 c 0.1275,-0.37625 0.50375,-0.37625 0.7525,-0.7525 0.1275,0 0.1275,0 0.37625,0.1275 -0.24875,0.37625 0.37625,1.00125 0.37625,1.00125 0.24875,-0.25375 0,-0.625 0,-0.7525 0.24875,0 0.37,-0.24875 0.625,-0.24875 0.24875,0 0.24875,0.24875 0.37,0.37625 z" />
    <path
       inkscape:connector-curvature="0"
       id="path464"
       style="fill:#000000;fill-opacity:1;fill-rule:evenodd;stroke:none"
       d="m -8.1185714,401.04845 c 0.50375,0.625 1.00125,0.625 1.3775,1.62625 0.87375,1.49875 -0.37625,2.74875 -0.37625,2.99875 1.875,-1.5 1.75375,-5 -0.625,-5.49875 0.37625,0.24875 1.12875,0.625 1.3775,2.12375 0,0 -0.7525,-1.25 -1.75375,-1.25 z" />
    <path
       inkscape:connector-curvature="0"
       id="path466"
       style="fill:#000000;fill-opacity:1;fill-rule:evenodd;stroke:none"
       d="m -16.492321,403.79845 c -0.12125,0 -1.37125,-1.3725 -0.74625,-4.375 0,0 -1.75375,2.875 0.74625,4.375 z" />
    <path
       inkscape:connector-curvature="0"
       id="path468"
       style="fill:#000000;fill-opacity:1;fill-rule:evenodd;stroke:none"
       d="m -10.491071,407.92345 c -0.4975,0.25 -2.25125,0.37625 -4.2475,-1.875 0,0 1.49875,3.125 4.2475,1.875 z" />
    <path
       inkscape:connector-curvature="0"
       id="path470"
       style="fill:#000000;fill-opacity:1;fill-rule:evenodd;stroke:none"
       d="m -14.738571,404.42345 c 0,0.25375 1.49875,4.125 4.8724996,2.875 -0.2487496,0 -2.6274996,0.37625 -4.8724996,-2.875 z" />
    <path
       inkscape:connector-curvature="0"
       id="path472"
       style="fill:#000000;fill-opacity:1;fill-rule:evenodd;stroke:none"
       d="m -10.491071,405.67345 c 0.1275,0.25375 1.8749996,1.625 1.2499996,5.25375 0,0 1.875,-3.62875 -1.2499996,-5.25375 z" />
    <path
       inkscape:connector-curvature="0"
       id="path474"
       style="fill:#000000;fill-opacity:1;fill-rule:evenodd;stroke:none"
       d="m -9.8660714,405.3022 c 0.37625,0.12125 2.25125,1.1225 2.12375,5 0,0 1.3775,-4.00375 -2.12375,-5 z" />
    <path
       inkscape:connector-curvature="0"
       id="path476"
       style="fill:#000000;fill-opacity:1;fill-rule:evenodd;stroke:none"
       d="m -9.7385714,404.6772 c 0.24875,0 2.74875,0.74625 2.9975,4.62375 0,-0.1275 0.7525,-4.2525 -2.9975,-4.62375 z" />
    <path
       inkscape:connector-curvature="0"
       id="path478"
       style="fill:#000000;fill-opacity:1;fill-rule:evenodd;stroke:none"
       d="m -15.867321,403.67595 c 0,0 -0.74625,-1.00125 -0.625,-3.2525 0,0 -1.00125,2.0025 0.625,3.2525 z" />
    <path
       inkscape:connector-curvature="0"
       id="path480"
       style="fill:#000000;fill-opacity:1;fill-rule:evenodd;stroke:none"
       d="m -9.8660714,416.4247 c -0.8737496,0 -1.1224996,0.37625 -1.1224996,0.37625 0.625,0.1225 1.6199996,0.1225 2.3724996,0.625 0.24875,0 0.4975,0.1225 0.4975,0.1225 0,0 -0.4975,-1.12375 -1.7475,-1.12375 z" />
    <path
       inkscape:connector-curvature="0"
       id="path482"
       style="fill:#000000;fill-opacity:1;fill-rule:evenodd;stroke:none"
       d="m -13.488571,417.54845 0,0.25375 c 0.37,0 1.37125,0.24875 1.7475,0.24875 1.3775,0 3.1249996,-0.24875 3.1249996,-0.5025 l 0.4975,0 c -0.87375,-0.1225 -1.37125,-0.1225 -2.2449996,-0.1225 -0.37625,0.1225 -2.5,0.1225 -3.125,0.1225 z" />
    <path
       inkscape:connector-curvature="0"
       id="path484"
       style="fill:#000000;fill-opacity:1;fill-rule:evenodd;stroke:none"
       d="m -13.864821,415.1747 -0.24875,0.24875 0.24875,0.1275 0.12125,0 0,-0.1275 -0.12125,-0.24875 z" />
    <path
       inkscape:connector-curvature="0"
       id="path486"
       style="fill:#000000;fill-opacity:1;fill-rule:evenodd;stroke:none"
       d="m -25.114821,419.17345 c -0.87375,0.625 -3.2525,1.75375 -6.12875,1.75375 -2.9975,0 -2.9975,1.49875 -2.245,1.99625 l 0,0.875 -1.75375,0 c 0,0 0.7525,-0.49875 0.625,-0.625 0,-0.25 -1.49875,-0.49875 -1.49875,-0.49875 0,-0.24875 1.25,-0.37625 1.49875,-0.625 0,-0.12625 -1.62625,-1.00125 -1.62625,-1.00125 0.1275,-0.12125 2.0025,0.37625 2.13,0.25 0,-0.37125 -1.12875,-1.5 -1.12875,-1.62125 0.7525,0.12125 1.875,0.74625 1.875,0.74625 0.24875,-0.12125 -0.4975,-1.625 -0.4975,-1.625 0.37625,0.25375 2.12375,1.25 2.12375,1.25 0.24875,-0.25 -0.4975,-1.5 -0.4975,-1.5 0.37,0.25 2.5,1.75375 2.74875,1.5 0.37625,0 -1.00125,-1.62125 -1.00125,-1.875 0.4975,0.375 3.2525,1.50375 3.2525,1.25 0.24875,-0.25 -1.505,-1.3725 -1.505,-1.62125 1.00125,0.24875 3.38,0 3.38,-0.25375 0,-0.1225 -2.5,-0.7475 -2.5,-0.7475 0,-0.24875 2.87,-1.00125 2.74875,-1.3775 -0.625,-0.24875 -3.00375,0 -3.00375,0 0,-0.375 2.13,-1.625 2.0025,-1.625 0,-0.25 -2.25125,0.25375 -2.3725,0.25375 l 0,-1.875 c 1.49875,0 3.495,0.625 4.2475,1.62125 1.25,1.7525 0.625,4.375 -0.87375,5.375 z m -6.12875,2.25125 2.13,-0.12625 c 0,0.75125 0.24875,2.75375 -0.255,3.37875 -0.12125,0.87375 -1.7475,2.62125 -1.7475,2.62125 0,-1.625 -0.1275,-5.87375 -0.1275,-5.87375 z m 3.125,3.62375 c 0,-0.1225 -0.37,-0.625 -0.24875,-0.7475 0,-0.5025 0.625,-0.87375 0.625,-1.00125 -0.12125,-0.12625 -0.625,-0.12625 -0.74625,-0.12625 l 0,-0.7475 c 0.74625,0 1.7475,0 1.49875,1.00125 0,0.87375 -1.49875,2.5 -2.5,3.75 -0.625,0.625 -1.75375,1.875 -1.75375,1.875 0,-0.50375 0,-0.7525 0.1275,-0.87875 0,-0.25 0.625,-0.625 0.7525,-0.875 0,-0.12125 -0.1275,-0.12125 -0.1275,-0.12125 0.1275,-0.50375 1.00125,-0.625 1.1225,-0.87875 l 0,-0.625 c 0,-0.37125 1.25,-0.625 1.25,-0.625 z m -2.87,8.125 c -0.1275,0 -0.1275,-2.99875 -0.1275,-3.62375 0.37625,-0.4975 2.25125,-2.3725 2.25125,-2.3725 l 0,5.37125 c -0.50375,0.625 -2.12375,0.87875 -2.12375,0.625 z m -0.88,-0.1225 -0.87375,0 c 0.24875,-1.7525 0.24875,-3.2525 -0.12125,-4.8775 0,-0.25 0.12125,-0.99625 0.12125,-1.25 0,-0.37125 -0.12125,-0.625 -0.12125,-0.875 l 0,-0.74625 c 0.12125,-0.87875 0.12125,-3.37875 0.12125,-3.37875 0,0 0.24875,-0.49875 1.00125,-0.49875 0,0 0.24875,7.87625 -0.1275,11.62625 z m 0.1275,-15.625 c -0.37625,0 -0.4975,0 -1.00125,0.1225 0,-1.3725 0,-7.6225 0.24875,-7.99875 0.255,-0.24875 0.625,-0.24875 0.625,-0.24875 0,2.9975 0.1275,5.1225 0.1275,8.125 z m 2.6275,-0.625 0,0.1225 c -0.37625,0.25375 -1.62625,0.5025 -2.37875,0.5025 l 0,-8.2525 c 0.7525,0 2.12375,-0.24875 2.37875,-0.24875 0,1.3775 0.24875,7.6275 0,7.87625 z m -5.7525,-2.6275 c 0.24875,-0.625 0.37625,-1 0.37625,-1.37125 l -3.50125,0 c 0.37625,-0.25375 1.7475,-0.625 1.7475,-0.87875 0,-0.37125 -2.3725,-1.3725 -2.62125,-1.74875 1.00125,0.1275 2.3725,0.49875 2.62125,0.37625 0,-0.24875 -1.37125,-2.3775 -1.37125,-2.3775 0.74625,0.375 2.12375,1.50375 2.3725,1.50375 0.24875,-0.1275 -0.87375,-2.37875 -0.87375,-2.37875 0.625,0.25 1.875,1.62625 2.0025,1.3775 0.24875,0 -0.1275,-2.0025 -0.1275,-2.25125 0.4975,0.625 1.49875,1.875 1.7475,1.74875 0.255,0 -0.24875,-2.24625 -0.24875,-2.24625 1.00125,0.4975 2.25125,1.99625 2.6275,1.99625 0.12125,-0.24875 -0.625,-1.99625 -0.625,-1.99625 0.74625,0.12125 2.87625,1.7475 3.125,1.62125 0.24875,-0.625 -1.25,-2.125 -1.25,-2.125 0.74625,0 3.37375,0.625 3.50125,0.25 0,-0.37125 -2.5,-1.5 -2.5,-1.5 0.4975,-0.12125 2.9975,-0.87375 2.87,-1.1225 -0.37,-0.37625 -3.37375,0 -3.125,-0.24875 0,-0.37625 1.75375,-1.3775 1.75375,-1.50375 -0.37625,-0.49875 -1.49875,0.12625 -2.37875,0.12625 0,-1.00125 0.255,-1.875 0.255,-2.62625 1.7475,0.12625 3.495,1 4.12,2.5 1.3775,2.75375 -0.24875,5.625 -2.245,6.37625 -1.75375,0.87375 -4.5025,0.625 -6.505,1.00125 -1.7475,0.625 -1.37125,2.25125 -0.74625,2.6225 l 0,2.5 c -0.24875,0.25375 -1.00125,0.375 -1.00125,0.375 z m 2.9975,-9.49625 c -0.24875,0 -0.625,0.12125 -0.87375,0.12125 0,-1.49875 0.24875,-7.25 0,-7.62125 1.00125,-0.25375 2.37875,-0.25375 3.62875,-0.37625 l 0,7.25125 c -0.255,0.12125 -1.875,0.625 -2.37875,0.625 0,-0.625 -0.24875,-5.1275 -0.24875,-5.1275 l -0.1275,0.87375 0,4.25375 z m -3.99875,-4.00375 c 0,0 1.3775,-1.12375 1.25,-1.25 0,-0.49875 -2.74875,-0.625 -2.9975,-0.875 -0.37625,-0.12125 1.7475,0 1.7475,-0.12125 0,-0.50375 -1.7475,-2.0025 -1.7475,-2.0025 0.74625,0.1275 1.99625,1.12375 2.3725,0.87375 0.24875,-0.12125 -1.37125,-2.74875 -1.37125,-2.74875 0.74625,0.625 1.99625,1.875 2.3725,1.62625 0.1275,0 -0.625,-2.25125 -0.625,-2.3775 0.625,0.12625 2.0025,2.00125 2.12375,1.7525 0.50375,-0.1275 -0.37625,-1.7525 -0.37625,-2.0025 0.88,0.37625 2.755,2.0025 3.00375,2.0025 0.37625,-0.37625 -1.12875,-2.25125 -1.12875,-2.25125 0.88,0.24875 4.005,1.49875 4.25375,1.25 0.24875,-0.12625 -2.5,-2.00125 -2.5,-2.00125 3.99875,-0.25 3.99875,-0.49875 3.99875,-0.49875 0.1275,-0.37625 -2.9975,-1.1225 -2.9975,-1.1225 1.7475,-0.625 2.12375,-1.00125 2.12375,-1.00125 -0.24875,-0.37625 -2.0025,-0.24875 -2.5,-0.24875 0,-0.625 -0.24875,-1.3775 -0.24875,-2.0025 1.7475,0 3.75,1.12375 4.12,2.6275 0.625,2.24625 0.1275,4.12125 -1.62,5.12125 -1.505,1.00125 -5.255,1.00125 -6.12875,1.12875 -1.7475,0.37125 -1.37125,1.37125 -0.74625,1.99625 0,0.875 0.12125,1.00125 0,1.5 0,0.375 -2.13,0.75125 -2.37875,0.625 z m 2.37875,-11.3725 c 0,-0.625 0.37,-1.25 0.12125,-1.25 -0.12125,-0.24875 -1.49875,0.625 -1.49875,0.625 0,-0.37625 1.00125,-1.25 0.625,-1.25 0,-0.1275 -1.875,0.24875 -2.25125,0.24875 0,-0.24875 1.25,-0.87375 1.25,-0.87375 0,-0.1275 -1.62625,-0.5025 -1.875,-0.7525 0.50375,0 1.00125,-0.24875 1.00125,-0.24875 0,-0.37625 -0.4975,-0.75125 -1.00125,-1.00125 0.50375,0 1.00125,-0.24875 1.00125,-0.24875 0.24875,-0.37625 -0.37625,-0.625 -0.4975,-1.00125 0,0 0.995,-0.87375 0.4975,-0.87375 -1.25,-0.75125 1.49875,-4.50125 1.62625,-4.50125 0.37625,0 0.625,0.12625 0.74625,0.375 0,0.625 -0.37,0.7525 -0.37,1.3775 -0.1275,0.4975 -0.37625,1.25 -0.37625,1.875 0.24875,-0.1275 0.37625,-0.37625 0.625,-0.625 -0.24875,-0.625 0,-0.7525 0.12125,-1.25 0.625,1.9975 -0.4975,3.6225 -1.49875,3.8725 -0.24875,0.375 -0.24875,0.12625 -0.24875,0.625 -0.1275,0.625 0,2.3775 2.6275,2.62625 l 0,1.74875 c -0.255,0.25375 -0.625,0.5025 -0.625,0.5025 z m 1.7475,-7.5 c 0.4975,-0.37625 0.7525,-0.625 1.25,-0.37625 0.7525,0.37625 0.7525,4.24875 0.7525,5.37625 0.24875,0.87375 0.37,4.2475 0.24875,4.8725 -0.625,0.25 -2.6275,0.37625 -2.6275,0.37625 0,0 -0.625,-8.50125 0.37625,-10.24875 z m 2.9975,29.75125 0,-2.6275 c 2.755,-0.37625 4.5025,-1.875 5.1275,-3.6225 2.0025,-6.3775 -4.2475,-6.875 -4.8725,-7.37875 -0.255,-0.375 0,-1 0,-1.37125 3.87125,-0.625 5.4975,-4.25375 3.37375,-7.5 -1.00125,-1.3775 -3.99875,-2.0025 -3.99875,-2.0025 -0.255,-1.875 -0.37625,-4.62375 -1.00125,-5.625 -0.37625,-0.4975 -0.625,-0.4975 -1.00125,-0.4975 -2.25125,0 -1.7475,5.4975 -1.7475,5.74625 -1.00125,0 -1.75375,-0.375 -2.13,-1.25 -0.4975,-0.87375 0,-1.49875 0,-1.49875 1.25,-0.12625 1.875,-1.7475 1.62625,-3.37375 0,-0.625 -0.12125,-1.3775 0,-1.62625 0.24875,-0.75125 -0.12125,-0.625 -0.4975,-1.00125 -0.24875,-0.24875 0,-0.375 0.12125,-0.625 0.625,-0.625 1.25,-1.25 2.0025,-1.49875 -0.4975,0.1275 -1.7475,1.12375 -2.0025,1.12375 -0.74625,0.12625 0.255,-2.37375 0.255,-2.37375 -0.255,0.49875 -0.625,1.25 -0.625,1.875 -0.1275,0.625 0.37,0.87375 0,1.49875 -0.1275,0.25 -0.37625,0 -0.50375,0 -0.24875,0.25 -3.37375,2.87625 -2.5,4.75125 0,0.1275 0.24875,0.24875 0.24875,0.625 -0.24875,0.625 -0.4975,1.12375 -0.74625,1.49875 -1.00125,3.75 1.99625,5.1275 4.49625,5.25 l 0,2.25 c -2.5,0.25 -4.745,1.25 -5.74625,3.2525 -0.37625,1.00125 -0.625,2.6225 0,3.6225 1.25,2.125 2.9975,2.87625 5.12125,3.8775 l 0,1.9975 c -2.3725,0.625 -4.62375,1.37625 -5.74625,3.25125 -0.7525,1.25 -0.7525,2.99875 0,4.24875 0.87375,1.50375 3.6225,2.875 5.625,3.25125 l 0,2.25125 c -0.625,0 -2.37875,0.7475 -3.2525,2.87625 -0.87375,2.74875 1.25,3.99875 3.2525,5 0,2.24625 -0.37625,4.74625 -0.37625,6.62125 0.37625,0.5025 0.7525,0.87875 1.3775,1.1275 0.12125,0.1225 0.74625,-0.24875 1.37125,0 l 0.37625,0 c 0.37625,0.37625 2.3725,-0.24875 2.74875,-0.87375 l 0,-2.12875 c 0,-1.3725 -0.12125,-2.5 -0.12125,-4 0.625,-0.375 1.1225,-1.1225 1.49875,-1.7475 1.99625,-3.0025 -1.12875,-2.87625 -1.75375,-2.87625 l 0,-1.00125 c 2.6275,-0.375 4.87875,-1.25 5.50375,-3.6225 1.25,-4.62375 -3.50125,-5.7525 -5.50375,-5.87375 z" />
    <path
       inkscape:connector-curvature="0"
       id="path488"
       style="fill:#000000;fill-opacity:1;fill-rule:evenodd;stroke:none"
       d="m -60.242321,428.79845 1.12875,-0.25 0.12125,0 c 0.24875,0 0.37625,0.25 0.37625,0.25 0,0.25375 -0.1275,0.375 -0.37625,0.375 l -0.12125,0 -1.12875,-0.12125 0,-0.25375 z m -0.12125,0.5025 0.74625,0.7475 c 0.24875,0.12625 0.50375,0.12625 0.50375,0.25375 0,0.24875 -0.255,0.37125 -0.50375,0.37125 -0.12125,0 -0.12125,-0.1225 -0.12125,-0.1225 l -0.88,-1.00125 0.255,-0.24875 z m -0.255,-1.1275 0.625,-0.875 c 0.255,-0.12125 0.255,-0.375 0.37625,-0.375 0.24875,0 0.50375,0.25375 0.50375,0.375 0,0.25 -0.255,0.25 -0.50375,0.50375 l -0.74625,0.37125 -0.255,0 z m -0.37,1.625 0.24875,0.875 0,0.25375 c 0,0.24875 -0.24875,0.37125 -0.50375,0.37125 0,0 -0.12125,-0.1225 -0.12125,-0.37125 l 0,-0.25375 0.12125,-0.875 0.255,0 z m -0.255,-1.875 -0.12125,-1.25 0,-0.12125 0.12125,-0.25375 c 0.255,0 0.50375,0.25375 0.50375,0.375 l 0,0.25 -0.24875,1 -0.255,0 z m 0,1.62625 c -0.12125,0 -0.4975,-0.37625 -0.4975,-0.75125 0,-0.25 0.24875,-0.625 0.4975,-0.625 0.50375,0 0.88,0.375 0.88,0.625 0,0.375 -0.37625,0.75125 -0.88,0.75125 z m -0.4975,0 -0.625,1.00125 -0.1275,0.1225 c -0.24875,0 -0.4975,-0.1225 -0.4975,-0.37125 0,-0.1275 0.24875,-0.1275 0.4975,-0.25375 l 0.7525,-0.7475 0,0.24875 z m 0,-1.37625 -0.7525,-0.37125 c -0.24875,-0.25375 -0.4975,-0.25375 -0.4975,-0.50375 0,-0.12125 0.24875,-0.375 0.4975,-0.375 0.1275,0 0.1275,0.25375 0.37625,0.375 l 0.37625,0.875 z m -0.24875,0.87875 -1.12875,0.12125 -0.24875,0 c -0.24875,0 -0.24875,-0.12125 -0.24875,-0.375 l 0.24875,-0.25 0.37625,0 1.00125,0.25 0,0.25375 z" />
    <path
       inkscape:connector-curvature="0"
       id="path490"
       style="fill:#000000;fill-opacity:1;fill-rule:evenodd;stroke:none"
       d="m -1.4923214,428.79845 1.00124997,-0.25 0.24875,0 c 0.24875,0 0.37625,0.25 0.37625,0.25 0,0.25375 -0.1275,0.375 -0.37625,0.375 l -0.24875,0 -1.00124997,-0.12125 0,-0.25375 z m -0.37625,0.5025 1.00124997,0.7475 c 0.24875,0.12625 0.24875,0.12625 0.24875,0.25375 0,0.24875 0,0.37125 -0.24875,0.37125 -0.12125,0 -0.12125,-0.1225 -0.37624997,-0.1225 l -0.625,-1.00125 0,-0.24875 z m 0,-1.1275 0.625,-0.875 c 0,-0.12125 0.25499997,-0.375 0.37624997,-0.375 0.24875,0 0.24875,0.25375 0.24875,0.375 0,0.25 0,0.25 -0.24875,0.50375 l -1.00124997,0.37125 z m -0.625,1.625 0.255,0.875 0.24875,0.25375 c 0,0.24875 -0.24875,0.37125 -0.50375,0.37125 -0.12125,0 -0.24875,-0.1225 -0.24875,-0.37125 l 0.1275,-0.25375 0.12125,-0.875 z m 0,-1.875 -0.12125,-1.25 c -0.1275,0 -0.1275,0 0,-0.12125 0,-0.25375 0,-0.25375 0.12125,-0.25375 0.255,0 0.50375,0.25375 0.50375,0.375 l -0.24875,0.25 -0.255,1 z m 0,1.62625 c -0.24875,0 -0.4975,-0.37625 -0.4975,-0.75125 0,-0.25 0.24875,-0.625 0.4975,-0.625 0.50375,0 0.625,0.375 0.625,0.625 0,0.375 -0.12125,0.75125 -0.625,0.75125 z m -0.4975,0 -0.625,1.00125 -0.37625,0 c -0.24875,0 -0.24875,0 -0.24875,-0.24875 0,-0.1275 0.24875,-0.1275 0.24875,-0.25375 l 1.00125,-0.7475 0,0.24875 z m 0,-1.37625 -1.00125,-0.37125 c 0,-0.25375 -0.24875,-0.25375 -0.24875,-0.50375 0,-0.12125 0,-0.375 0.24875,-0.375 0.24875,0 0.37625,0.25375 0.37625,0.375 l 0.625,0.875 z m -0.37625,0.87875 -1.00125,0.12125 -0.4975,0 c 0,0 -0.1275,-0.12125 -0.1275,-0.375 0,0 0.1275,-0.25 0.37625,-0.25 l 0.24875,0 1.00125,0.25 0,0.25375 z" />
    <path
       inkscape:connector-curvature="0"
       id="path492"
       style="fill:#000000;fill-opacity:1;fill-rule:evenodd;stroke:none"
       d="m -34.866071,368.05095 -1.7475,0.1225 0.4975,-2.37375 0.24875,0 1.00125,2.25125 z m -7.5,4.2475 -0.4975,0.1275 c -0.1275,0 -0.37625,-0.1275 -0.37625,-0.37625 -0.1275,-0.37625 -0.24875,-1.00125 -0.50375,-1.875 l -0.37,-0.75125 0.12125,0.25375 c 0.24875,0.12125 2.6275,1.49875 3.2525,1.7475 0.37625,0.24875 0.74625,0.24875 1.1225,0 l 0.625,0 c 0,0 0.37625,-0.24875 1.3775,-0.37625 l 1.00125,0 c 0.12125,0 0.12125,0 0.12125,-0.24875 l -0.625,0 -0.12125,-0.12625 c 0,-0.25 0,-0.49875 0.12125,-0.625 l 0.24875,-1.12375 0.255,-0.24875 1.99625,-0.24875 0.87375,1.7475 0,0.24875 c -0.12125,0 -0.12125,0 -0.12125,0.25 l 0.37625,0 1.62,-0.25 0.37625,0 0,-0.24875 -0.625,0 c -0.12125,0 -0.37625,-0.12625 -0.74625,-0.75125 l -1.75375,-3.2475 -1.00125,-1.875 c -0.24875,-0.1275 -0.24875,-0.1275 -0.4975,-0.1275 l -0.1275,0.37625 -1.62,5.625 c 0,0.24875 -0.1275,0.625 -0.37625,0.625 -0.1275,0.24875 -0.625,0.24875 -0.625,0.24875 -0.625,-0.24875 -1.00125,-0.375 -1.3775,-0.625 l -0.12125,0 c -0.37625,-0.24875 -2.6275,-1.37125 -3.125,-1.49875 0.12125,-0.4975 1.1225,-2.25125 1.1225,-2.5 0.37625,-0.625 0.625,-0.87375 0.7525,-1.00125 0.24875,-0.24875 0.4975,-0.24875 0.4975,-0.24875 l 0.1275,0 -0.1275,0 -1.1225,0.24875 -1.00125,0.1275 0,0.24875 0.37625,0 0,0.24875 c 0,0.1275 -0.1275,0.37625 -0.1275,0.625 l -0.24875,0 c 0,0.1275 -0.24875,1.00125 -0.50375,1.5 l -0.37,0.87875 0,0.12125 c 0,-0.12125 -0.255,-0.24875 -0.255,-0.24875 -0.37,-1.49875 -0.625,-1.7475 -0.625,-1.875 l 0,-0.37625 c 0,0 0,-0.24875 0.255,-0.24875 l 0.24875,-0.24875 -0.24875,0 -0.625,0.24875 -0.37625,0.24875 -0.37625,0 -0.7525,0.1275 -0.24875,0.24875 c 0,0.1275 0.24875,0 0.24875,0 l 0.37625,0 c 0.1275,0 0.37625,0 0.37625,0.37625 0.1275,0.24875 0.1275,0.37625 0.7525,1.62625 l 0.37,1.62125 c 0.50375,0.75125 0.625,1.37625 0.625,1.7525 l 0,0.625 -0.37,0 0,0.24875 0.24875,0 0.4975,-0.24875 0.50375,-0.1275 0.24875,-0.24875 0.87375,-0.24875 c 0.1275,0 0.1275,0 0.1275,-0.1275 l -0.1275,0 z" />
    <path
       inkscape:connector-curvature="0"
       id="path494"
       style="fill:#000000;fill-opacity:1;fill-rule:evenodd;stroke:none"
       d="m -32.238571,445.9272 c -0.88,0 -1.505,-0.25375 -1.875,-0.7525 -0.50375,-0.625 -0.88,-1.62625 -0.88,-2.62625 0.1275,-0.99625 0.37625,-1.875 0.7525,-2.24625 0.4975,-0.37625 1.1225,-0.37625 1.49875,-0.37625 0.625,0 1.25,0.1225 1.62625,0.625 0.625,0.625 1.00125,1.49875 1.00125,2.6225 -0.24875,2.5 -1.62625,2.75375 -2.12375,2.75375 z m -0.255,-6.62625 c -2.3725,0 -3.75,1.875 -3.75,3.50125 0,1.7475 1.00125,3.49625 3.50125,3.49625 1.00125,0 2.0025,-0.1225 2.6275,-0.7475 0.74625,-0.87375 1.25,-1.62625 1.25,-2.6275 0,-2.25 -1.25,-3.5 -3.62875,-3.6225 z" />
    <path
       inkscape:connector-curvature="0"
       id="path496"
       style="fill:#000000;fill-opacity:1;fill-rule:evenodd;stroke:none"
       d="m -19.993571,444.6772 -0.24875,0 -1.25,0.24875 -0.12125,0.24875 -0.625,0 -1.00125,0.37625 c 0,0 -0.1275,0 -0.1275,-0.24875 0.1275,0 0.625,-0.1275 0.7525,-0.1275 0.24875,-0.24875 0.24875,-0.4975 0.24875,-0.625 0,-0.37625 -0.24875,-1.25 -0.37625,-2.00125 l -0.4975,-1.3725 -0.1275,-1.1275 c -0.24875,-0.1225 -0.24875,-0.37125 -0.24875,-0.37125 -0.24875,0.24875 -0.625,0.37125 -0.7525,0.625 l -0.24875,0.24875 -0.24875,0 0,-0.24875 c 0,0 1.49875,-1.62625 1.875,-1.875 0,-0.1275 0,-0.1275 0.24875,-0.1275 l 0.1275,0.1275 c 0,0.37125 0.24875,1.25 0.37625,2.24625 l 0.4975,1.625 c 0.1275,0.875 0.24875,1.62625 0.4975,1.875 0,0.37625 0.255,0.37625 0.37625,0.37625 l 0.625,0 c 0,0 0.24875,0 0.24875,0.1275 z" />
    <path
       inkscape:connector-curvature="0"
       id="path498"
       style="fill:#000000;fill-opacity:1;fill-rule:evenodd;stroke:none"
       d="m -16.613571,443.17345 c -0.625,0.12625 -1.505,-0.25 -1.875,-0.875 -0.1275,-1 0.24875,-1.625 0.37,-1.99625 0.88,0.24875 1.875,0.24875 2.0025,0.99625 0.4975,0.75125 0.24875,1.50375 -0.4975,1.875 z m -1.875,-2.87125 -0.37625,0 0.37625,0 z m -0.88,-1.50375 c 0,0 0,-0.1225 -0.24875,-0.1225 l 0,-0.87375 c 0.24875,-0.1275 0.37625,-0.37625 0.7525,-0.625 0.37625,-0.1275 1.00125,0.24875 1.1225,0.625 0.50375,0.87375 0,1.49875 -0.12125,1.62125 -0.7525,0 -1.12875,-0.1225 -1.3775,-0.37125 0.24875,0.24875 0.24875,0.24875 0.37625,0.24875 -0.37625,0 -0.50375,-0.24875 -0.50375,-0.5025 z m 1.875,0.625 0.37625,0 -0.37625,0 z m 2.37875,1.25 c -0.37625,-0.99625 -1.49875,-0.99625 -2.12375,-1.25 0.37,-0.37125 0.74625,-1.12375 0.37,-1.9975 0,-0.24875 -0.24875,-0.5025 -0.625,-0.5025 -0.37,-0.25 -0.995,-0.25 -1.49875,0 -1.00125,0.5025 -1.49875,1.1275 -1.49875,1.7525 l 0,0.625 c 0.4975,0.625 1.1225,0.7475 2.0025,1.00125 -0.1275,0 -0.37625,0.24875 -0.37625,0.37125 -0.37625,0.5025 -0.50375,0.87875 -0.50375,1.37625 0,0.24875 0,0.49875 0.1275,0.7525 0.24875,0.37125 0.37625,0.74625 0.7525,0.74625 0.625,0.37625 1.25,0.25 1.99625,0 1.3775,-0.625 1.75375,-1.875 1.3775,-2.875 z" />
    <path
       inkscape:connector-curvature="0"
       id="path500"
       style="fill:#000000;fill-opacity:1;fill-rule:evenodd;stroke:none"
       d="m -9.7385714,439.92595 -1.0012496,0.625 -0.37625,0.1225 -0.37625,0.25375 -0.74625,0.625 -0.255,0 0,-0.25375 c 0,0 0.37625,-0.1225 0.50375,-0.37125 0.24875,-0.25375 0.24875,-0.25375 0,-0.625 -0.1275,-0.25375 -0.50375,-1.00125 -0.87375,-1.62625 l -0.88,-1.25 -0.37,-0.5025 -0.255,-0.49875 c 0,-0.24875 0,-0.24875 -0.12125,-0.24875 -0.24875,0 -0.37625,0.4975 -0.625,0.7475 0,0 0,0.12625 -0.24875,0.12625 0,0 0,0.1275 -0.1275,0.1275 l 0,-0.1275 c 0.1275,0 1.00125,-2.00125 1.1225,-2.25125 0,0 0,-0.375 0.255,-0.375 0,0.25375 0,0.25375 0.24875,0.25375 l 0,0.12125 1.00125,1.875 0.87375,1.3775 c 0.4975,0.7475 0.87375,1.3725 1.00125,1.62625 0.24875,0.37125 0.4975,0.37125 0.625,0.37125 0.24875,-0.1225 0.4974996,-0.37125 0.6249996,-0.37125 l 0,0.24875 z" />
    <path
       inkscape:connector-curvature="0"
       id="path502"
       style="fill:#000000;fill-opacity:1;fill-rule:evenodd;stroke:none"
       d="m -6.3648214,437.1772 c -0.7525,0.625 -2.25125,-0.25375 -3.125,-1.50375 -0.8737496,-0.99625 -1.2499996,-1.875 -1.2499996,-2.5 0,-0.1225 0.24875,-0.37125 0.37625,-0.625 0.24875,-0.1225 0.4974996,-0.1225 0.6249996,-0.1225 0.74625,0 1.99625,0.7475 2.62125,1.62625 1.12875,1.37125 1.49875,2.62125 0.7525,3.125 z m -0.24875,-4.00375 c -0.37625,-0.625 -1.3775,-1.3725 -2.37875,-1.62125 -0.4975,0 -1.1224996,0.24875 -1.4987496,0.625 -1.25,0.99625 -1.25,2.62125 0.37625,4.49625 0.8737496,1.12875 2.4999996,2.0025 3.9987496,1.00125 0.4975,-0.4975 0.7525,-1.00125 0.7525,-1.62625 0.12125,-0.87375 -0.50375,-1.875 -1.25,-2.875 z" />
    <path
       inkscape:connector-curvature="0"
       id="path504"
       style="fill:#000000;fill-opacity:1;fill-rule:evenodd;stroke:none"
       d="m -65.114821,397.29845 c -0.37625,1.62625 -2.0025,2.5 -3.75,2.125 -2.37875,-0.625 -2.6275,-2.125 -2.37875,-2.87125 0.37625,-1.3775 1.75375,-2.12875 3.75,-1.75375 2.6275,0.625 2.6275,2.0025 2.37875,2.5 z m 0,-2.3725 c -0.625,-0.7525 -1.3775,-1.1275 -2.37875,-1.3775 -0.995,-0.24875 -1.99625,-0.24875 -2.62125,0.25 -0.7525,0.625 -1.3775,1.37625 -1.49875,2.62625 -0.625,2.37375 0.87375,3.75 2.74875,4.24875 1.49875,0.375 3.50125,-0.49875 4.12625,-2.87125 0.12125,-1.00125 0,-2.0025 -0.37625,-2.87625 z" />
    <path
       inkscape:connector-curvature="0"
       id="path506"
       style="fill:#000000;fill-opacity:1;fill-rule:evenodd;stroke:none"
       d="m -69.241071,389.6772 0,-0.1275 0.1275,-0.24875 c 0.24875,-0.24875 0.4975,-0.24875 0.625,-0.24875 0.37,0.24875 0.4975,0.24875 1.7475,0.87375 l 1.3775,0.4975 c 0.74625,0.50375 1.37125,0.875 1.7475,1.00125 0.24875,0 0.4975,0.24875 0.4975,0.49875 l -0.24875,0.12625 0,0.24875 c 0.24875,0 0.24875,0 0.24875,-0.24875 l 0.1275,-0.37625 0.24875,-0.375 0,-0.25 0.625,-1.1225 0.625,-1.1275 c 0.1275,-0.25 0.1275,-0.49875 0,-0.49875 -0.24875,-0.24875 -0.87375,-0.625 -0.87375,-0.625 l -0.1275,0 0,0.1275 c 0.1275,0 0.37625,0.24875 0.37625,0.4975 0.1275,0.24875 0,0.49875 -0.24875,1.00125 -0.37625,0.625 -0.37625,0.7475 -0.625,0.7475 -0.1275,0.25375 -0.7525,0 -1.7475,-0.49875 l -1.62625,-0.75125 c -1.12875,-0.49875 -1.3775,-0.49875 -1.62625,-0.7475 -0.24875,-0.24875 -0.24875,-0.37625 -0.24875,-0.625 l 0.12125,-0.1275 0,-0.24875 -0.12125,0 -0.625,1.25 -0.24875,0.37625 -0.1275,0.625 -0.24875,0.24875 0.24875,0.1275 z" />
    <path
       inkscape:connector-curvature="0"
       id="path508"
       style="fill:#000000;fill-opacity:1;fill-rule:evenodd;stroke:none"
       d="m -49.738571,369.6772 c 0.24875,0 0,0 0,-0.25375 l -0.37625,-0.7475 -0.1275,0 0,-0.24875 c -0.4975,0.24875 -0.87375,0.24875 -1.25,0.625 -0.625,0.12125 -1.00125,0.74625 -1.1225,1.1225 0,0.49875 0,0.87375 0.12125,1.25 0.37625,0.87375 1.25,1.00125 2.37875,1.25 l 0.37625,0 c 0.995,0.24875 1.25,0.37625 1.62,0.87375 0.255,0.37625 0,1.25 -0.625,1.3775 -0.37,0.1225 -0.995,0.625 -1.49875,0 0,-0.1275 -0.24875,-0.1275 -0.24875,-0.37625 0,0 -0.24875,-0.24875 -0.24875,0 -0.1275,0 0,0.24875 0,0.24875 l 0.625,1.00125 c 0,0.1275 0.24875,0.1275 0.24875,0.1275 0.37625,0 0.7525,-0.1275 1.3775,-0.37625 0.37,-0.5025 0.74625,-0.625 0.995,-1.00125 0.1275,-0.37625 0.1275,-0.625 0.1275,-1.00125 0,-0.4975 -0.1275,-0.625 -0.1275,-0.87375 -0.625,-0.87375 -1.25,-1.00125 -2.62125,-1.25 l -0.1275,0 c -1.00125,-0.24875 -1.49875,-0.37625 -1.62625,-0.75125 l 0,-0.49875 c 0,-0.12625 0.1275,-0.4975 0.625,-0.75125 0.37625,-0.25 0.7525,-0.25 1.00125,-0.25 0.1275,0.25 0.37625,0.50375 0.37625,0.50375 l 0.1275,0.12125 0,-0.12125 z" />
    <path
       inkscape:connector-curvature="0"
       id="path510"
       style="fill:#000000;fill-opacity:1;fill-rule:evenodd;stroke:none"
       d="m -23.992321,371.4247 -0.24875,0 -0.87375,-0.24875 -0.37625,-0.1275 -1.1225,0 -0.1275,-0.24875 0.37625,0 c 0.24875,0 0.37625,-0.12625 0.37625,-0.37625 0,-0.375 0.24875,-1 0.4975,-1.99625 l 0.1275,-1.62625 c 0.24875,-1.25 0.24875,-1.3775 0.37,-1.62625 0,-0.24875 -0.12125,-0.37625 -0.12125,-0.37625 -0.24875,-0.24875 -0.37625,-0.24875 -0.37625,-0.24875 l -0.24875,0 c 0,-0.24875 0.24875,-0.24875 0.24875,-0.24875 l 0.625,0.24875 0.4975,0.24875 1.12875,0 0.24875,0.1275 -0.625,0 c -0.24875,0 -0.24875,0.24875 -0.37625,0.24875 0,0.37625 0,0.625 -0.24875,2.0025 l -0.37625,1.49875 c 0,0.7475 -0.24875,1.49875 -0.24875,1.9975 0,0.12625 0,0.375 0.24875,0.375 l 0.625,0.1275 0,0.24875 z" />
    <path
       inkscape:connector-curvature="0"
       id="path512"
       style="fill:#000000;fill-opacity:1;fill-rule:evenodd;stroke:none"
       d="m -7.6148214,373.54845 c 0,0 0.24875,0 0.24875,-0.24875 l 0.625,-0.87375 c 0.1275,-0.1275 0,-0.1275 0,-0.1275 -0.24875,-0.24875 -0.37625,-0.625 -0.87375,-0.87375 -0.50375,-0.37625 -1.12875,-0.625 -1.75375,-0.37625 -0.37,0 -0.7462496,0.1275 -0.9949996,0.625 -0.37625,0.625 -0.37625,1.3775 0,2.5 l 0,0.625 c 0.4974996,0.7525 0.24875,1.12875 0,1.5 -0.37625,0.375 -1.00125,0.625 -1.62625,0.12625 -0.24875,-0.12625 -0.7525,-0.4975 -0.50375,-1.37625 0.255,-0.1225 0.255,-0.25 0.255,-0.25 0,-0.24875 0.12125,-0.24875 0,-0.24875 0,-0.24875 0,0 -0.255,0 l -0.625,1.00125 c -0.12125,0 -0.12125,0.24875 -0.12125,0.24875 l 0,0.1275 c 0.12125,0.12125 0.4975,0.4975 1.00125,0.74625 0.4975,0.37625 0.87375,0.625 1.25,0.625 1.1224996,0 1.4987496,-0.625 1.6199996,-0.87375 0.625,-0.625 0.625,-1.37625 0.1275,-2.74875 l -0.1275,-0.1275 c -0.12125,-0.87375 -0.12125,-1.25 0,-1.7475 0.37625,-0.37625 0.7525,-0.37625 1.3775,-0.1275 0.37625,0.37625 0.625,0.7525 0.625,1.00125 0,0.24875 -0.24875,0.625 -0.24875,0.625 0,0 -0.1275,0.24875 0,0.24875 z" />
    <path
       inkscape:connector-curvature="0"
       id="path514"
       style="fill:#000000;fill-opacity:1;fill-rule:evenodd;stroke:none"
       d="m -7.7423214,380.42345 c 0,-0.24875 0.1275,0 0.1275,0 l 0.24875,0.1275 c 0.24875,0 0.37625,0 0.625,-0.1275 0.1275,-0.24875 0.7525,-0.625 1.3775,-1.25 l 2.62125,-2.74875 -1.00125,-0.625 c -0.24875,-0.4975 -0.4975,-0.75125 -0.87375,-0.75125 0,0.25375 -0.24875,0.25375 -0.24875,0.25375 l -0.1275,0 0,-0.25375 c 0.1275,0 0.7525,-0.49875 1.00125,-0.49875 l 0.24875,0 c 0,0.24875 0,0.24875 0.1275,0.37625 0,0.1225 0.37625,0.37625 0.625,0.625 l 2.37249997,2.6225 0.37625,0.375 0.37625,0 c 0,0.25 0,0.25 -0.1275,0.25 l -0.87375,0.75125 -0.12125,0 c 0,-0.24875 0,-0.24875 0.12125,-0.24875 l 0,-0.37625 c 0,-0.12625 0,-0.37625 -0.37624997,-0.75125 l -0.74625,-0.875 -2.6275,2.6275 c -0.625,0.625 -1.25,1.00125 -1.37125,1.49875 l -0.1275,0.24875 c 0,0.1275 0,0.1275 0.1275,0.1275 l 0.12125,0.37625 0,0.24875 -0.12125,0 -0.625,-0.7525 -0.1275,-0.24875 -0.37625,-0.4975 -0.625,-0.37625 0,-0.1275 z" />
    <path
       inkscape:connector-curvature="0"
       id="path516"
       style="fill:#000000;fill-opacity:1;fill-rule:evenodd;stroke:none"
       d="m 1.7601786,381.17595 c 0,0 0.12125,0 0.12125,0.24875 l 0.50375,0.49875 0.12125,0.5025 0.255,0.24875 0.37,0.49875 c 0.255,0 0.255,0.12625 0.255,0.12625 l -0.255,0 -0.24875,-0.12625 c -0.12125,-0.25 -0.37625,-0.25 -0.4975,0 -0.24875,0 -0.50375,0.12625 -1.62625003,1 l -1.3775,0.875 c -0.62499997,0.625 -1.24999997,1 -1.61999997,1.25 -0.255,0.12625 -0.255,0.12625 -0.255,0.375 l 0.255,0.37625 0.24875,0.24875 -0.24875,0 -0.50375,-0.87375 -0.4975,-0.75125 -0.37625,-0.625 c 0,0 -0.1275,0 -0.1275,-0.25 0.1275,0 0.1275,0.25 0.1275,0.25 l 0.24875,0.12625 c 0.1275,0.24875 0.37625,0 0.625,0 0.1275,-0.12625 0.7525,-0.625 1.49875,-1.00125 l 1.37749997,-1 c 1.00125003,-0.7475 1.25000003,-0.7475 1.62625003,-0.99625 0.12125,-0.25375 0.12125,-0.37625 0.12125,-0.50375 l -0.12125,-0.24875 0,-0.24875 z" />
    <path
       inkscape:connector-curvature="0"
       id="path518"
       style="fill:#000000;fill-opacity:1;fill-rule:evenodd;stroke:none"
       d="m -0.49107143,390.3022 0.24875,0.37125 0.37625,0 c 0.37625,-0.25 1.00125003,-0.37125 1.74750003,-0.7475 l 3.38,-1.3775 -0.50375,-1.25 c -0.24875,-0.4975 -0.24875,-0.625 -0.625,-0.625 0,-0.24875 -0.24875,-0.24875 -0.24875,-0.24875 -0.24875,0.24875 -0.24875,0.24875 -0.24875,0 l 0,-0.12625 c 0.24875,0 1.1225,-0.25 1.25,-0.25 l 0.24875,0 0,0.37625 c 0,0.37625 0.1275,0.625 0.37625,1.00125 l 1.37125,3.2475 0.1275,0.375 0.24875,0.25 0,0.12625 -0.24875,0 -0.87375,0.49875 -0.24875,0 c 0,-0.25 0.24875,-0.25 0.24875,-0.25 l 0.12125,0 c 0,0 0.1275,-0.24875 0.1275,-0.375 0,-0.25 -0.1275,-0.37125 -0.1275,-0.875 l -0.37,-0.87375 -3.38,1.3775 c -0.74625,0.37125 -1.37125,0.4975 -1.74750003,0.74625 -0.24875,0.25 -0.4975,0.25 -0.4975,0.37625 l 0,0.24875 0.24875,0.37625 0,0.24875 -0.24875,-0.24875 -0.255,-0.75125 0,-0.49875 -0.24875,-0.37625 -0.37625,-0.625 0,-0.12125 c 0,0 0,-0.25375 0.1275,0 z" />
    <path
       inkscape:connector-curvature="0"
       id="path520"
       style="fill:#000000;fill-opacity:1;fill-rule:evenodd;stroke:none"
       d="m 8.5076786,396.92345 c 0.1275,0 0.1275,0 0.1275,-0.1225 l -0.1275,-0.625 -0.24875,-0.37625 0,-0.625 -0.1275,-0.75125 0,-0.25 -0.24875,0.25 c 0,0.12625 0.24875,0.375 0.24875,0.375 0,0.37625 -0.24875,0.37625 -0.625,0.37625 -0.24875,0.24875 -0.4975,0.24875 -1.7475,0.37625 l -1.25,0.24875 c -1.1225,0.1275 -2.0025,0.625 -2.3725,1.12375 -0.37625,0.87875 -0.255,1.875 -0.255,2.25 0.255,0.37625 0.50375,1.00125 1.00125,1.62625 0.7525,0.625 1.875,0.625 2.87625,0.49875 l 0.87375,-0.25 c 1.49875,-0.24875 1.62625,-0.375 2.0025,-0.375 0.24875,0 0.37625,0 0.37625,0.12625 l 0.24875,0.49875 c 0,0 0,0.12625 0.24875,0 l 0,-0.25 -0.24875,-0.625 -0.24875,-0.375 0,-1.12375 c 0,0 -0.1275,-0.12625 -0.1275,0 l 0,0.49875 c 0,0.12625 -0.24875,0.375 -0.37625,0.375 -0.37625,0.25 -0.625,0.25 -2.12375,0.37625 l -0.87375,0.24875 c -1.00125,0.25 -1.875,0.25 -2.37875,-0.24875 -0.37,-0.12625 -0.625,-0.75125 -0.625,-1.00125 0,-0.375 -0.12125,-0.74625 0.255,-1.25 0.12125,-0.625 0.74625,-0.74625 1.99625,-1 l 1.12875,-0.1225 c 1.37125,-0.24875 1.62,-0.37625 1.99625,-0.37625 0.24875,0 0.37625,0 0.37625,0.1275 l 0.24875,0.24875 0,0.1225 z" />
    <path
       inkscape:connector-curvature="0"
       id="path522"
       style="fill:#000000;fill-opacity:1;fill-rule:evenodd;stroke:none"
       d="m 8.5076786,404.17345 0.1275,0.25 c 0.24875,0.25375 0.24875,0.375 0.24875,0.87875 l 0,1.37125 -3.6225,-0.24875 c -0.7525,0 -1.62625,0 -1.875,-0.12625 -0.255,0 -0.50375,0 -0.50375,-0.25 l 0,-0.375 c 0,-0.25 -0.12125,0 -0.12125,0 l 0,1.25 -0.255,0.375 0,1.25 0.255,0 0,-0.625 c 0.12125,-0.24875 0.37,-0.375 0.625,-0.375 0.24875,0 0.87375,0 1.7475,0.12625 l 3.75,0 0,1.25 c -0.24875,0.7525 -0.37625,1.00125 -0.625,1.00125 l -0.37625,0 0,0.24875 1.3775,0 0,-0.87375 0.24875,-3.6275 0,-0.875 c 0,-0.12125 0.1275,-0.12125 0.1275,-0.375 0,0 0,-0.25 -0.1275,-0.25 0,0 -0.87375,-0.12125 -1.00125,-0.12125 l -0.24875,0 c 0,0 0,0.12125 0.24875,0.12125 z" />
    <path
       inkscape:connector-curvature="0"
       id="path524"
       style="fill:#000000;fill-opacity:1;fill-rule:evenodd;stroke:none"
       d="m 2.1364286,411.67345 0,0.50375 c 0,0.12125 0.24875,0.12125 0.37,0.37125 0.255,0 1.00125,0.25375 1.75375,0.375 l 1.62625,0.50375 c 1.1225,0.37125 1.62,0.37125 1.7475,0.37125 0.24875,0.25375 0.4975,0.25375 0.625,-0.25 l 0,-0.12125 0.24875,-0.25375 0,0.25375 -0.24875,0.625 0,0.4975 -0.1275,0.24875 c 0,0.37625 -0.4975,1.75375 -0.4975,2.0025 l 0,0.625 -0.1275,0 -0.625,-0.24875 -0.24875,-0.25375 -0.37625,0 0,-0.1225 0.37625,0 c 0.24875,0 0.37625,0 0.625,-0.37625 0,-0.24875 0.24875,-1.25 0.37625,-1.37625 l -0.1275,0 -2.245,-0.625 0,0.12625 c -0.1275,0.625 -0.37625,1.25 -0.37625,1.25 l 0,0.7525 -0.625,-0.1275 -0.625,-0.24875 -0.1275,-0.1275 0.37625,0 c 0.24875,0 0.37625,-0.24875 0.625,-0.4975 0,-0.1275 0.24875,-1.00125 0.24875,-1.1275 l -0.625,-0.25 -0.4975,-0.12125 -0.87375,-0.25375 c -0.625,-0.25 -0.88,0 -1.00125,0.75125 0,0.24875 -0.24875,0.625 -0.24875,0.87375 0,0.37625 0.24875,0.37625 0.625,0.625 0,0 0.24875,0.1275 0,0.1275 -0.255,0 -0.7525,-0.1275 -1.00125,-0.37625 -0.24875003,0 -0.24875003,-0.24875 -0.24875003,-0.37625 l 0.49750003,-1.37125 0,-0.25375 0.37625,-0.875 0,-0.625 0.12125,-0.625 c 0,0 0.255,-0.12125 0.255,0 z" />
    <path
       inkscape:connector-curvature="0"
       id="path526"
       style="fill:#000000;fill-opacity:1;fill-rule:evenodd;stroke:none"
       d="m 5.5101786,419.79845 c 0.24875,0.25 0.74625,0.625 0.74625,0.625 l 0.1275,0.25 0,0.25375 c -0.1275,0 -0.1275,0 -0.1275,0.12125 -0.12125,0.25 -0.37,0.37625 -0.37,0.875 l -1.62625,3.0025 -0.1275,0.625 -0.24875,0.1225 c 0,0.25375 0,0.25375 -0.24875,0 l -0.87375,-0.37125 0,-0.25375 0.37,0 c 0,0.25375 0.37625,0.25375 0.7525,-0.625 l 0.625,-0.99625 -3.37375,-1.50375 c -0.87375003,-0.49875 -1.37750003,-0.625 -1.75375003,-0.875 -0.24875,0 -0.37,-0.12125 -0.62499997,0 l -0.24875,0.37625 c 0,0.24875 0,0.24875 -0.12125,0.24875 l 0,-0.24875 0.62499997,-0.75125 0.12125,-0.37125 0,-0.50375 0.37625,-0.625 c 0,-0.12125 0,-0.12125 0.24875,-0.12125 l 0,0.12125 -0.24875,0.25 0,0.25375 c 0,0 0.24875,0.12125 0.4975,0.37125 0.255,0.25375 0.88,0.375 1.75375003,0.87875 l 3.125,1.49875 0.625,-1.1275 c 0.24875,-0.37125 0.24875,-0.625 0.24875,-0.625 l 0,-0.37125 c -0.24875,0 -0.24875,-0.25375 -0.24875,-0.25375 l -0.24875,0 c 0,0 0,-0.25 0.24875,-0.25 z" />
    <path
       inkscape:connector-curvature="0"
       id="path528"
       style="fill:#000000;fill-opacity:1;fill-rule:evenodd;stroke:none"
       d="m -57.366071,382.42595 0.1275,-0.24875 0.625,-0.50375 0.24875,0 0,-0.24875 0.74625,-0.625 0,-0.24875 -0.24875,0 c 0,0.24875 -0.12125,0.24875 -0.37625,0.37625 -0.12125,0 -0.37,-0.1275 -0.74625,-0.50375 l -2.74875,-2.74875 0.37,0 c 0.625,0 1.75375,0.24875 2.755,0.24875 l 4.12,0 0,-0.24875 -0.12125,-0.12625 -3.75,-4 c -0.50375,-0.4975 -0.50375,-0.625 -0.50375,-0.87375 l 0.255,-0.24875 c 0.24875,0 0.24875,-0.1275 0.24875,-0.1275 -0.24875,0 -0.24875,0 -0.24875,0.1275 l -0.625,0.4975 -0.37625,0.37625 -0.625,0.37625 0,0.24875 0.24875,0 c 0,0 0.1275,-0.24875 0.37625,-0.24875 0.24875,-0.1275 0.37625,0 0.625,0.4975 l 2.9975,2.75 -1.1225,0 -1.875,-0.25 c -1.75375,0 -3.99875,-0.24875 -3.99875,-0.24875 l -0.37625,0 c 0,0.24875 0,0.24875 0.12125,0.49875 l 3.62875,3.87625 c 0.37625,0.625 0.625,0.87375 0.625,1.00125 -0.24875,0.1225 -0.24875,0.1225 -0.37625,0.37625 l 0,0.24875 z" />
    <path
       inkscape:connector-curvature="0"
       id="path530"
       style="fill:#000000;fill-opacity:1;fill-rule:evenodd;stroke:none"
       d="m -58.616071,383.9247 -0.1275,0 -0.24875,0.49875 c -0.12125,0.12625 -0.37625,0.12625 -0.625,0 -0.37625,-0.25 -1.00125,-0.625 -1.62625,-1.12375 l -1.25,-0.87375 c -1.25,-0.625 -1.49875,-0.7525 -1.62,-1.00125 -0.255,-0.24875 -0.255,-0.4975 -0.255,-0.625 l 0.255,-0.24875 0,-0.1275 c -0.255,0 -0.255,0 -0.255,0.1275 l -0.37,0.625 -0.1275,0.24875 -0.4975,0.37625 -0.37625,0.625 0,0.24875 0.24875,0 c 0,-0.24875 0.1275,-0.24875 0.1275,-0.24875 0.24875,-0.24875 0.4975,-0.24875 0.625,0 0.12125,0 0.37,0.24875 1.37125,0.87375 l 1.3775,0.87375 c 0.74625,0.625 1.37125,1.00125 1.62625,1.25 0.12125,0.25 0.37,0.37625 0.12125,0.37625 l 0,0.49875 -0.12125,0 c 0,0 0,0.12625 0.12125,0.12625 0,0 0,-0.12625 0.24875,-0.12625 l 0.255,-0.625 0.37,-0.49875 0.255,-0.12625 0.4975,-0.875 0,-0.24875 z" />
    <path
       inkscape:connector-curvature="0"
       id="path532"
       style="fill:#000000;fill-opacity:1;fill-rule:evenodd;stroke:none"
       d="m -68.864821,407.29845 -0.24875,0 -2.755,0.25 0,-0.25 c 0,0 0,-0.24875 -0.12125,-0.375 0,-0.49875 0.12125,-0.625 0.37625,-0.99625 0.37,-0.25375 0.74625,-0.50375 1.1225,-0.50375 1.00125,0 1.3775,0.25 1.3775,0.50375 0.24875,0.12125 0.24875,0.37125 0.24875,0.4975 l 0,0.87375 z m 3.37375,1.62625 0,-1.37625 -0.24875,-1.12375 0,-0.12625 0,0.12625 -0.1275,0.49875 c 0,0.12625 -0.24875,0.12625 -0.4975,0.375 l -2.12375,0 0,-0.87375 c 0,0 0,-0.12625 0.24875,-0.12625 l 0.4975,-0.37125 0.625,-0.50375 c 0.625,-0.625 1.00125,-1 1.25,-1.37125 0.1275,-0.25375 0.1275,-0.37625 0.1275,-0.7525 l 0,-1.00125 -0.1275,-0.24875 0,0.37625 c 0,0.24875 -0.24875,0.625 -0.625,1.00125 -0.4975,0.625 -1.25,0.99625 -1.99625,1.875 l -0.37625,0.12125 0,-0.12125 c -0.87375,-0.625 -1.3775,-0.87875 -2.0025,-0.87875 -0.625,0 -1.00125,0.375 -1.1225,0.625 -0.50375,0.375 -0.50375,1.25 -0.50375,1.625 l 0.255,1.25 0,1.62625 c 0,-0.24875 0.24875,-0.24875 0.24875,-0.24875 -0.24875,-0.1275 0,-0.37625 0,-0.37625 0,-0.24875 0.12125,-0.37625 0.37625,-0.37625 l 1.875,0 1.62,-0.24875 1.75375,0 c 0.24875,0 0.4975,0.24875 0.625,0.24875 l 0,0.625 0.24875,0 0,-0.24875 z" />
    <path
       inkscape:connector-curvature="0"
       id="path534"
       style="fill:#000000;fill-opacity:1;fill-rule:evenodd;stroke:none"
       d="m -66.989821,415.42345 -2.25125,-0.24875 -0.24875,0 0.24875,0 1.875,-1.37625 0.37625,1.625 z m 3.37375,1.5 -0.37625,-0.7475 0,-0.1275 -0.12125,-0.87375 c 0,-0.12625 0,-0.12625 -0.255,-0.12625 l 0,0.12625 c 0.255,0.37625 0,0.37625 0,0.37625 -0.24875,0.24875 -0.37,0.24875 -0.4975,0.24875 l -1.49875,-0.24875 c 0,0 -0.1275,0 -0.1275,-0.1275 l -0.4975,-1.875 0,-0.12125 1.62625,-1.12875 0.4975,0 0,-0.12125 -0.4975,-1.62625 c 0,-0.37625 0,-0.37625 -0.1275,-0.37625 l 0,0.37625 c 0,0.1225 0,0.4975 -0.87375,1.00125 l -2.87625,2.24625 -1.7475,1.37625 c -0.255,0 -0.255,0.24875 -0.255,0.24875 0,0.1275 0.255,0.1275 0.37625,0.1275 l 6.12875,0.87375 c 0.12125,0 0.625,0 0.74625,0.1275 l 0,0.87375 c 0.24875,0.37625 0,0.7475 -0.12125,1.3725 -0.255,0.625 -1.00125,3.125 -1.3775,3.5 -0.37625,-0.24875 -2.25125,-0.87375 -2.6275,-0.87375 -0.37,-0.12625 -0.74625,-0.37625 -0.995,-0.4975 -0.1275,-0.25375 -0.1275,-0.50375 -0.1275,-0.50375 l -0.24875,-0.12125 0,0.12125 0.37625,1.00125 0.4975,0.87375 0.1275,0 c 0,-0.24875 0,-0.24875 0.24875,-0.24875 0,-0.12625 0.24875,0 0.4975,0 l 0.24875,0 c 0.1275,0.24875 1.00125,0.37625 1.62625,0.625 l 1.00125,0.24875 -0.4975,0.25 c -1.12875,0.5025 -1.3775,0.625 -1.75375,0.625 -0.24875,0.25375 -0.37625,0.25375 -0.625,0 l 0,-0.1225 c 0,0 0,-0.24875 -0.24875,-0.24875 l 0,0.37125 0.4975,0.5025 0.1275,0.37625 0.24875,0.37125 0.1275,0.87875 c 0.24875,0 0.24875,0.12125 0.24875,0.12125 0.24875,-0.12125 0.24875,-0.12125 0,-0.12125 l 0,-0.37625 c -0.24875,-0.24875 0,-0.5025 0.24875,-0.625 0.1275,0 0.37625,-0.24875 1.62625,-0.87375 l 1.49875,-0.625 c 0.625,-0.25375 1.3775,-0.7525 1.62625,-0.7525 0.37625,-0.24875 0.4975,-0.24875 0.4975,0 l 0.255,0.24875 0.24875,0 0,-0.24875 -0.50375,-0.625 -0.12125,-0.37625 -0.1275,-0.24875 -0.4975,-0.75125 0,-0.25 -0.1275,0 0,0.25 0.1275,0.375 c 0,0.25 0,0.37625 -0.1275,0.37625 -0.37625,0.24875 -1.00125,0.625 -1.875,0.87375 l -0.625,0.37625 -0.12125,0 0.12125,0 c 0.24875,-0.37625 1.25,-2.87625 1.49875,-3.50125 0,-0.375 0.1275,-0.74625 0,-1.1225 l -0.24875,-0.625 c -0.24875,0 -0.24875,-0.5025 -0.24875,-0.5025 z" />
    <path
       inkscape:connector-curvature="0"
       id="path536"
       style="fill:#000000;fill-opacity:1;fill-rule:evenodd;stroke:none"
       d="m -54.489821,433.17345 -0.7525,2.25 -1.1225,-1 0,-0.25 1.875,-1.1225 0,0.1225 z m 0,6.1275 -0.37625,-0.24875 c 0,-0.25375 -0.24875,-0.37625 0,-1.25 l 1.25,-3.62875 0.625,-1.99625 0,-0.37625 c 0,-0.24875 -0.24875,0 -0.4975,0 l -5.255,2.9975 c -0.37,0.25 -0.87375,0.37625 -0.995,0.25 l -0.255,-0.25 -0.24875,0 0,0.25 0.87375,0.375 0,0.25 0.7525,0.5025 0.1275,0 0,-0.1275 -0.1275,0 c -0.1275,-0.12125 -0.1275,-0.12125 0,-0.375 0,0 0.1275,-0.25 0.37625,-0.49875 l 1.25,-0.4975 1.49875,1.25 -0.4975,1.875 0,0.24875 -0.255,0 0,-0.24875 c -0.12125,0.24875 0,0.24875 0,0.24875 l 0,0.24875 1.3775,1.00125 c 0.24875,0.1225 0.24875,0.1225 0.37625,0.1225 l 0,-0.1225 z" />
    <path
       inkscape:connector-curvature="0"
       id="path538"
       style="fill:#000000;fill-opacity:1;fill-rule:evenodd;stroke:none"
       d="m -46.116071,436.17595 0.1275,0.24875 0.625,0.24875 0.37,0.25 0.88,0.25375 c 0,0 0.12125,0 0,0.24875 l -0.255,0 -0.12125,-0.24875 c -0.24875,0 -0.50375,0.24875 -0.625,0.625 l -2.6275,5.12125 c 0,0 -0.12125,0.25 -0.37625,0.25 0,-0.25 0,-0.25 -0.24875,-0.37125 l -0.625,-2.12875 -0.37625,-1.62125 c -0.37,-1.00125 -0.74625,-2.0025 -0.74625,-2.6275 l -0.1275,-0.24875 -1.62625,3.2475 c -0.24875,0.625 -0.37,1.1275 -0.24875,1.1275 0.24875,0.1225 0.24875,0.1225 0.37625,0.37625 l 0.24875,0 c 0,0 0,0.24875 -0.24875,0.24875 l -0.1275,-0.24875 -0.74625,-0.37625 -0.24875,0 0,-0.24875 -0.7525,-0.25375 -0.24875,-0.1225 0.24875,0 c 0.1275,0 0.1275,0 0.37625,0.1225 0.24875,0 0.37625,-0.1225 0.74625,-0.99625 l 2.37875,-4.62875 c 0.24875,0 0.24875,-0.25 0.24875,-0.25 0,0 0.1275,0 0.1275,0.50375 l 0.24875,0 c 0,0 0.37625,1.99625 1.00125,3.75 l 0.625,1.875 c 0,0 0.12125,0.625 0.12125,0.87375 l 0.24875,0 0,0.1225 0,-0.1225 1.75375,-3.50125 c 0,-0.4975 0.12125,-0.625 0.12125,-0.625 0,-0.12625 -0.12125,-0.12625 -0.12125,-0.37625 0,0 -0.24875,-0.24875 -0.37625,-0.24875 0,0 -0.24875,0 0,-0.24875 z" />
    <path
       inkscape:connector-curvature="0"
       id="path540"
       style="fill:#000000;fill-opacity:1;fill-rule:evenodd;stroke:none"
       d="m -36.613571,439.6772 -0.255,-0.25375 c -0.24875,0 -0.37,0.25375 -0.4975,0.87875 l -1.62625,5.24875 0,0.1225 -0.24875,0.25375 0,-0.25375 c 0,0 -0.24875,0 -0.24875,-0.1225 l -0.87375,-1.7525 -0.7525,-1.5 c -0.625,-1 -1.25,-1.99625 -1.49875,-2.3725 l -0.24875,-0.24875 -0.625,3.6225 c -0.255,0.625 -0.255,0.87375 0,1.00125 0,0 0.12125,0 0.24875,0.24875 0,0 0.24875,0 0,0 0,0.1275 0,0.1275 -0.1275,0 l -0.74625,-0.24875 -0.37625,0 -0.87375,-0.1275 -0.255,-0.24875 0.625,0 c 0.255,0 0.50375,-0.12625 0.625,-1.00125 l 1.505,-5.12125 c 0,-0.1275 0,-0.1275 0.24875,-0.1275 l 0.24875,0.1275 c 0.1275,0.4975 1.00125,2.12375 2.0025,3.75 l 0.74625,1.62125 0.37625,0.75125 0.24875,0 1.00125,-3.87625 0,-0.625 c 0,0 0,-0.1225 -0.24875,-0.1225 0,-0.24875 -0.1275,-0.24875 -0.37625,-0.24875 -0.24875,0 -0.24875,0 -0.24875,-0.25375 l 0.4975,0 0.50375,0.25375 0.4975,0.24875 0.1275,0 0.625,0.1225 0.12125,0 c 0,0 0,0.25375 -0.12125,0.25375 z" />
    <path
       inkscape:connector-curvature="0"
       id="path542"
       style="fill:#000000;fill-opacity:1;fill-rule:evenodd;stroke:none"
       d="m -19.866071,372.6747 -0.1275,0 -0.87375,-0.37625 -0.37625,0 -0.74625,-0.4975 c -0.24875,0 -0.24875,0 -0.24875,-0.1275 l 0.24875,0 c 0,0 0.24875,0.1275 0.37625,0.1275 0.12125,0 0.37,-0.1275 0.625,-1.00125 l 1.99625,-4.75125 c 0.1275,-0.24875 0.1275,-0.24875 0.37625,-0.24875 l 0,0.24875 0.1275,0.1275 c 0,0 0.74625,1.875 1.37125,3.6225 l 0.87375,1.875 0.37625,0.7525 1.3775,-3.75 c 0,-0.24875 0.12125,-0.5025 0.12125,-0.5025 0,-0.1225 0,-0.1225 -0.12125,-0.37125 0,0 -0.24875,-0.1275 -0.37625,-0.1275 l -0.24875,0 0,-0.24875 0.37625,0 0.625,0.37625 0.37,0 0.255,0.24875 0.625,0.1225 c 0,0 0.12125,0 0.12125,0.25375 l -0.37625,0 c -0.37,-0.25375 -0.37,0 -0.625,0.4975 l -2.12375,5.24875 -0.24875,0.1275 c -0.1275,0 -0.1275,-0.1275 -0.37625,-0.1275 l -0.74625,-2.12375 -0.625,-1.37625 c -0.37625,-0.99625 -0.7525,-1.9975 -1.00125,-2.6225 l -0.1275,-0.24875 -1.25,3.37375 c -0.37625,0.625 -0.37625,0.87375 -0.24875,1.1225 0.24875,0.1275 0.4975,0.1275 0.4975,0.1275 l 0.1275,0.24875 z" />
  </g>
</svg>
